<svg xmlns="http://www.w3.org/2000/svg" width="160" height="134" viewBox="0 0 160 134">
    <g fill="none" fill-rule="nonzero">
        <path fill="#272A7F" d="M100.5 0L160 96H41z" opacity=".2"/>
        <path fill="#35DCD8" d="M28 75l28 45H0z"/>
        <path fill="#FFF" d="M21.666 128.709v3.508c0 .984.79 1.783 1.767 1.783H51.7c.977 0 1.767-.799 1.767-1.783v-12.484h7.066v12.484c0 .984.79 1.783 1.767 1.783h28.267c.977 0 1.767-.799 1.767-1.783v-3.508c0-13.775 4.118-27.888 11.911-40.813 4.042-6.705 6.023-14.425 5.726-22.329-.765-20.396-17.165-37.308-37.334-38.497-5.415-.316-10.7.449-15.63 2.204-4.925-1.757-10.213-2.52-15.642-2.204-20.17 1.189-36.57 18.1-37.336 38.499-.297 7.902 1.684 15.622 5.726 22.327 7.793 12.926 11.911 27.038 11.911 40.813zM51.728 117H39.426V95.352c0-.995-.785-1.804-1.757-1.804H26l5.492-18.04h24.78l-4.03 4.137 2.486 2.551 7.03-7.216a1.836 1.836 0 0 0 0-2.55l-7.03-7.217-2.485 2.551 4.03 4.137H32.59l1.345-4.416a1.8 1.8 0 0 0 .26-.906 37.542 37.542 0 0 1 4.11-16.326h9.908v-3.608h-7.808c1.54-2.32 3.32-4.497 5.386-6.454A35.686 35.686 0 0 1 57.001 33a35.67 35.67 0 0 1 11.208 7.19c2.066 1.958 3.845 4.135 5.386 6.455H57.729l4.03-4.136-2.485-2.551-7.03 7.216a1.836 1.836 0 0 0 0 2.55l7.03 7.216 2.485-2.55-4.031-4.137h17.967a37.542 37.542 0 0 1 4.11 16.326c.007.328.1.639.26.906L81.41 71.9H67.544v3.608h14.964L88 93.549H76.331c-.972 0-1.757.808-1.757 1.803V117H51.728zM28.539 71C22.727 71 18 66.067 18 60c0-6.066 4.727-11 10.539-11H34c-2.215 4.967-3.473 10.39-3.652 16.04L28.565 71h-.026zm56.897 0l-1.785-5.96C83.472 59.39 82.215 53.966 80 49h5.462C91.274 49 96 53.934 96 60c0 6.067-4.726 11-10.538 11h-.026zM72.248 31.062c18.219 1.086 33.032 16.513 33.726 35.121.266 7.211-1.52 14.253-5.171 20.367-8.06 13.5-12.32 28.274-12.32 42.723V131H63.956v-10.715h12.262c.97 0 1.752-.8 1.752-1.785V97.07h12.263c.557 0 1.08-.27 1.412-.728a1.806 1.806 0 0 0 .26-1.592L86.03 75.587c7.235-.553 12.962-6.718 12.962-14.232 0-7.878-6.287-14.287-14.014-14.287h-7.307a40.278 40.278 0 0 0-7.174-9.014A39.527 39.527 0 0 0 62 31.95a35.58 35.58 0 0 1 10.248-.888zM8.026 66.182c.692-18.61 15.504-34.035 33.722-35.12A35.65 35.65 0 0 1 52 31.95a39.485 39.485 0 0 0-8.502 6.104 40.277 40.277 0 0 0-7.173 9.014h-7.306c-7.726 0-14.013 6.41-14.013 14.287 0 7.514 5.726 13.679 12.96 14.233l-5.873 19.165a1.812 1.812 0 0 0 .26 1.59c.329.46.854.726 1.411.726h12.261v21.43c0 .985.783 1.785 1.752 1.785h12.261V131H25.516v-1.727c0-14.449-4.26-29.223-12.319-42.725-3.65-6.113-5.439-13.156-5.17-20.365z"/>
    </g>
</svg>
