<svg xmlns="http://www.w3.org/2000/svg" width="30" height="30" viewBox="0 0 30 30">
    <path fill="#35DCD8" fill-rule="evenodd" d="M15 0c8.285 0 15 6.715 15 15 0 8.284-6.715 15-15 15S0 23.284 0 15C0 6.715 6.715 0 15 0zm7.776 21.508v-5.753c0-3.083-1.646-4.517-3.84-4.517-1.771 0-2.564.974-3.006 1.657v-1.422h-3.336c.044.942 0 10.035 0 10.035h3.336v-5.604c0-.3.022-.6.11-.813.24-.6.79-1.22 1.71-1.22 1.208 0 1.69.92 1.69 2.269v5.37l3.336-.002zM9.08 10.103c1.162 0 1.887-.771 1.887-1.734-.022-.984-.725-1.733-1.866-1.733-1.14 0-1.886.749-1.886 1.733 0 .964.724 1.734 1.844 1.734h.02zm1.668 11.405V11.473H7.413v10.035h3.335z"/>
</svg>
