<svg xmlns="http://www.w3.org/2000/svg" width="142" height="134" viewBox="0 0 142 134">
    <g fill="none" fill-rule="nonzero">
        <circle cx="89.5" cy="81.5" r="52.5" fill="#272A7F" opacity=".2"/>
        <circle cx="28" cy="28" r="28" fill="#35DCD8" transform="rotate(180 28 28)"/>
        <g fill="#FFF">
            <path d="M120.258 18.476h-6.44L103.806 12a1.79 1.79 0 0 0-.967-.284h-8.71c-.461 0-.905.177-1.23.495l-2.224 2.156c-4.1-2.881-8.622-5.029-13.511-6.311a1.801 1.801 0 0 0-1.514.29c-.429.32-.681.815-.681 1.342v39.203c0 .934.78 1.69 1.742 1.69h29.612c.961 0 1.742-.756 1.742-1.69v-1.69c0-1.119-.068-2.249-.167-3.38h12.36c.962 0 1.742-.755 1.742-1.69V20.167c0-.935-.78-1.69-1.742-1.69zm-15.677 28.726H78.453V11.963a38.374 38.374 0 0 1 11.355 5.942 36.787 36.787 0 0 1 7.943 8.128c.975 1.36 1.86 2.79 2.644 4.271H94.13a7.023 7.023 0 0 0-4.925 1.982c-1.317 1.278-2.043 2.976-2.043 4.777 0 3.728 3.125 6.76 6.968 6.76h10.289c.108 1.13.162 2.262.162 3.38zm13.935-6.759H94.13c-1.922 0-3.484-1.516-3.484-3.38 0-.899.362-1.747 1.022-2.387a3.511 3.511 0 0 1 2.462-.992H106.323c.704 0 1.34-.412 1.61-1.043.27-.632.12-1.358-.379-1.842l-7.06-6.847a40.166 40.166 0 0 0-7.044-7.495l1.4-1.36h7.461l10.013 6.474c.285.185.623.284.967.284h5.225v18.588z"/>
            <path d="M27.525 113.268c0 .958.786 1.732 1.754 1.732h40.345c.968 0 1.754-.774 1.754-1.732v-5.196H88.92c4.837 0 8.771-3.884 8.771-8.659V85.558h10.525c.579 0 1.119-.28 1.445-.752.327-.47.4-1.07.191-1.603l-8.653-22.213v-3.142c0-.958-.786-1.732-1.754-1.732H71.378V17.661c0-.782-.531-1.468-1.298-1.673a42.732 42.732 0 0 0-10.98-1.437c-23.213 0-42.1 18.647-42.1 41.565V67.4c0 9.699 3.731 18.83 10.525 25.795v20.074zM20.508 67.4V56.116c0-21.01 17.312-38.101 38.591-38.101 2.947 0 5.89.334 8.77.997v38.836c0 .958.787 1.732 1.755 1.732H97.69v1.732c0 .213.039.422.116.621l7.855 20.161h-9.725c-.968 0-1.754.774-1.754 1.732v8.485c-3.998-.806-7.017-4.302-7.017-8.485h-3.508c0 6.095 4.584 11.14 10.525 11.985v3.602c0 2.865-2.361 5.196-5.263 5.196H64.362v3.463h3.508v3.464H31.033v-19.05c0-.461-.184-.901-.514-1.225-6.455-6.375-10.01-14.847-10.01-23.862z"/>
        </g>
    </g>
</svg>
