<svg xmlns="http://www.w3.org/2000/svg" width="282" height="25" viewBox="0 0 282 25">
    <defs>
        <linearGradient id="hfoawv22ma" x1="0%" x2="76.916%" y1="-4.352%" y2="98.007%">
            <stop offset="0%" stop-color="#272A7F"/>
            <stop offset="100%" stop-color="#35DCD8"/>
        </linearGradient>
    </defs>
    <g fill="none" fill-rule="evenodd">
        <g>
            <g>
                <path fill="#FFF" d="M.91 8.255h15.154v3.953H5.259v5.501h9.882v3.953H5.26v5.699H16.26v3.953H.911V8.254zM28.255 24.79v-3.755h9.75v3.755h-9.75zM58.858 7.794c4.942 0 8.532 2.7 8.532 7.313v.988h-4.216v-.692c0-2.635-1.68-3.788-4.316-3.788-2.305 0-3.722 1.153-3.722 2.734 0 2.174 2.042 2.57 4.81 3.195l.296.066c4.743 1.054 7.543 2.734 7.543 6.918 0 4.645-3.623 7.247-8.531 7.247-5.633 0-9.257-3.03-9.257-8.433v-.725h4.283v.593c0 2.833 1.614 4.744 5.105 4.744 2.8 0 4.118-1.483 4.118-3.196 0-2.009-1.713-2.668-4.743-3.327l-.297-.066c-4.776-1.054-7.61-2.7-7.61-6.884 0-4.118 3.525-6.687 8.005-6.687zm64.198.46h4.348v15.088c0 2.8 1.68 4.546 4.678 4.546s4.678-1.746 4.678-4.546V8.255h4.348v14.89c0 5.27-3.261 8.63-9.026 8.63s-9.026-3.36-9.026-8.63V8.254zm34.327 0h6.983l6.391 23.06h-4.48l-1.384-5.14h-8.037l-1.384 5.14h-4.48l6.39-23.06zm.494 13.968h5.995l-2.8-10.344h-.395l-2.8 10.344zm40.75-6.687c0 3.492-1.976 5.995-4.94 6.885l4.677 8.894h-4.81l-4.249-8.532h-3.854v8.532h-4.348V8.288h10.146c4.348 0 7.378 2.866 7.378 7.247zm-13.176-3.294v6.588h5.37c2.075 0 3.458-1.285 3.458-3.294 0-2.01-1.383-3.294-3.459-3.294h-5.37zm24.313-3.986h15.153v3.953h-10.805v5.501h9.882v3.953h-9.882v5.699h11.002v3.953h-15.35V8.254z" transform="translate(-189 -131) translate(189 124)"/>
                <path fill="url(#hfoawv22ma)" fill-rule="nonzero" d="M103.8 8.212c.606 0 1.097.491 1.097 1.098v17.943h4.378c.606 0 1.098.492 1.098 1.099v2.291c0 .607-.492 1.098-1.098 1.098H82.45c-.606 0-1.098-.491-1.098-1.098V9.31c0-.607.492-1.098 1.098-1.098h21.348zm-17.976 4.47v14.589h14.602V12.682H85.825z" transform="translate(-189 -131) translate(189 124)"/>
                <path fill="#FFF" fill-rule="nonzero" d="M236.472 28.608c0 1.792 1.312 3.04 3.04 3.04s3.04-1.248 3.04-3.04-1.312-3.04-3.04-3.04-3.04 1.248-3.04 3.04zm14.512-17.888c0 1.632 1.248 2.752 2.848 2.752 1.6 0 2.848-1.12 2.848-2.752 0-1.632-1.248-2.752-2.848-2.752-1.6 0-2.848 1.12-2.848 2.752zm4.864 4.608h-4.032V31.2h4.032V15.328zm8.624 7.936c0 4.992 3.648 8.384 8.32 8.384 4.672 0 8.32-3.392 8.32-8.384 0-4.992-3.648-8.384-8.32-8.384-4.672 0-8.32 3.392-8.32 8.384zm4.032 0c0-2.88 1.728-4.8 4.288-4.8 2.56 0 4.288 1.92 4.288 4.8s-1.728 4.8-4.288 4.8c-2.56 0-4.288-1.92-4.288-4.8z" transform="translate(-189 -131) translate(189 124)"/>
            </g>
        </g>
    </g>
</svg>
