<svg xmlns="http://www.w3.org/2000/svg" width="134" height="134" viewBox="0 0 134 134">
    <g fill="none" fill-rule="nonzero">
        <path fill="#272A7F" d="M39 48h95v86H39z" opacity=".2"/>
        <path fill="#35DCD8" d="M.42 0h68v48h-68z"/>
        <path fill="#FFF" d="M109.839 16H33.387C25.967 16 20 21.908 20 29.253v84.15c0 .958.645 1.597 1.613 1.597h83.226c8.387 0 15.161-6.706 15.161-15.01V26.06C120 20.47 115.484 16 109.839 16zm6.935 10.06v37.843h-14.516c-.968 0-1.613.639-1.613 1.597v11.177c0 3.513-2.903 6.388-6.451 6.388-3.549 0-6.452-2.875-6.452-6.388V65.5c0-.958-.645-1.597-1.613-1.597H71.613V51.13h9.677c2.581 0 5-.958 6.936-2.874 1.774-1.757 2.742-4.152 2.742-6.707 0-5.269-4.355-9.58-9.678-9.58h-9.677V19.194h38.226c3.71 0 6.935 3.193 6.935 6.866zm-93.548 3.193c0-5.588 4.516-10.06 10.161-10.06h35v14.372c0 .958.645 1.596 1.613 1.596h11.29c3.549 0 6.452 2.874 6.452 6.387 0 1.757-.645 3.354-1.936 4.471-1.129 1.278-2.741 1.916-4.516 1.916H70c-.968 0-1.613.64-1.613 1.597v14.371H55.484v-9.58c0-2.555-.968-4.95-2.903-6.867-1.775-1.756-4.194-2.714-6.775-2.714-5.322 0-9.677 4.311-9.677 9.58v9.581H23.226v-34.65zm0 37.844h14.516c.968 0 1.613-.639 1.613-1.597V54.323c0-3.513 2.903-6.388 6.451-6.388 1.775 0 3.388.64 4.517 1.917 1.29 1.277 1.935 2.874 1.935 4.47V65.5c0 .958.645 1.597 1.613 1.597h14.516V79.87H58.71c-2.581 0-5 .958-6.775 2.714-1.935 1.917-2.903 4.312-2.903 6.867 0 5.269 4.355 9.58 9.678 9.58h9.677v12.774H23.226v-44.71zm93.548 32.893c0 6.547-5.322 11.816-11.935 11.816H71.613v-14.37c0-.959-.645-1.597-1.613-1.597H58.71c-3.549 0-6.452-2.874-6.452-6.387 0-.48 0-.799.161-1.278.323-1.277.807-2.395 1.775-3.193.322-.32.645-.48.967-.799h.162c.322-.16.645-.479 1.129-.638.322-.16.645-.16.967-.32h.162c.322-.16.645-.16 1.129-.16H70c.968 0 1.613-.638 1.613-1.596V67.097h12.903v9.58c0 5.27 4.355 9.581 9.678 9.581 5.322 0 9.677-4.311 9.677-9.58v-9.581h12.903V99.99z"/>
    </g>
</svg>
