<svg xmlns="http://www.w3.org/2000/svg" width="30" height="30" viewBox="0 0 30 30">
    <path fill="#35DCD8" fill-rule="nonzero" d="M15 0C6.717 0 0 6.717 0 15c0 8.285 6.716 15 15 15 8.285 0 15-6.715 15-15 0-8.283-6.715-15-15-15zm7.557 11.976c.008.162.01.325.01.49 0 4.995-3.802 10.755-10.755 10.755-2.134 0-4.122-.626-5.795-1.698.296.035.597.052.902.052a7.584 7.584 0 0 0 4.695-1.618 3.786 3.786 0 0 1-3.531-2.626 3.757 3.757 0 0 0 1.707-.065 3.783 3.783 0 0 1-3.033-3.705v-.05c.51.284 1.093.454 1.713.474A3.78 3.78 0 0 1 7.3 8.938a10.732 10.732 0 0 0 7.792 3.949 3.78 3.78 0 0 1 6.441-3.448 7.55 7.55 0 0 0 2.401-.917 3.791 3.791 0 0 1-1.663 2.09 7.558 7.558 0 0 0 2.172-.594 7.637 7.637 0 0 1-1.886 1.958z"/>
</svg>
