<svg width="150" height="150" viewBox="0 0 150 150" fill="none" xmlns="http://www.w3.org/2000/svg">
<g clip-path="url(#clip0_453_1125)">
<path id="path1" d="M7.49315 72.4704L0.0529501 87.9646C-0.121678 88.3139 0.14291 88.7531 0.576834 88.7531H3.20683C3.47142 88.7531 3.64605 88.6631 3.73072 88.4038L4.69382 86.1284C4.78378 85.9538 4.9584 85.7791 5.2177 85.7791H11.1709C11.4355 85.7791 11.6101 85.8691 11.6948 86.1284L12.6579 88.4038C12.7479 88.5785 12.9225 88.7531 13.1818 88.7531H15.8065C16.2457 88.7531 16.505 88.3139 16.3304 87.9646L8.80022 72.4704C8.71026 72.2058 8.45096 72.1211 8.18637 72.1211H8.09641C7.83182 72.0312 7.57253 72.2111 7.48257 72.4704H7.49315ZM10.1179 82.8845H6.1808L8.19166 78.5083C8.1017 78.5083 10.1179 82.8845 10.1179 82.8845Z" fill="#0F110E"/>
<path id="path2" d="M31.5653 73.3437V72.8198C31.5653 72.4705 31.3008 72.2959 31.0415 72.2959H18.8757C18.5265 72.2959 18.3518 72.5605 18.3518 72.8198V74.9206C18.3518 75.2699 18.6164 75.4445 18.8757 75.4445H26.0513L18.3466 87.3509C18.2566 87.4409 18.2566 87.5256 18.2566 87.6155V88.0547C18.2566 88.404 18.5212 88.5786 18.7805 88.5786H31.1208C31.4701 88.5786 31.6447 88.314 31.6447 88.0547V85.9539C31.6447 85.6047 31.3801 85.43 31.1208 85.43H23.6806L31.3854 73.5236C31.4754 73.5236 31.5601 73.4336 31.5601 73.349L31.5653 73.3437Z" fill="#0F110E"/>
<path id="path3" d="M47.0595 78.2437C47.0595 74.7406 44.5195 72.2905 40.7571 72.2905H34.9785C34.6292 72.2905 34.4546 72.5551 34.4546 72.8144V88.134C34.4546 88.4833 34.7192 88.6579 34.9785 88.6579H37.4286C37.7778 88.6579 37.9524 88.3933 37.9524 88.134V84.6309C37.9524 84.2816 38.217 84.107 38.4763 84.107H40.1379L43.4664 88.4833C43.5564 88.6579 43.731 88.7479 43.9057 88.7479H46.705C47.1442 88.7479 47.4035 88.224 47.1442 87.8747L43.8157 83.4985C45.8266 82.5354 47.0543 80.6092 47.0543 78.2437H47.0595ZM37.9577 75.5291H40.4978C42.2493 75.5291 43.3871 76.5821 43.3871 78.1538C43.3871 79.7254 42.2493 80.8685 40.4978 80.8685H37.9577V75.5291Z" fill="#0F110E"/>
<path id="path4" d="M50.3881 72.2959H52.8382C53.1875 72.2959 53.3621 72.5605 53.3621 72.8198V88.1394C53.3621 88.4887 53.0975 88.6633 52.8382 88.6633H50.3881C50.0389 88.6633 49.8643 88.3987 49.8643 88.1394V72.8198C49.8643 72.5552 50.1288 72.2959 50.3881 72.2959Z" fill="#0F110E"/>
<path id="path5" d="M60.0138 82.6254H66.4063C66.7555 82.6254 66.9302 82.3608 66.9302 82.1015V79.9107C66.9302 79.5615 66.6656 79.3869 66.4063 79.3869H60.0138V75.5345H67.3694C67.7186 75.5345 67.8933 75.2699 67.8933 75.0106V72.8198C67.8933 72.4705 67.6287 72.2959 67.3694 72.2959H57.0399C56.6906 72.2959 56.516 72.5605 56.516 72.8198V88.1394C56.516 88.4887 56.7806 88.6633 57.0399 88.6633H67.454C67.8033 88.6633 67.9779 88.3987 67.9779 88.1394V86.0386C67.9779 85.6893 67.7133 85.5147 67.454 85.5147H60.0138V82.6254Z" fill="#0F110E"/>
<path id="path6" d="M73.4072 72.2959H70.9571C70.6079 72.2959 70.4332 72.5605 70.4332 72.8198V88.1394C70.4332 88.4887 70.6978 88.6633 70.9571 88.6633H81.1966C81.5459 88.6633 81.7205 88.3987 81.7205 88.1394V86.0386C81.7205 85.6893 81.4559 85.5147 81.1966 85.5147H74.021V72.8198C74.021 72.5552 73.7564 72.2959 73.4072 72.2959Z" fill="#0F110E"/>
<path id="path7" d="M84.6998 72.2959H87.1499C87.4991 72.2959 87.6737 72.5605 87.6737 72.8198V88.1394C87.6737 88.4887 87.4092 88.6633 87.1499 88.6633H84.6998C84.3505 88.6633 84.1759 88.3987 84.1759 88.1394V72.8198C84.1759 72.5552 84.4405 72.2959 84.6998 72.2959Z" fill="#0F110E"/>
<path id="path8" d="M106.237 75.3598C107.465 75.3598 108.513 75.7091 109.391 76.3229C109.74 76.4976 110.09 76.4129 110.354 76.1483L111.407 74.3967C111.582 74.1322 111.497 73.6982 111.233 73.5236C109.83 72.5605 108.079 72.0366 106.243 72.0366C103.792 72.0366 101.602 72.9098 100.03 74.402C98.4531 75.979 97.58 78.0798 97.58 80.4399C97.58 82.8 98.4531 84.9062 100.03 86.4778C101.607 88.0495 103.882 88.8432 106.243 88.8432C108.169 88.8432 109.83 88.3193 111.233 87.3562C111.497 87.1816 111.582 86.7424 111.407 86.4831L110.354 84.7315C110.18 84.3823 109.74 84.2923 109.391 84.5569C108.518 85.1707 107.465 85.52 106.237 85.52C103.173 85.52 100.983 83.3292 100.983 80.3553C100.983 77.3813 103.173 75.3651 106.237 75.3651V75.3598Z" fill="#0F110E"/>
<path id="path9" d="M121.292 72.0312C116.392 72.0312 112.624 75.709 112.624 80.5245C112.624 85.34 116.387 88.9278 121.292 88.9278C126.198 88.9278 129.96 85.34 129.96 80.5245C129.96 75.709 126.198 72.0312 121.292 72.0312ZM121.292 85.6893C118.318 85.6893 116.217 83.4985 116.217 80.5245C116.217 77.5505 118.318 75.3598 121.292 75.3598C124.266 75.3598 126.367 77.5505 126.367 80.5245C126.367 83.4985 124.266 85.6893 121.292 85.6893Z" fill="#0F110E"/>
<path id="path10" d="M148.688 72.2959C148.338 72.2959 148.074 72.3859 147.989 72.6452L141.338 82.9747C141.163 83.2392 140.724 83.2392 140.549 82.9747L133.982 72.6452C133.807 72.4705 133.633 72.2959 133.368 72.2959H133.278C132.839 72.2959 132.49 72.6452 132.49 72.9944L131.876 88.2241C131.876 88.4887 132.05 88.6633 132.315 88.6633H134.94C135.204 88.6633 135.379 88.4887 135.379 88.2241L135.644 81.3977L140.284 88.6633C140.374 88.7533 140.549 88.8379 140.634 88.8379H141.248C141.422 88.8379 141.512 88.748 141.597 88.6633L146.238 81.3977L146.502 88.2241C146.502 88.4887 146.677 88.6633 146.941 88.6633H149.566C149.831 88.6633 150.005 88.4887 150.005 88.2241L149.482 72.9944C149.482 72.6452 149.132 72.2959 148.693 72.2959H148.688Z" fill="#0F110E"/>
<mask id="mask0_453_1125" style="mask-type:luminance" maskUnits="userSpaceOnUse" x="90" y="84" width="5" height="5">
<path id="path11" d="M92.9285 84.9009C94.0662 84.9009 94.9393 85.774 94.9393 86.9117C94.9393 87.9648 93.9762 88.9226 92.9285 88.9226C91.7907 88.9226 90.9176 88.0495 90.9176 86.9117C91.0076 85.8587 91.8807 84.9855 92.9285 84.9009Z" fill="white"/>
</mask>
<g mask="url(#mask0_453_1125)">
<path id="path12" d="M94.9446 84.9009H90.9176V88.9279H94.9446V84.9009Z" fill="#0F110E"/>
</g>
<path id="path13" d="M91.8808 78.6831H93.9816C94.4208 78.6831 94.7701 79.0324 94.7701 79.4716V81.5724C94.7701 82.0116 94.4208 82.3609 93.9816 82.3609H91.8808C91.4415 82.3609 91.0923 82.0116 91.0923 81.5724V79.4716C91.0923 79.0324 91.4415 78.6831 91.8808 78.6831Z" fill="#0F110E"/>
<path id="path14" d="M92.4046 72.5554L90.9176 75.1801C90.6531 75.6193 91.0076 76.0532 91.4415 76.0532H94.4155C94.8547 76.0532 95.114 75.5294 94.9394 75.1801L93.4524 72.5554C93.2778 72.2061 92.6639 72.2061 92.3993 72.5554H92.4046Z" fill="#0F110E"/>
</g>
<defs>
<clipPath id="clip0_453_1125">
<rect width="150" height="150" fill="white"/>
</clipPath>
</defs>
</svg>
