<svg width="150" height="150" viewBox="0 0 150 150" fill="none" xmlns="http://www.w3.org/2000/svg">
<g clip-path="url(#clip0_453_1120)">
<path id="path1" d="M148.592 69.0784H148.285V68.6974H148.592C148.709 68.6974 148.82 68.7714 148.82 68.8878C148.82 69.0043 148.704 69.0784 148.592 69.0784ZM149.127 68.8878C149.127 68.6233 148.936 68.4328 148.629 68.4328H147.984V69.8404H148.291V69.3429H148.518L148.825 69.8404H149.169L148.825 69.3059C148.979 69.2689 149.132 69.1154 149.132 68.8878M148.524 70.3325C147.878 70.3325 147.307 69.798 147.307 69.1154C147.307 68.4698 147.841 67.8983 148.524 67.8983C149.169 67.8983 149.741 68.4328 149.741 69.1154C149.704 69.8033 149.169 70.3325 148.524 70.3325ZM148.524 67.6284C147.688 67.6284 147.037 68.3163 147.037 69.1154C147.037 69.9145 147.725 70.6024 148.524 70.6024C149.323 70.6024 150.011 69.9145 150.011 69.1154C150.011 68.3163 149.323 67.6284 148.524 67.6284Z" fill="#0F110E"/>
<path id="path2" d="M110.333 77.0003C109.571 78.3339 108.163 79.2864 106.486 79.2864C104.052 79.2864 102.11 77.3073 102.11 74.9101C102.11 72.5129 104.089 70.5338 106.486 70.5338C108.121 70.5338 109.571 71.4493 110.291 72.7775L112.349 70.719C111.053 68.8934 108.883 67.7133 106.486 67.7133C102.491 67.7133 99.2522 70.9519 99.2522 74.9471C99.2522 78.9424 102.491 82.181 106.486 82.181C108.92 82.181 111.053 80.9639 112.386 79.1329L110.328 77.0003H110.333ZM59.8498 79.2864C57.4156 79.2864 55.4735 77.3073 55.4735 74.9101C55.4735 72.5129 57.4526 70.5338 59.8498 70.5338C62.2469 70.5338 64.2261 72.5129 64.2261 74.9101C64.2631 77.3073 62.284 79.2864 59.8498 79.2864ZM59.8498 67.6763C55.8545 67.6763 52.616 70.9148 52.616 74.9101C52.616 78.9054 55.8545 82.1439 59.8498 82.1439C63.8451 82.1439 67.0836 78.9054 67.0836 74.9101C67.0836 70.9148 63.8451 67.6763 59.8498 67.6763ZM141.401 67.9832L137.824 73.8094L134.247 67.9832H130.971V81.6888H133.903V72.7405L137.025 77.4978C137.369 78.0322 138.168 78.0322 138.549 77.4978L141.671 72.7405V81.6888H144.602V67.9832C144.64 67.9832 141.406 67.9832 141.406 67.9832H141.401ZM89.9281 79.1382H87.4516V70.5709H89.9281C92.7433 70.5709 94.2303 72.4388 94.2303 74.8731C94.2303 77.3073 92.6692 79.1382 89.9281 79.1382ZM89.9281 68.0202H84.5199V81.7259H89.9281C94.2303 81.7259 97.199 79.0218 97.199 74.8731C97.199 70.7243 94.2303 68.0202 89.9281 68.0202ZM72.7934 76.8151L74.926 70.9148L77.0586 76.8151H72.7934ZM73.1003 68.0202L67.8086 81.7259H71.1212L71.9943 79.4028H77.8576L78.6937 81.7259H82.0063L76.7146 68.0202H73.1003ZM45.5726 74.2645H42.5246V70.5709H45.5726C46.7527 70.5709 47.6311 71.2588 47.6311 72.4388C47.6311 73.6189 46.758 74.2645 45.5726 74.2645ZM50.5998 72.4388C50.5998 69.8882 48.8482 68.0202 45.9907 68.0202H39.5929V81.7259H42.5246V76.8522H44.6572L47.3612 81.7259H50.7109L47.6258 76.5082C49.0705 76.1272 50.5945 74.8307 50.5945 72.4336M32.2797 79.17H28.5491V75.9737H32.3168C33.4598 75.9737 34.0684 76.6987 34.0684 77.5718C34.0684 78.5614 33.3804 79.17 32.2797 79.17ZM28.5491 70.4915H32.2057C33.1952 70.4915 33.8038 71.1371 33.8038 71.9785C33.8038 72.8199 33.1952 73.4654 32.2057 73.4654H28.5491V70.4968V70.4915ZM34.4123 74.6402C35.7088 74.3756 36.7724 73.2326 36.7724 71.481C36.7724 69.7295 35.4389 67.9779 32.8142 67.9779H25.6174V81.6835H33.0418C35.6665 81.6835 37.037 80.0484 37.037 77.9899C37.037 76.2754 35.857 74.8678 34.4123 74.6402ZM121.71 79.2864C119.276 79.2864 117.334 77.3073 117.334 74.9101C117.334 72.5129 119.313 70.5338 121.71 70.5338C124.108 70.5338 126.087 72.5129 126.087 74.9101C126.087 77.3073 124.108 79.2864 121.71 79.2864ZM121.71 67.6763C117.715 67.6763 114.477 70.9148 114.477 74.9101C114.477 78.9054 117.715 82.1439 121.71 82.1439C125.706 82.1439 128.944 78.9054 128.944 74.9101C128.907 70.9148 125.669 67.6763 121.71 67.6763Z" fill="#0F110E"/>
<path id="path3" d="M17.2829 79.207C16.9019 79.3235 16.5579 79.551 16.2192 79.7785C15.5736 80.1966 14.8487 80.6517 13.9332 80.6517C12.5626 80.6517 11.6101 79.8526 11.3085 78.408C11.0809 77.302 10.2025 73.1162 10.2025 73.1162C9.85855 74.8308 9.32938 77.302 9.09654 78.408C8.78962 79.8156 7.84239 80.6517 6.47183 80.6517C5.55636 80.6517 4.83668 80.1966 4.18579 79.7785C3.84183 79.551 3.49787 79.3235 3.12215 79.207C2.74644 79.0906 2.3231 79.0906 1.94209 79.207C1.6775 79.2811 1.40762 79.3975 1.14304 79.551C2.82052 82.9007 6.1702 85.1867 10.1655 85.1867C14.1607 85.1867 17.6639 82.9007 19.3414 79.551C19.0768 79.4346 18.8069 79.3235 18.5423 79.207C18.0872 79.0536 17.6692 79.0536 17.2882 79.207M10.1708 64.8135C4.57209 64.8135 0.00531006 69.3432 0.00531006 74.9789C0.00531006 76.0426 0.158771 77.0745 0.460401 78.064C0.687946 77.9476 0.957825 77.8365 1.18537 77.7201C2.36543 77.265 3.42907 77.4131 4.49801 78.064C4.49801 78.064 4.87901 78.2916 4.99543 78.3709C5.49286 78.6779 5.94795 78.9795 6.40304 78.9795C6.82109 78.9795 7.23914 78.8631 7.42964 78.027C7.69423 76.7305 8.38215 73.5343 8.68378 71.9732C8.87429 71.0577 8.94837 70.5286 9.06479 70.2216C9.25529 69.6131 9.56221 69.3062 10.0173 69.2321H10.2819C10.737 69.2691 11.0439 69.6131 11.2344 70.2216C11.3508 70.5656 11.4249 71.0577 11.6154 71.9732C11.9223 73.5713 12.605 76.7305 12.8696 78.027C13.0601 78.8631 13.4781 78.9795 13.8962 78.9795C14.3513 78.9795 14.8116 78.6726 15.3038 78.3709C15.4202 78.2969 15.8012 78.064 15.8012 78.064C16.8648 77.4184 17.9338 77.265 19.1138 77.7201C19.3784 77.8365 19.6113 77.9476 19.8388 78.064C20.1457 77.1115 20.2939 76.0479 20.2939 74.9789C20.3309 69.3432 15.8012 64.8135 10.1655 64.8135" fill="#0F110E"/>
</g>
<defs>
<clipPath id="clip0_453_1120">
<rect width="150" height="150" fill="white"/>
</clipPath>
</defs>
</svg>
