<svg width="150" height="150" viewBox="0 0 150 150" fill="none" xmlns="http://www.w3.org/2000/svg">
<g clip-path="url(#clip0_453_1024)">
<path id="path1" fill-rule="evenodd" clip-rule="evenodd" d="M14.4306 67.8137C14.8116 67.475 15.0127 67.2157 14.711 67.2157C14.0707 67.2157 10.1972 67.7872 9.39812 64.8609C8.59907 61.9345 12.8695 53.1079 13.0336 52.7269C13.187 52.3617 12.8695 51.9014 12.3985 51.9014C11.9276 51.9014 11.5995 52.3988 11.5519 52.4623C7.19146 57.9287 1.10594 64.755 0.322765 67.6972C-1.66164 75.148 6.00611 78.1696 10.8481 78.72C10.9327 78.7305 10.9751 78.6618 10.9751 78.6088V75.963C10.9751 72.391 12.3086 69.7187 14.4306 67.8084" fill="#0F110E"/>
<path id="path2" fill-rule="evenodd" clip-rule="evenodd" d="M135.569 67.8137C135.188 67.475 134.987 67.2157 135.289 67.2157C135.929 67.2157 139.803 67.7872 140.602 64.8609C141.401 61.9345 137.13 53.1079 136.966 52.7269C136.813 52.3617 137.13 51.9014 137.601 51.9014C138.072 51.9014 138.4 52.3988 138.448 52.4623C142.808 57.9287 148.894 64.755 149.677 67.6972C151.662 75.148 143.994 78.1696 139.152 78.72C139.067 78.7305 139.025 78.6618 139.025 78.6088V75.963C139.025 72.391 137.686 69.7187 135.569 67.8084" fill="#0F110E"/>
<path id="path3" fill-rule="evenodd" clip-rule="evenodd" d="M130.479 86.8322C130.479 89.7215 126.616 91.3725 124.102 91.3725C121.414 91.3725 117.609 89.7215 117.609 86.8322V76.6509C117.609 73.7616 121.414 72.4069 124.102 72.4069C126.616 72.4069 130.479 73.7616 130.479 76.6509V86.8322ZM124.102 66.0991C118.138 66.1573 111.174 69.634 111.174 76.6509V87.3243C111.174 94.4576 118.138 97.8179 124.102 97.8761C129.95 97.8179 136.913 94.4576 136.913 87.3243V76.6509C136.913 69.634 129.95 66.1573 124.102 66.0991Z" fill="#0F110E"/>
<path id="path4" fill-rule="evenodd" clip-rule="evenodd" d="M85.5306 86.8322C85.5306 89.7215 81.6676 91.3725 79.154 91.3725C76.4658 91.3725 72.661 89.7215 72.661 86.8322V76.6509C72.661 73.7616 76.4658 72.4069 79.154 72.4069C81.6676 72.4069 85.5306 73.7616 85.5306 76.6509V86.8322ZM79.154 66.0991C73.1902 66.1573 66.2262 69.634 66.2262 76.6509V87.3243C66.2262 94.4576 73.1902 97.8179 79.154 97.8761C85.0014 97.8179 91.9653 94.4576 91.9653 87.3243V76.6509C91.9653 69.634 85.0014 66.1573 79.154 66.0991Z" fill="#0F110E"/>
<path id="path5" fill-rule="evenodd" clip-rule="evenodd" d="M65.7447 68.4226C60.9821 67.1261 57.4631 66.5811 52.3619 66.5811C47.2553 66.5811 43.7257 67.1261 38.9737 68.4173C38.7462 68.4702 38.7038 68.703 38.8097 68.8406C40.4342 70.1953 41.1169 72.0104 41.4344 74.053C44.0485 73.4127 46.4033 73.037 49.1445 72.8835V97.6648C49.1445 97.7548 49.208 97.8077 49.2979 97.8077H55.4205C55.5263 97.8183 55.5792 97.7706 55.5792 97.6701V72.8888C58.2145 73.0476 60.4106 73.418 63.0036 74.053C63.4004 72.021 64.2207 70.1265 65.8876 68.8565C66.0357 68.6713 65.9087 68.4702 65.7447 68.4226Z" fill="#0F110E"/>
<path id="path6" fill-rule="evenodd" clip-rule="evenodd" d="M111.402 66.3162C110.947 66.2527 109.592 66.0569 108.407 66.0992C102.549 66.3267 95.9236 69.8087 95.9236 76.651V97.7333C95.9236 97.8233 95.9871 97.8762 96.077 97.8762H102.2C102.305 97.8868 102.358 97.8391 102.353 97.7386V97.1882V76.6562C102.353 74.402 105.105 73.0049 107.407 72.5393C108.073 70.2903 109.386 68.671 111.397 67.0411C111.751 66.7554 111.73 66.3691 111.407 66.3215" fill="#0F110E"/>
<path id="path7" fill-rule="evenodd" clip-rule="evenodd" d="M32.0627 78.4501C32.0627 78.5242 32.0362 78.5877 31.9886 78.6353C31.941 78.6882 31.8669 78.72 31.7928 78.72H20.061V76.5715C20.061 73.6399 23.5165 72.264 26.2418 72.264C28.7924 72.264 32.0627 73.6399 32.0627 76.5715V78.4448V78.4501ZM26.2418 65.8716C20.1933 65.9298 13.5363 69.4594 13.5363 76.5768V87.3984C13.5363 94.6323 20.1933 98.0401 26.2418 98.1036C30.5757 98.0613 35.5129 96.2515 37.8572 92.4203C37.9365 92.2933 37.8677 92.124 37.746 92.0552C35.677 90.8592 34.4757 90.1978 32.4225 89.0283C32.359 88.9912 32.2902 88.9912 32.2373 89.0812C31.1155 90.9651 28.2526 92.0023 26.2418 92.0023C23.5112 92.0023 20.061 90.3301 20.061 87.3984V84.1652H36.8306C37.7249 84.1652 38.4498 83.4349 38.4498 82.53V76.5768C38.4498 69.4594 32.1738 65.9351 26.2418 65.8716Z" fill="#0F110E"/>
</g>
<defs>
<clipPath id="clip0_453_1024">
<rect width="150" height="150" fill="white"/>
</clipPath>
</defs>
</svg>
