<svg width="150" height="150" viewBox="0 0 150 150" fill="none" xmlns="http://www.w3.org/2000/svg">
<g clip-path="url(#clip0_453_147)">
<path id="path1" d="M132.818 78.4502C133.918 74.9259 134.897 71.8302 135.845 68.724C136.114 67.8508 136.337 66.7872 137.506 67.1206C138.115 67.2952 138.76 68.0678 138.983 68.7081C139.903 71.3963 140.665 74.1374 141.501 76.8574C141.634 77.2807 141.83 77.6882 142.174 78.5455C143.142 75.9313 143.962 73.7353 144.772 71.5286C145.322 70.0257 145.872 68.5229 146.375 67.0041C146.804 65.7077 147.65 65.6071 148.772 66.0305C149.841 66.4326 150.291 67.0253 149.825 68.2107C147.915 73.0685 146.1 77.9634 144.137 82.8C143.899 83.3927 142.988 84.0171 142.359 84.0489C141.845 84.0753 141.02 83.3398 140.792 82.763C139.792 80.2282 138.961 77.6247 138.062 75.0529C137.93 74.6772 137.75 74.3173 137.406 73.513C136.416 76.3388 135.564 78.7571 134.717 81.1808C134.543 81.6835 134.516 82.2973 134.199 82.6783C133.728 83.2498 133.072 84.033 132.484 84.0436C131.897 84.0542 130.992 83.3451 130.743 82.7418C129.008 78.519 127.41 74.238 125.769 69.9781C125.6 69.5336 125.478 69.0679 125.256 68.6499C124.61 67.4645 124.589 66.5649 126.102 66.0093C127.637 65.4484 128.24 66.1204 128.701 67.4804C129.78 70.6819 130.971 73.8464 132.124 77.0267C132.241 77.3495 132.426 77.6511 132.828 78.4555L132.818 78.4502Z" fill="#0F110E"/>;
<path id="path2" d="M68.1577 72.4496C68.1577 73.6984 68.163 74.9473 68.1577 76.1961C68.1313 80.7365 64.8874 84.0808 60.4794 84.1126C55.9973 84.1443 52.5524 80.7629 52.4889 76.2279C52.4518 73.4338 52.5259 70.6398 52.4624 67.8458C52.4307 66.3958 53.1239 65.7185 54.4786 65.7343C55.7909 65.7555 56.3307 66.5016 56.2989 67.8352C56.2354 70.6874 56.2619 73.5397 56.2883 76.3972C56.3148 78.9373 57.9711 80.7312 60.2625 80.7682C62.6808 80.8105 64.3741 79.0643 64.4059 76.4025C64.4429 73.5503 64.4588 70.6927 64.4006 67.8405C64.3688 66.4011 65.0197 65.7132 66.4062 65.7238C67.7662 65.7343 68.2477 66.4911 68.1736 67.814C68.089 69.3539 68.1525 70.9044 68.1525 72.4496H68.1577Z" fill="#0F110E"/>
<path id="path3" d="M110.397 75.0263C110.397 72.645 110.428 70.269 110.386 67.8877C110.36 66.5965 110.92 66.0409 112.201 66.0515C114.895 66.0727 117.593 66.0832 120.287 66.0462C121.414 66.0303 121.769 66.6283 121.784 67.5914C121.8 68.5704 121.43 69.1578 120.303 69.126C118.747 69.0784 117.186 69.1683 115.63 69.1048C113.826 69.036 114 70.2796 113.984 71.4015C113.968 72.5709 113.916 73.7192 115.699 73.6134C117.249 73.5182 118.832 73.46 120.361 73.6663C120.959 73.7457 121.79 74.5236 121.917 75.111C122.118 76.0476 121.567 76.7885 120.361 76.7461C118.927 76.6932 117.482 76.7779 116.048 76.7355C114.487 76.6879 113.968 77.4288 113.958 78.9158C113.953 80.408 114.561 80.9213 116.011 80.8261C117.323 80.7414 118.646 80.8261 119.964 80.8208C121.07 80.8208 121.811 81.1594 121.795 82.4506C121.784 83.6942 121.054 83.8953 120.028 83.8847C117.514 83.8582 114.995 83.8371 112.482 83.89C110.989 83.9217 110.296 83.4137 110.37 81.8103C110.476 79.5561 110.397 77.2912 110.397 75.0316V75.0263Z" fill="#0F110E"/>
<path id="path4" d="M43.276 84.451C39.1167 84.1018 35.6453 81.6464 34.444 77.9581C33.1899 74.1216 34.5181 69.6659 37.5926 67.3746C40.5931 65.1414 45.1228 65.1097 48.3613 67.3111C48.7053 67.5439 49.0228 67.8244 49.3086 68.126C49.9436 68.7875 50.6051 69.486 49.806 70.4279C49.0334 71.3434 48.1073 71.481 47.1284 70.7242C45.6467 69.5759 44.0433 69.0256 42.1277 69.4331C39.0055 70.0998 36.9523 73.2854 37.7778 76.2912C38.6933 79.6303 41.9954 81.44 45.144 80.3235C45.5356 80.1859 45.9377 80.0324 46.2711 79.7996C47.3665 79.0217 48.5571 78.3179 49.4356 79.8843C50.2875 81.3977 49.0122 82.2444 47.901 82.7789C46.4299 83.4827 44.8212 83.906 43.276 84.451Z" fill="#0F110E"/>
<path id="path5" d="M92.8967 78.7309C94.1297 75.5294 95.2092 72.7248 96.2834 69.9202C96.6433 68.9782 97.0507 68.0522 97.3471 67.0891C97.781 65.6603 98.7282 65.6233 99.8765 66.0731C101.02 66.5176 101.369 67.2584 100.861 68.4544C98.8446 73.2063 96.9131 78.0007 94.8282 82.7262C94.5477 83.3665 93.5423 84.0491 92.8649 84.0544C92.2035 84.0544 91.2139 83.3612 90.9282 82.7209C88.8538 78.0536 86.9435 73.3175 84.9379 68.6237C84.4352 67.4436 84.4722 66.5705 85.8057 66.0519C87.0916 65.5545 87.9066 65.7979 88.4093 67.2372C89.51 70.37 90.7535 73.4551 91.9495 76.556C92.177 77.154 92.4575 77.7308 92.8967 78.7415V78.7309Z" fill="#0F110E"/>
<path id="path6" d="M77.6935 65.5542C78.8048 65.8664 80.2494 66.1998 81.6359 66.6813C82.5937 67.0147 82.9535 67.8932 82.3238 68.6657C81.9587 69.1103 81.0485 69.3643 80.4294 69.2955C79.207 69.1632 78.0269 68.5387 76.8151 68.5123C75.4604 68.4805 74.1586 69.0626 73.9417 70.6502C73.73 72.2059 74.9683 72.6134 76.1272 72.9997C77.593 73.4918 79.1276 73.8358 80.5035 74.5078C82.6096 75.5397 83.4563 77.3072 83.1917 79.4874C82.9271 81.6464 81.4824 83.2604 79.2546 83.7949C76.5346 84.4458 73.8835 84.2023 71.481 82.7683C70.8725 82.4031 70.248 81.3554 70.3274 80.7045C70.4862 79.4609 71.4175 79.3498 72.4547 80.0589C74.0422 81.149 75.8308 81.747 77.6988 81.1596C78.519 80.9003 79.4557 80.0959 79.7573 79.318C80.1912 78.1909 79.3869 77.2807 78.2545 76.8574C76.7516 76.2965 75.2064 75.8414 73.7141 75.2487C71.3963 74.3332 70.4491 72.9309 70.5973 70.8195C70.756 68.5176 72.1795 66.6496 74.3121 66.094C75.2858 65.84 76.3071 65.7659 77.6935 65.5542Z" fill="#0F110E"/>
<path id="path7" d="M13.1183 72.8304C16.3462 72.8304 19.516 72.6981 22.654 72.9309C23.379 72.9839 24.612 74.3015 24.5802 74.9894C24.4479 77.6194 23.9558 80.2441 23.4742 82.8477C23.2573 84.0277 22.3418 84.3135 21.1512 84.213C16.8701 83.8425 11.716 79.4451 13.1183 72.8357V72.8304Z" fill="#0F110E"/>
<path id="path8" d="M3.78889 73.603C3.78889 75.5662 3.83652 77.5295 3.77302 79.4874C3.74127 80.5722 4.15932 80.985 5.23354 80.9638C7.09095 80.9268 8.94835 81.0008 10.8005 80.9479C11.9805 80.9109 12.6737 81.3713 12.679 82.5407C12.6843 83.6679 12.1234 84.2129 10.8798 84.1812C7.89 84.1124 4.89487 84.1336 1.89974 84.1653C0.51859 84.1812 -0.0105856 83.5885 0.0052897 82.2285C0.0476237 77.3548 0.0529155 72.4811 0.0052897 67.6074C-0.0105856 66.1787 0.687926 65.6865 1.97382 65.7077C3.16447 65.7288 3.86298 66.1839 3.81006 67.5386C3.73597 69.5548 3.78889 71.5815 3.79418 73.603H3.78889Z" fill="#0F110E"/>
<path id="path9" d="M103.501 74.8307C103.501 72.46 103.549 70.084 103.48 67.7133C103.443 66.4645 103.909 65.7554 105.168 65.7236C106.396 65.6919 107.248 66.1734 107.243 67.581C107.232 72.5077 107.243 77.429 107.237 82.3556C107.237 83.6098 106.56 84.176 105.316 84.1548C104.089 84.1336 103.459 83.6256 103.491 82.308C103.544 79.8156 103.507 77.3232 103.507 74.8307H103.501Z" fill="#0F110E"/>
<path id="path10" d="M15.0762 68.7506C17.214 66.8191 19.1826 65.8031 21.6327 65.5755C23.4689 65.4062 23.6012 66.7079 23.7546 67.7822C23.9557 69.1951 22.691 68.7082 21.9872 68.7241C19.8229 68.7823 17.6585 68.7453 15.0762 68.7453V68.7506Z" fill="#0F110E"/>
<path id="path11" d="M31.3113 72.8306C32.3379 76.9475 30.7609 80.5777 27.3954 82.6891C27.9087 80.4189 28.3691 77.8154 29.1417 75.3071C29.438 74.344 29.7132 72.8941 31.3166 72.8306H31.3113Z" fill="#0F110E"/>
<path id="path12" d="M26.6334 72.915C26.2206 72.2377 25.6967 71.5974 25.4586 70.8619C25.3687 70.592 25.956 70.1104 26.2365 69.7241C26.8133 70.3062 27.5012 70.8248 27.914 71.5022C28.0516 71.7297 27.5118 72.37 27.2843 72.8198C27.0673 72.8515 26.8503 72.8833 26.6334 72.915Z" fill="#0F110E"/>
</g>
<defs>
<clipPath id="clip0_453_147">
<rect width="150" height="150" fill="white"/>
</clipPath>
</defs>
</svg>
