<svg width="150" height="150" viewBox="0 0 150 150" fill="none" xmlns="http://www.w3.org/2000/svg">
<g clip-path="url(#clip0_453_1054)">
<path id="path1" fill-rule="evenodd" clip-rule="evenodd" d="M86.8218 41.2755C85.3295 38.201 82.6042 36.6188 79.0005 36.5288C75.2222 36.4389 72.5869 38.1111 71.0894 41.2755L57.733 69.3959C56.2407 72.4704 55.7115 73.7881 55.7115 75.8995C55.7115 79.3285 58.5215 82.5777 63.2682 82.5777C66.6073 82.5777 68.3641 81.4347 70.3009 78.2702L72.2324 75.1057C73.55 72.9943 75.5715 70.8882 78.9106 70.8882C82.2497 70.8882 84.1812 72.9996 85.4988 75.1057L87.4303 78.2702C89.3618 81.4347 91.034 82.5777 94.3731 82.5777C99.2045 82.5777 101.845 79.2386 101.845 75.8095C101.845 73.6981 101.496 72.4704 100.088 69.5705L86.8165 41.2755H86.8218Z" fill="#0F110E"/>
<path id="path2" fill-rule="evenodd" clip-rule="evenodd" d="M42.5298 36.5288C39.4553 36.5288 37.7831 37.4072 36.1162 39.3387L25.0458 52.0813L13.8855 39.3387C12.2133 37.4072 10.5464 36.5288 7.47192 36.5288C3.16444 36.5288 -3.05176e-05 39.4287 -3.05176e-05 44.9692V74.6718C-3.05176e-05 80.117 3.07448 82.4877 7.90585 82.4877C9.9273 82.4877 11.5942 82.0485 12.9171 81.0801C14.3247 79.7624 15.1132 77.741 15.1132 74.6665V63.1569L18.6269 67.5491C20.2092 69.4806 22.056 70.9781 25.0405 70.9781C27.5012 70.9781 29.2581 70.0097 31.2795 67.4644L34.8832 63.1569V74.6665C34.8832 77.741 35.677 79.7624 37.0793 81.0801C38.3969 82.0485 40.0691 82.4877 42.0906 82.4877C46.9219 82.4877 50.0017 80.117 50.0017 74.6665V44.9639C50.0017 39.4287 46.8373 36.5288 42.5298 36.5288Z" fill="#0F110E"/>
<path id="path3" fill-rule="evenodd" clip-rule="evenodd" d="M139.025 59.7331L147.629 50.0597C149.301 48.1283 150 46.2814 150 43.9954C150 40.2171 146.312 36.5234 142.094 36.5234C139.898 36.5234 137.787 37.5765 135.765 39.8625L128.415 48.2711L121.091 39.7726C119.16 37.4865 116.874 36.5234 114.678 36.5234C110.37 36.5234 106.766 40.0372 106.766 43.9054C106.766 46.1915 107.47 48.0383 109.137 49.9698L117.72 59.6696L109.312 69.0413C107.64 70.9727 107.026 72.8196 107.026 75.0156C107.026 78.704 110.28 82.5723 114.847 82.5723C117.133 82.5723 119.239 81.6938 121.26 79.3231L128.373 71.1156L135.495 79.3231C137.427 81.6092 139.628 82.5723 141.734 82.5723C146.481 82.5723 149.64 78.704 149.64 75.1003C149.64 72.9042 149.026 71.0574 147.354 69.1259L139.014 59.7278L139.025 59.7331Z" fill="#0F110E"/>
<path id="path4" fill-rule="evenodd" clip-rule="evenodd" d="M2.37598 101.676H7.78944V110.714H9.82147V101.676L11.4355 101.528L11.5413 99.9771H2.50827L2.37598 101.676Z" fill="#0F110E"/>
<path id="path5" fill-rule="evenodd" clip-rule="evenodd" d="M16.9759 99.8711C16.0022 99.8711 15.1079 99.8711 14.0496 99.9558L13.9226 101.697C14.9174 101.612 15.7271 101.633 16.6161 101.633C19.1402 101.633 19.9234 101.972 19.9234 103.925V110.714H21.9607V103.565C21.9607 100.702 20.5584 99.8711 16.9759 99.8711Z" fill="#0F110E"/>
<path id="path6" fill-rule="evenodd" clip-rule="evenodd" d="M34.4334 102.358L34.5816 99.9823H32.5443L32.3961 102.358C32.3114 104.015 32.0997 104.967 30.9303 105.369L27.0673 99.9771H24.7548L27.4483 103.692C25.919 104.242 25.2628 105.645 25.1146 107.661L24.903 110.714H26.9403L27.1308 107.83C27.2366 106.491 27.4906 105.327 28.3426 104.883L32.5866 110.719H34.7932L31.7822 106.539C33.3539 106.179 34.2641 105.158 34.4334 102.358Z" fill="#0F110E"/>
<path id="path7" fill-rule="evenodd" clip-rule="evenodd" d="M37.6349 101.739H45.2921L42.5562 110.735L44.5936 110.714L47.3294 101.739L47.4564 99.9771H37.7672L37.6349 101.739Z" fill="#0F110E"/>
<path id="path8" fill-rule="evenodd" clip-rule="evenodd" d="M37.8519 113.477H39.8839V104.713L37.8519 104.84V113.477Z" fill="#0F110E"/>
<path id="path9" fill-rule="evenodd" clip-rule="evenodd" d="M54.9919 106.258L56.9868 106.131V99.9771H54.9919V106.258Z" fill="#0F110E"/>
<path id="path10" fill-rule="evenodd" clip-rule="evenodd" d="M66.3003 99.8076C64.3265 99.8076 63.0142 100.787 62.3315 101.93L62.0775 99.9769H60.1037L60.527 103.136L60.1249 110.714H62.1622L62.5644 103.628C63.538 102.289 64.3265 101.485 65.9564 101.485C67.8667 101.485 68.29 102.782 68.29 105.031C68.29 106.369 68.2054 107.724 68.1207 109.042H64.7075L64.6017 110.719H69.9887C70.2639 108.64 70.3274 106.2 70.3274 104.692C70.3274 101.766 69.1843 99.8129 66.295 99.8129L66.3003 99.8076Z" fill="#0F110E"/>
<path id="path11" d="M75.889 99.9771H73.894V110.714H75.889V99.9771Z" fill="#0F110E"/>
<path id="path12" fill-rule="evenodd" clip-rule="evenodd" d="M88.7215 102.358L88.8697 99.9823H86.8323L86.6842 102.358C86.5995 104.015 86.3878 104.967 85.2184 105.369L81.3554 99.9771H79.0429L81.7364 103.692C80.2071 104.242 79.5509 105.645 79.4027 107.661L79.191 110.714H81.2284L81.4189 107.83C81.5247 106.491 81.7787 105.327 82.6307 104.883L86.8747 110.719H89.0813L86.0703 106.539C87.642 106.179 88.5522 105.158 88.7215 102.358Z" fill="#0F110E"/>
<path id="path13" fill-rule="evenodd" clip-rule="evenodd" d="M93.2195 97.1987L91.288 97.3257V101.739H97.3153L93.6216 110.735L95.659 110.714L99.3526 101.739L99.4796 99.9769H93.2195V97.1987Z" fill="#0F110E"/>
<path id="path14" fill-rule="evenodd" clip-rule="evenodd" d="M112.227 99.7866C109.873 99.7866 108.259 99.8713 106.629 99.9771L106.502 101.718C107.2 101.676 107.883 101.633 108.624 101.612V107.851C108.624 108.873 108.37 109.063 107.481 109.063C107.206 109.063 107.1 109.042 106.698 109.021L106.592 110.719C106.973 110.804 107.333 110.825 107.692 110.825C109.666 110.825 110.661 110.169 110.661 107.603V101.575H111.931C115.471 101.575 115.858 101.935 115.858 104.205V110.719H117.895V103.782C117.895 100.686 116.641 99.7919 112.233 99.7919L112.227 99.7866Z" fill="#0F110E"/>
<path id="path15" fill-rule="evenodd" clip-rule="evenodd" d="M120.991 106.258L122.986 106.131V99.9771H120.991V106.258Z" fill="#0F110E"/>
<path id="path16" fill-rule="evenodd" clip-rule="evenodd" d="M133.675 103.649C133.675 100.723 132.273 99.8711 128.902 99.8711C127.801 99.8711 126.822 99.9134 125.933 99.9558L125.806 101.697C126.61 101.654 127.526 101.633 128.542 101.633C130.876 101.633 131.638 101.993 131.638 104.073V109.015H125.954L125.848 110.714H135.31L135.416 109.163L133.675 109.015V103.644V103.649Z" fill="#0F110E"/>
<path id="path17" fill-rule="evenodd" clip-rule="evenodd" d="M143.608 99.8076C141.634 99.8076 140.321 100.787 139.639 101.93L139.385 99.9769H137.411L137.834 103.136L137.432 110.714H139.469L139.872 103.628C140.845 102.289 141.634 101.485 143.264 101.485C145.174 101.485 145.597 102.782 145.597 105.031C145.597 106.369 145.513 107.724 145.428 109.042H142.015L141.909 110.719H147.296C147.571 108.64 147.635 106.2 147.635 104.692C147.635 101.766 146.492 99.8129 143.602 99.8129L143.608 99.8076Z" fill="#0F110E"/>
</g>
<defs>
<clipPath id="clip0_453_1054">
<rect width="150" height="150" fill="white"/>
</clipPath>
</defs>
</svg>
