<svg width="150" height="150" viewBox="0 0 150 150" fill="none" xmlns="http://www.w3.org/2000/svg">
<g clip-path="url(#clip0_453_160)">
<path id="path1" d="M13.1077 58.2095C5.87385 58.2095 0 64.0833 0 71.3171C0 78.551 5.87385 84.4248 13.1077 84.4248C20.3415 84.4248 26.2153 78.551 26.2153 71.3171C26.2153 64.0833 20.3415 58.2095 13.1077 58.2095ZM13.0389 81.2021C7.56721 81.2021 3.12213 76.7624 3.12213 71.2854C3.12213 65.8084 7.55133 61.3686 13.0389 61.3686C18.5264 61.3686 22.9556 65.8084 22.9556 71.2854C22.9556 76.7624 18.5158 81.2021 13.0389 81.2021Z" fill="#0F110E"/>
<path id="path2" d="M48.6471 59.1353C54.7167 59.1353 56.8493 62.2415 56.8493 67.0729C56.8493 71.9043 54.6797 75.0105 48.6471 75.0105H42.514V83.472H38.5769V63.411C38.5769 60.4212 39.8522 59.1458 42.8421 59.1458H48.6471V59.1353ZM43.9745 62.8448C42.9638 62.8448 42.514 63.2522 42.514 64.2683V71.3116H48.6471C51.9756 71.3116 52.9123 69.9304 52.9123 67.0835C52.9123 64.2365 51.9386 62.8554 48.6471 62.8554H43.9745V62.8448Z" fill="#0F110E"/>
<path id="path3" d="M73.5394 77.8947C73.5394 82.017 71.1052 83.885 65.5648 83.885C60.6964 83.885 57.9658 82.0911 57.9658 78.117C57.9658 73.9312 60.9239 72.4707 65.6018 72.4707H69.7241V70.6397C69.7241 68.322 67.9619 67.7981 65.3002 67.7981C63.0882 67.7981 61.1779 68.0627 59.982 68.5072V65.1257C61.3261 64.6759 63.0512 64.4907 65.0779 64.4907C70.1316 64.4907 73.5394 65.9512 73.5394 70.6239V77.8894V77.8947ZM69.7241 75.3811H65.6018C63.0618 75.3811 61.8235 76.1326 61.8235 78.0376C61.8235 80.2496 63.5857 80.62 65.496 80.62C67.9302 80.62 69.7241 80.2496 69.7241 77.6989V75.3811Z" fill="#0F110E"/>
<path id="path4" d="M81.0591 83.4722H77.2014V71.7563C77.2014 67.1472 79.7415 64.4907 85.3613 64.4907C90.9811 64.4907 93.4841 67.0731 93.4841 71.7563V83.4722H89.6264V71.7563C89.6264 69.4015 88.9174 68.0838 85.3613 68.0838C81.8052 68.0838 81.0591 69.3962 81.0591 71.7563V83.4722Z" fill="#0F110E"/>
<path id="path5" d="M112.206 77.8947C112.206 82.017 109.772 83.885 104.232 83.885C99.3632 83.885 96.6327 82.0911 96.6327 78.117C96.6327 73.9312 99.5908 72.4707 104.269 72.4707H108.391V70.6397C108.391 68.322 106.629 67.7981 103.972 67.7981C101.76 67.7981 99.8501 68.0627 98.6541 68.5072V65.1257C99.9982 64.6759 101.723 64.4907 103.75 64.4907C108.804 64.4907 112.212 65.9512 112.212 70.6239V77.8894L112.206 77.8947ZM108.391 75.3811H104.269C101.729 75.3811 100.49 76.1326 100.49 78.0376C100.49 80.2496 102.253 80.62 104.163 80.62C106.597 80.62 108.391 80.2496 108.391 77.6989V75.3811Z" fill="#0F110E"/>
<path id="path6" d="M122.314 78.6881C122.684 80.2545 123.208 80.5191 124.34 80.5191C125.171 80.5191 125.727 80.2545 126.102 78.6881L129.288 64.9561H133.225L128.754 83.5195C127.478 88.8748 124.674 91.9069 119.393 91.7905L118.604 88.462C122.462 88.5414 123.991 86.4353 124.817 83.5619C124.409 83.7471 123.737 83.8264 123.091 83.8264C120.065 83.8264 119.276 81.8791 118.562 79.0321L115.016 64.9613H118.948L122.308 78.6934L122.314 78.6881Z" fill="#0F110E"/>
<path id="path7" d="M150 77.8947C150 82.017 147.566 83.885 142.025 83.885C137.157 83.885 134.426 82.0911 134.426 78.117C134.426 73.9312 137.39 72.4707 142.062 72.4707H146.185V70.6397C146.185 68.322 144.423 67.7981 141.766 67.7981C139.554 67.7981 137.644 68.0627 136.448 68.5072V65.1257C137.792 64.6759 139.517 64.4907 141.544 64.4907C146.597 64.4907 150.005 65.9512 150.005 70.6239V77.8894L150 77.8947ZM146.185 75.3811H142.062C139.522 75.3811 138.284 76.1326 138.284 78.0376C138.284 80.2496 140.046 80.62 141.957 80.62C144.391 80.62 146.185 80.2496 146.185 77.6989V75.3811Z" fill="#0F110E"/>
</g>
<defs>
<clipPath id="clip0_453_160">
<rect width="150" height="150" fill="white"/>
</clipPath>
</defs>
</svg>
