<svg width="150" height="150" viewBox="0 0 150 150" fill="none" xmlns="http://www.w3.org/2000/svg">
<g clip-path="url(#clip0_453_1032)">
<path id="path1" d="M8.14927 100.3C8.13868 103.39 6.64641 104.861 4.69905 105.147H4.662C4.662 101.993 4.67259 98.8393 4.67788 95.6855H4.83134C6.86337 95.6325 8.15985 96.9872 8.15456 100.226V100.3H8.14927ZM4.18045 91.4838C2.78872 91.4838 1.3917 91.4838 -3.05176e-05 91.4891V118.345C1.54516 118.075 3.09564 117.816 4.64084 117.562C4.64084 114.831 4.65142 112.095 4.65142 109.365H4.69375C9.42458 108.465 12.806 105.491 12.8219 99.9136V99.8448C12.8431 94.0662 9.2817 91.505 4.18045 91.4785" fill="#0F110E"/>
<path id="path2" d="M20.9341 110.429C20.9924 111.365 20.3256 112.191 19.3995 112.328C18.5952 112.418 17.9866 111.937 17.9919 110.111V109.629C17.9972 107.873 18.6164 107.132 19.5318 107.052C20.0134 107.052 20.4949 107.137 20.95 107.306C20.95 108.349 20.9394 109.386 20.9341 110.429ZM23.6382 98.1887C22.5323 97.2574 21.0347 96.8234 18.8122 96.8869C17.3993 96.9451 16.0075 97.2627 14.7058 97.8236C14.7058 99.1359 14.6952 100.443 14.6899 101.755C15.7429 101.173 16.9071 100.813 18.1031 100.697C19.9816 100.607 20.9712 101.544 20.9659 103.406C20.9659 103.766 20.9659 104.126 20.9606 104.491C20.1086 104.105 19.1773 103.936 18.2406 103.994C15.5207 104.174 13.6792 106.073 13.6633 110.323V110.926C13.6527 114.397 15.2455 116.276 17.4998 115.964C18.955 115.768 20.0663 114.868 20.8759 113.286C20.8759 113.932 20.8706 114.577 20.8654 115.223C22.3682 115.032 23.8764 114.852 25.3845 114.683C25.4057 110.746 25.4268 106.809 25.448 102.877C25.4586 100.787 24.8553 99.2206 23.6329 98.194" fill="#0F110E"/>
<path id="path3" d="M34.571 103.803C32.4702 102.189 32.1262 101.744 32.1315 101.072C32.1315 100.363 32.7506 99.8552 33.8672 99.8182C34.9361 99.8235 35.9892 100.046 36.9734 100.469C36.9787 99.252 36.9893 98.0296 36.9946 96.8125C35.8939 96.5267 34.7562 96.3997 33.6185 96.442C30.1259 96.5108 27.7764 98.4053 27.7605 101.337V101.4C27.7499 103.634 29.1575 105.126 31.2213 106.697C33.1687 108.174 33.5126 108.682 33.5073 109.391C33.5073 110.254 32.8882 110.814 31.8087 110.91C30.4805 110.91 29.1628 110.635 27.9404 110.111C27.9351 111.375 27.9245 112.645 27.9193 113.91C29.2792 114.281 30.6921 114.413 32.0944 114.291C35.3542 113.958 37.8625 111.894 37.8783 108.978V108.92C37.8889 107.004 37.0899 105.713 34.5657 103.808" fill="#0F110E"/>
<path id="path4" d="M46.2446 103.285C44.1385 101.713 43.7998 101.284 43.7998 100.644C43.7998 99.9667 44.4189 99.4904 45.5355 99.4586C46.6044 99.4745 47.6575 99.6915 48.6418 100.11C48.6418 98.9401 48.6523 97.7653 48.6576 96.5958C47.5569 96.3153 46.4192 96.1883 45.2815 96.2201C41.7889 96.2624 39.4394 98.0616 39.4235 100.85V100.909C39.4129 103.036 40.8258 104.47 42.8896 105.999C44.8423 107.444 45.1862 107.936 45.1809 108.613C45.1809 109.439 44.5565 109.963 43.4823 110.032C42.1488 110 40.8364 109.719 39.6087 109.195C39.6034 110.402 39.5981 111.609 39.5876 112.815C40.9475 113.196 42.3604 113.35 43.7733 113.27C47.0384 113.027 49.5519 111.101 49.5625 108.296V108.238C49.5731 106.396 48.7688 105.131 46.2446 103.279" fill="#0F110E"/>
<path id="path5" d="M59.9238 104.734C59.9132 107.539 59.3681 109.089 58.2198 109.126C57.0715 109.163 56.4153 107.645 56.4259 104.819C56.4259 104.459 56.4259 104.104 56.4259 103.75C56.4365 100.898 57.0927 99.3683 58.2463 99.3525C59.3999 99.3366 59.9291 100.834 59.9238 103.671V104.734ZM60.1037 95.9922C58.1087 96.0081 57.1403 97.3522 56.4841 98.31C56.4841 97.6485 56.4841 96.9818 56.4894 96.3203C54.9813 96.3362 53.4678 96.352 51.9597 96.3732C51.9279 103.041 51.9015 109.708 51.875 116.376C53.3885 116.281 54.9019 116.196 56.4206 116.122C56.4259 114.191 56.4365 112.259 56.4418 110.328C57.1297 111.254 58.0505 112.487 60.0508 112.418C62.5167 112.333 64.4429 110.433 64.4588 104.835C64.4588 104.364 64.4588 103.893 64.4588 103.427C64.4694 97.7702 62.5538 95.9869 60.0984 96.0028" fill="#0F110E"/>
<path id="path6" d="M74.5396 104.591C74.5396 107.623 73.8464 109.084 72.6928 109.089C71.5392 109.095 70.8459 107.645 70.8459 104.607V103.554C70.8459 100.458 71.5445 99.0561 72.6928 99.0508C73.8411 99.0455 74.5396 100.448 74.5396 103.544V104.591ZM72.6981 95.9922C69.015 95.9922 66.3162 98.6116 66.3109 103.655V104.591C66.3003 109.634 68.9938 112.174 72.6928 112.153C76.3917 112.132 79.0852 109.571 79.0852 104.549V103.618C79.0852 98.5957 76.3917 95.9869 72.7034 95.9975" fill="#0F110E"/>
<path id="path7" d="M85.7581 98.2201C85.7581 97.564 85.7581 96.9078 85.7581 96.2516C84.25 96.241 82.7365 96.2357 81.2284 96.2304C81.2337 101.453 81.2389 106.671 81.2495 111.894C82.763 111.915 84.2817 111.947 85.7951 111.984C85.7899 109.185 85.7846 106.391 85.774 103.591C85.774 101.358 86.8429 100.257 88.9967 100.284H89.0707C89.0707 98.8869 89.0654 97.4952 89.0602 96.0981C87.3298 95.9976 86.372 96.876 85.7634 98.2201" fill="#0F110E"/>
<path id="path8" d="M97.9821 109.487C97.1724 109.449 96.712 109.158 96.7067 108.444C96.6962 105.37 96.6803 102.3 96.6697 99.2258C97.4793 99.2417 98.2837 99.2576 99.088 99.2735C99.088 98.3104 99.0774 97.3473 99.0774 96.3842C98.2731 96.3736 97.4635 96.363 96.6591 96.3524C96.6538 94.9871 96.6485 93.6166 96.6432 92.2513L92.1188 92.2407C92.1188 93.5954 92.1294 94.9501 92.1347 96.3048C91.7272 96.3048 91.3144 96.2995 90.907 96.2942C90.907 97.2414 90.9123 98.1887 90.9176 99.1359C91.325 99.1359 91.7378 99.1465 92.1453 99.1517C92.1558 102.591 92.1717 106.031 92.1823 109.465C92.1929 111.863 94.2725 112.482 96.4316 112.588C97.347 112.625 98.2572 112.487 99.1251 112.185C99.1251 111.243 99.1145 110.301 99.1145 109.354C98.7494 109.455 98.3736 109.497 97.9979 109.481" fill="#0F110E"/>
<path id="path9" d="M109.095 109.645C106.941 109.502 105.438 108.248 105.406 102.581C105.406 102.316 105.406 102.051 105.406 101.782C105.38 96.4263 106.867 94.9658 108.941 94.987C109.862 95.024 110.756 95.2886 111.555 95.7437C111.55 94.426 111.54 93.1084 111.534 91.796C110.555 91.4203 109.513 91.2457 108.465 91.2933C104.094 91.3092 100.612 94.2514 100.649 101.665C100.649 101.903 100.649 102.147 100.649 102.39C100.681 109.746 103.967 112.931 108.275 113.275C109.439 113.423 110.624 113.291 111.73 112.9C111.725 111.645 111.714 110.391 111.709 109.137C110.889 109.502 110 109.677 109.1 109.65" fill="#0F110E"/>
<path id="path10" d="M119.154 111.18C118.35 111.106 117.731 110.54 117.72 108.841V108.391C117.71 106.756 118.324 106.153 119.244 106.211C119.742 106.28 120.223 106.433 120.668 106.666C120.673 107.666 120.678 108.661 120.684 109.661C120.768 110.418 120.229 111.095 119.477 111.185C119.371 111.196 119.265 111.196 119.16 111.185M123.266 98.0882C122.149 97.0986 120.652 96.6012 118.424 96.5536C117.032 96.5377 115.646 96.7494 114.323 97.1939C114.328 98.3739 114.339 99.5593 114.344 100.745C115.429 100.305 116.588 100.078 117.757 100.078C119.636 100.147 120.641 101.131 120.652 102.925C120.652 103.274 120.652 103.618 120.652 103.967C119.816 103.502 118.879 103.226 117.921 103.168C115.196 103.036 113.365 104.534 113.386 108.312V108.846C113.402 111.931 115.027 113.963 117.292 114.196C118.683 114.376 120.038 113.651 120.657 112.392C120.657 113.011 120.663 113.63 120.668 114.249C122.176 114.408 123.684 114.572 125.192 114.747C125.171 110.799 125.15 106.851 125.134 102.904C125.123 100.808 124.504 99.1783 123.266 98.0882Z" fill="#0F110E"/>
<path id="path11" d="M132.389 99.4481C132.389 98.6755 132.384 97.9029 132.378 97.1356C130.87 97.088 129.362 97.0404 127.854 96.998C127.886 103.025 127.912 109.053 127.944 115.075C129.452 115.26 130.955 115.45 132.458 115.651C132.442 112.36 132.431 109.063 132.415 105.772C132.405 103.152 133.474 101.898 135.617 102.025H135.691C135.686 100.364 135.68 98.702 135.67 97.0351C133.945 96.8763 132.992 97.8924 132.384 99.4534" fill="#0F110E"/>
<path id="path12" d="M143.75 113.498C142.607 113.339 142.068 111.407 142.062 107.904C142.062 107.465 142.062 107.026 142.062 106.592C142.052 103.126 142.586 101.258 143.735 101.327C144.883 101.395 145.539 103.374 145.539 106.92V108.264C145.539 111.852 144.899 113.662 143.756 113.503M145.481 91.2934C145.481 94.2038 145.491 97.109 145.491 100.019C144.798 98.7812 143.877 97.1566 141.888 97.0931C139.438 97.0191 137.522 99.2046 137.548 105.978C137.548 106.544 137.548 107.116 137.548 107.682C137.57 114.524 139.485 116.98 141.93 117.371C143.909 117.694 144.862 116.18 145.507 115.08C145.507 115.911 145.507 116.747 145.507 117.578C147.005 117.821 148.502 118.075 150 118.34V91.2881H145.476L145.481 91.2934Z" fill="#0F110E"/>
<path id="path13" d="M73.9575 43.4663C71.2164 43.551 68.4911 43.9214 65.8294 44.5829C65.4219 44.694 65.1679 45.1068 65.2526 45.5248C65.9828 48.811 66.983 52.0337 68.2371 55.1611C79.0429 54.4202 83.3715 51.8061 83.4509 48.3718C83.5356 44.5935 79.4397 43.4769 73.9522 43.4769L73.9575 43.4663Z" fill="#0F110E"/>
<path id="path14" d="M93.6269 36.1586C90.0603 33.5551 82.2973 31.703 74.746 31.6606C67.1946 31.7083 59.4316 33.5604 55.865 36.1586C53.7536 37.6985 52.8117 39.5718 52.9969 41.8843C52.9969 48.6154 58.2198 66.0941 67.5439 78.8207C70.4385 82.8001 76.0107 83.6786 79.9901 80.784C80.7415 80.2336 81.403 79.5722 81.9533 78.8207C91.2827 66.0941 96.5004 48.6154 96.5004 41.8843C96.6803 39.5718 95.7436 37.6985 93.6322 36.1586H93.6269ZM70.5708 60.6912C72.497 64.7817 74.6983 68.7452 77.1537 72.5447C77.9528 73.8465 77.54 75.5504 76.2382 76.3442C76.1059 76.4236 75.9631 76.4977 75.8202 76.5559C75.418 76.757 74.9735 76.8522 74.5237 76.8416C73.2484 76.8416 72.3594 75.651 71.6979 74.6455C60.1301 57.0716 58.9342 43.112 58.9077 42.8421C58.8178 41.969 59.2253 41.1223 59.9608 40.646C60.3048 40.4079 60.6699 40.2015 61.0562 40.0375C64.4218 38.5399 69.3907 37.6562 74.0157 37.6562C84.959 37.6562 89.0654 42.3024 89.2189 47.6894C89.5682 59.7863 70.5708 60.6912 70.5708 60.6912Z" fill="#0F110E"/>
</g>
<defs>
<clipPath id="clip0_453_1032">
<rect width="150" height="150" fill="white"/>
</clipPath>
</defs>
</svg>
