<svg width="150" height="150" viewBox="0 0 150 150" fill="none" xmlns="http://www.w3.org/2000/svg">
<g clip-path="url(#clip0_453_119)">
<mask id="mask0_453_119" style="mask-type:luminance" maskUnits="userSpaceOnUse" x="0" y="60" width="150" height="30">
<path d="M150 60.813H-3.05176e-05V89.1927H150V60.813Z" fill="white"/>
</mask>
<g mask="url(#mask0_453_119)">
<path id="path1" d="M39.577 73.7936C37.1322 73.328 35.9468 73.074 35.9468 71.8674C35.9468 70.7244 36.9417 70.1529 38.2858 70.1529C39.8257 70.1529 40.7782 71.0208 40.9052 72.2696H44.0273C43.9638 69.4332 41.7678 67.6182 38.2911 67.6182C34.8144 67.6182 32.7824 69.4809 32.7824 72.1056C32.7824 75.1113 34.9573 75.8945 37.4656 76.3813C39.9368 76.8681 41.138 77.1221 41.138 78.3657C41.138 79.5299 40.0585 80.1649 38.6086 80.1649C36.7935 80.1649 35.6558 79.1701 35.55 77.7307L32.4278 77.6884C32.4702 80.6941 34.8144 82.6785 38.5716 82.6785C42.0324 82.6785 44.3078 80.7788 44.3343 78.0059C44.3343 75.0213 42.0959 74.2593 39.5876 73.7989H39.577V73.7936Z" fill="#0F110E"/>
<path id="path2" d="M63.5962 71.5444C61.9082 71.5444 60.8075 72.7932 60.3101 74.2855H59.5269L60.2201 72.7297C60.3683 72.4016 60.4424 72.0418 60.4424 71.6819H57.0398V82.5512H60.0243V76.9843C60.0243 75.1004 60.9133 73.9997 62.4585 73.9997C64.0037 73.9997 64.6599 74.9734 64.6599 76.8149V82.5459H67.6444V76.4498C67.6444 72.7456 65.8452 71.5391 63.6015 71.5391L63.5962 71.5444Z" fill="#0F110E"/>
<path id="path3" d="M87.8431 71.5444C86.155 71.5444 85.0543 72.7932 84.5569 74.2855H83.7737L84.4669 72.7297C84.6151 72.4016 84.6892 72.0418 84.6892 71.6819H81.2813V82.5512H84.2658V76.9843C84.2658 75.1004 85.1548 73.9997 86.7 73.9997C88.2452 73.9997 88.9014 74.9734 88.9014 76.8149V82.5459H91.8859V76.4498C91.8859 72.7456 90.0868 71.5391 87.8431 71.5391V71.5444Z" fill="#0F110E"/>
<path id="path4" d="M79.7572 71.6821H76.7621V82.5514H79.7572V71.6821Z" fill="#0F110E"/>
<path id="path5" d="M107.856 67.3218L104.882 68.8246V82.5462H107.856V67.3218Z" fill="#0F110E"/>
<path id="path6" d="M79.7572 67.8667H76.7621V70.8618H79.7572V67.8667Z" fill="#0F110E"/>
<path id="path7" d="M72.8885 71.682V67.8296L69.9093 69.3325V71.682H68.1154V74.1956H69.9093V80.9531C69.9093 81.8316 70.6237 82.546 71.5021 82.546H75.3757V80.0324H72.8833V74.1956H75.3757V71.682H72.8833H72.8885Z" fill="#0F110E"/>
<path id="path8" d="M92.812 77.1326C92.812 73.7459 95.0345 71.5498 98.3948 71.5498C101.755 71.5498 103.851 73.5818 103.872 76.7728C103.872 77.0903 103.851 77.4501 103.787 77.7888H95.9183V77.9369C95.9818 79.4821 96.9766 80.4135 98.4795 80.4135C99.6648 80.4135 100.512 79.8843 100.787 78.8683H103.729C103.39 80.985 101.506 82.6784 98.5906 82.6784C94.971 82.6784 92.8173 80.4982 92.8173 77.1326H92.812ZM100.871 75.8414C100.681 74.5079 99.7495 73.767 98.416 73.767C97.0825 73.767 96.1511 74.5502 95.9818 75.8414H100.866H100.871Z" fill="#0F110E"/>
<path id="path9" d="M132.447 71.5444C130.759 71.5444 129.658 72.7932 129.161 74.2855H128.378L129.071 72.7297C129.219 72.4016 129.293 72.0418 129.293 71.6819H125.885V82.5512H128.87V76.9843C128.87 75.1004 129.759 73.9997 131.304 73.9997C132.849 73.9997 133.506 74.9734 133.506 76.8149V82.5459H136.49V76.4498C136.49 72.7456 134.691 71.5391 132.447 71.5391V71.5444Z" fill="#0F110E"/>
<path id="path10" d="M137.421 77.1326C137.421 73.7459 139.644 71.5498 143.004 71.5498C146.365 71.5498 148.46 73.5818 148.481 76.7728C148.481 77.0903 148.46 77.4501 148.397 77.7888H140.528V77.9369C140.591 79.4821 141.586 80.4135 143.089 80.4135C144.274 80.4135 145.121 79.8843 145.396 78.8683H148.338C148 80.985 146.116 82.6784 143.2 82.6784C139.581 82.6784 137.427 80.4982 137.427 77.1326H137.421ZM145.481 75.8414C145.29 74.5079 144.359 73.767 143.025 73.767C141.692 73.767 140.761 74.5502 140.591 75.8414H145.476H145.481Z" fill="#0F110E"/>
<path id="path11" d="M45.0804 77.1326C45.0804 73.7459 47.3029 71.5498 50.6632 71.5498C54.0234 71.5498 56.119 73.5818 56.1401 76.7728C56.1401 77.0903 56.119 77.4501 56.0555 77.7888H48.1866V77.9369C48.2501 79.4821 49.245 80.4135 50.7478 80.4135C51.9332 80.4135 52.7799 79.8843 53.0551 78.8683H55.9973C55.6586 80.985 53.7747 82.6784 50.859 82.6784C47.2394 82.6784 45.0804 80.4982 45.0804 77.1326ZM53.1397 75.8414C52.9492 74.5079 52.0179 73.767 50.6843 73.767C49.3508 73.767 48.4195 74.5502 48.2501 75.8414H53.1344H53.1397Z" fill="#0F110E"/>
<path id="path12" d="M117.334 82.6731C112.979 82.6731 109.825 79.461 109.825 75.143C109.825 70.8249 112.979 67.6128 117.334 67.6128C121.689 67.6128 124.891 70.8249 124.891 75.143C124.891 79.461 121.689 82.6731 117.334 82.6731ZM117.334 79.9902C119.805 79.9902 121.636 77.937 121.636 75.1482C121.636 72.3595 119.811 70.3063 117.334 70.3063C114.857 70.3063 113.058 72.3595 113.058 75.1482C113.058 77.937 114.836 79.9902 117.334 79.9902Z" fill="#0F110E"/>
<path id="path13" d="M148.571 70.957H148.963C149.174 70.957 149.312 71.084 149.312 71.2745C149.312 71.3962 149.249 71.4968 149.148 71.5444L149.339 71.9148H149.111L148.947 71.592H148.772V71.9148H148.566V70.957H148.571ZM148.778 71.1264V71.4227H148.947C149.042 71.4227 149.106 71.3645 149.106 71.2745C149.106 71.1846 149.042 71.1264 148.947 71.1264H148.778Z" fill="#0F110E"/>
<path id="path14" d="M148.92 72.4179C148.391 72.4179 147.957 71.984 147.957 71.4548C147.957 70.9256 148.391 70.4917 148.92 70.4917C149.45 70.4917 149.884 70.9256 149.884 71.4548C149.884 71.984 149.455 72.4179 148.92 72.4179ZM148.92 70.7034C148.502 70.7034 148.164 71.042 148.164 71.4601C148.164 71.8781 148.502 72.2168 148.92 72.2168C149.338 72.2168 149.677 71.8781 149.677 71.4601C149.677 71.042 149.338 70.7034 148.92 70.7034Z" fill="#0F110E"/>
<path id="path15" d="M11.5413 66.5016L22.8921 72.1797V66.491L11.5413 60.813V66.5016Z" fill="#0F110E"/>
<path id="path16" d="M11.5413 83.5037L22.8921 77.8257V83.5143L11.5413 89.1924V83.5037Z" fill="#0F110E"/>
<path id="path17" d="M11.5413 66.5015L0.19046 72.1743V66.4857L11.5413 60.8076V66.4963V66.5015Z" fill="#0F110E"/>
<path id="path18" d="M11.5413 83.5037L0.19046 77.8257V83.5143L11.5413 89.1924V83.5037Z" fill="#0F110E"/>
<path id="path19" d="M3.02682 73.5873L14.3723 79.26L20.0557 76.4131L8.71546 70.7456L3.02682 73.5873Z" fill="#0F110E"/>
</g>
</g>
<defs>
<clipPath id="clip0_453_119">
<rect width="150" height="150" fill="white"/>
</clipPath>
</defs>
</svg>
