<svg width="150" height="150" viewBox="0 0 150 150" fill="none" xmlns="http://www.w3.org/2000/svg">
<g clip-path="url(#clip0_453_70)">
<path id="path1" d="M1.19591 80.7625H-3.05176e-05V79.7729H3.74653V80.7625H2.57176V87.1444H1.19591V80.7625Z" fill="#0F110E"/>
<path id="path2" d="M4.75725 79.7729H7.91643V80.7149H6.12252V82.8369H7.53542V83.7735H6.12252V86.2236H7.9323V87.1444H4.75196V79.7729H4.75725Z" fill="#0F110E"/>
<path id="path3" d="M9.05945 79.7729H10.4247V86.2236H12.2557V87.1444H9.05945V79.7729Z" fill="#0F110E"/>
<path id="path4" d="M15.7059 79.7729H17.1717L18.6746 87.1444H17.3993L17.1029 85.4404H15.7906L15.4836 87.1444H14.1925L15.7006 79.7729H15.7059ZM16.96 84.5884L16.4467 81.4928L15.9334 84.5884H16.9547H16.96Z" fill="#0F110E"/>
<path id="path5" d="M19.1297 79.7729H20.3362L21.331 84.9906L22.2677 79.7729H23.5059L21.9925 87.1444H20.6431L19.1297 79.7729Z" fill="#0F110E"/>
<path id="path6" d="M25.9931 79.7729H24.6384V87.1444H25.9931V79.7729Z" fill="#0F110E"/>
<path id="path7" d="M27.1255 79.7729H28.332L29.3269 84.9906L30.2635 79.7729H31.5018L29.9883 87.1444H28.6389L27.1202 79.7729H27.1255Z" fill="#0F110E"/>
<path id="path8" d="M34.6186 86.6843C34.2429 86.2027 34.0471 85.6048 34.0683 85.0015L35.2483 84.7739C35.2483 85.1444 35.3224 85.5095 35.4759 85.8429C35.5341 85.9593 35.624 86.0545 35.7352 86.1181C35.8463 86.1816 35.9733 86.2133 36.1056 86.208C36.1956 86.2133 36.2802 86.2027 36.3649 86.171C36.4443 86.1392 36.5183 86.0863 36.5766 86.0228C36.6877 85.8746 36.7406 85.7 36.73 85.5201C36.7406 85.2608 36.6665 85.0015 36.5289 84.7792C36.3543 84.5305 36.1426 84.303 35.8992 84.1072L34.952 83.2975C34.6821 83.0806 34.4599 82.816 34.2958 82.5144C34.1423 82.2021 34.0683 81.8582 34.0789 81.5142C34.063 81.2655 34.1 81.0221 34.19 80.7893C34.2799 80.5564 34.4175 80.35 34.5922 80.1701C34.9837 79.8314 35.497 79.6621 36.0209 79.6939C36.2802 79.6674 36.5448 79.7044 36.7882 79.7997C37.0316 79.8949 37.2486 80.0431 37.4232 80.2336C37.7302 80.6622 37.8995 81.1703 37.9101 81.6941L36.73 81.8952C36.73 81.583 36.6718 81.2761 36.5607 80.9903C36.5078 80.8898 36.4284 80.8051 36.3278 80.7522C36.2273 80.6993 36.1109 80.6728 35.9998 80.6887C35.9098 80.6887 35.8251 80.6993 35.7458 80.731C35.6664 80.7628 35.5923 80.8157 35.5341 80.8845C35.4177 81.0221 35.3595 81.202 35.3647 81.3819C35.3595 81.5883 35.4071 81.7947 35.5076 81.9799C35.6346 82.1757 35.7934 82.3503 35.9786 82.4932L36.9152 83.3028C37.2433 83.5727 37.5238 83.9008 37.7407 84.2606C37.9471 84.6205 38.0477 85.0332 38.0371 85.446C38.0424 85.7741 37.963 86.0969 37.799 86.3826C37.6455 86.6525 37.4127 86.8748 37.1375 87.0229C36.8359 87.1817 36.4972 87.2611 36.1532 87.2558C35.8728 87.2769 35.587 87.2399 35.3277 87.1394C35.0631 87.0441 34.825 86.8906 34.6292 86.6896" fill="#0F110E"/>
<path id="path9" d="M39.9209 80.7625H38.725V79.7729H42.4716V80.7625H41.2968V87.1444H39.9209V80.7625Z" fill="#0F110E"/>
<path id="path10" d="M43.821 86.6313C43.4505 86.1074 43.2759 85.4724 43.3182 84.8321V82.0645C43.2706 81.4348 43.4505 80.805 43.821 80.2917C44.2866 79.9054 44.8793 79.6885 45.4879 79.6885C46.0964 79.6885 46.6891 79.9001 47.1548 80.2917C47.5252 80.8103 47.6998 81.4348 47.6575 82.0645V84.8321C47.6998 85.4671 47.5252 86.1021 47.1495 86.626C46.6891 87.0228 46.0964 87.2451 45.4826 87.2451C44.8687 87.2451 44.2761 87.0281 43.8157 86.6313H43.821ZM46.107 85.9698C46.2287 85.7158 46.2816 85.43 46.2658 85.1496V81.7523C46.2816 81.4718 46.2287 81.1966 46.1123 80.9426C46.0435 80.8474 45.9535 80.768 45.8424 80.7204C45.7313 80.6727 45.6149 80.6569 45.4932 80.6727C45.3714 80.6569 45.2497 80.6727 45.1439 80.7257C45.0381 80.7786 44.9375 80.8527 44.874 80.9532C44.7523 81.2072 44.6994 81.4824 44.7153 81.7576V85.1549C44.6994 85.4353 44.7523 85.7158 44.874 85.9751C44.9428 86.0756 45.0328 86.155 45.1439 86.2026C45.255 86.2502 45.3767 86.2714 45.4985 86.2555C45.6149 86.2714 45.7366 86.2555 45.8477 86.2026C45.9535 86.155 46.0488 86.0756 46.1123 85.9751" fill="#0F110E"/>
<path id="path11" d="M49.3614 86.6048C49.0069 86.065 48.8323 85.43 48.8746 84.7897V82.1597C48.8323 81.5141 49.0016 80.8685 49.3561 80.3235C49.7954 79.9319 50.3669 79.7096 50.9596 79.6938C51.5522 79.6779 52.129 79.8737 52.5894 80.2388C52.9281 80.6939 53.0921 81.2495 53.0551 81.8105V82.4296H51.7374V81.7946C51.7374 81.5882 51.7269 81.3818 51.7004 81.1807C51.6792 81.0432 51.6157 80.9109 51.5099 80.8156C51.3723 80.7098 51.203 80.6622 51.0283 80.6727C50.859 80.6516 50.6897 80.6992 50.5521 80.7997C50.4145 80.9056 50.3298 81.0537 50.3087 81.2231C50.2716 81.44 50.2505 81.657 50.2557 81.874V85.0702C50.2346 85.3824 50.2928 85.6946 50.4251 85.9751C50.4886 86.0703 50.5785 86.1497 50.6897 86.1973C50.7955 86.245 50.9119 86.2661 51.0283 86.2555C51.1977 86.2714 51.367 86.2185 51.4993 86.1127C51.6051 86.0068 51.6739 85.8745 51.6951 85.7264C51.7269 85.5147 51.7427 85.2977 51.7374 85.0861V84.4193H53.0551V85.012C53.0921 85.5994 52.9334 86.1762 52.6 86.663C52.4042 86.8747 52.1555 87.0387 51.8803 87.1393C51.6051 87.2398 51.3141 87.2768 51.0231 87.2451C50.7161 87.2768 50.4039 87.2345 50.1129 87.1234C49.8218 87.0123 49.5678 86.8323 49.3614 86.6048Z" fill="#0F110E"/>
<path id="path12" d="M54.341 79.7729H55.7062V83.0115L57.2038 79.7729H58.5162L57.0768 83.0591L58.6643 87.1444H57.2991L56.0449 83.7947L55.7115 84.3503V87.1444H54.3463V79.7729H54.341Z" fill="#0F110E"/>
<path id="path13" d="M61.2573 79.7729H64.4165V80.7149H62.6226V82.8369H64.0355V83.7735H62.6226V86.2236H64.4323V87.1444H61.2573V79.7729Z" fill="#0F110E"/>
<path id="path14" d="M67.02 83.2289L65.5542 79.7681H66.8348L67.8085 82.0594L68.6604 79.7681H69.8405L68.4011 83.4829L69.9516 87.1448H68.6816L67.618 84.6576L66.6866 87.1448H65.5066L67.02 83.2289Z" fill="#0F110E"/>
<path id="path15" d="M71.6503 86.6048C71.2957 86.065 71.1211 85.43 71.1635 84.7897V82.1597C71.1211 81.5141 71.2905 80.8685 71.645 80.3235C72.0842 79.9319 72.6557 79.7096 73.2484 79.6938C73.8411 79.6779 74.4179 79.8737 74.8783 80.2388C75.2169 80.6939 75.381 81.2495 75.3439 81.8105V82.4296H74.0263V81.7946C74.0263 81.5882 74.0157 81.3818 73.9893 81.1807C73.9681 81.0432 73.9046 80.9109 73.7987 80.8156C73.6612 80.7098 73.4918 80.6622 73.3172 80.6727C73.1479 80.6516 72.9785 80.6992 72.8409 80.7997C72.7086 80.9056 72.6187 81.0537 72.5975 81.2231C72.5605 81.44 72.5393 81.657 72.5446 81.874V85.0702C72.5234 85.3824 72.5816 85.6946 72.7139 85.9751C72.7774 86.0703 72.8674 86.1497 72.9785 86.1973C73.0844 86.245 73.2008 86.2661 73.3172 86.2555C73.4865 86.2714 73.6559 86.2185 73.7882 86.1127C73.894 86.0068 73.9628 85.8745 73.984 85.7264C74.0157 85.5147 74.0316 85.2977 74.0263 85.0861V84.4193H75.3439V85.012C75.381 85.5994 75.2222 86.1762 74.8888 86.663C74.6931 86.8747 74.4443 87.0387 74.1745 87.1393C73.8993 87.2398 73.6082 87.2768 73.3172 87.2451C73.0103 87.2768 72.6981 87.2345 72.407 87.1234C72.1213 87.0123 71.862 86.8323 71.6556 86.6048" fill="#0F110E"/>
<path id="path16" d="M77.0638 79.7729H78.429V82.8475H79.9636V79.7729H81.3395V87.1444H79.9636V83.8106H78.429V87.1444H77.0638V79.7729Z" fill="#0F110E"/>
<path id="path17" d="M84.3611 79.7729H85.8269L87.3298 87.1444H86.0597L85.7634 85.4404H84.451L84.1441 87.1444H82.8529L84.3558 79.7729H84.3611ZM85.6152 84.5884L85.1019 81.4928L84.5886 84.5884H85.6099H85.6152Z" fill="#0F110E"/>
<path id="path18" d="M88.8273 79.7729H89.7851L91.6161 83.9799V79.7729H92.7485V87.1444H91.8383L89.9968 82.7363V87.1444H88.822V79.7729H88.8273Z" fill="#0F110E"/>
<path id="path19" d="M94.9816 86.5943C94.6324 86.0281 94.4683 85.3719 94.5107 84.7157V82.2392C94.463 81.5671 94.6324 80.9004 94.9922 80.3341C95.1986 80.1013 95.4526 79.9267 95.7436 79.8156C96.0347 79.7044 96.3469 79.6621 96.6538 79.6939C96.9449 79.6674 97.2359 79.6991 97.5111 79.7944C97.7863 79.8896 98.0403 80.0378 98.2519 80.2389C98.6065 80.6993 98.7758 81.2708 98.7335 81.8476V82.2286H97.4264V81.8106C97.4264 81.5989 97.4105 81.3819 97.3735 81.1755C97.347 81.0327 97.273 80.9057 97.1618 80.8104C97.019 80.7152 96.8443 80.6728 96.675 80.6834C96.585 80.6781 96.4898 80.6834 96.4051 80.7152C96.3151 80.7416 96.2358 80.7892 96.167 80.8475C96.0506 80.9639 95.9765 81.1068 95.95 81.2655C95.913 81.4825 95.8918 81.71 95.8971 81.9323V85.0174C95.8759 85.3402 95.9341 85.6629 96.0717 85.954C96.1458 86.0492 96.2464 86.1286 96.3575 86.1868C96.4686 86.2397 96.5956 86.2662 96.7173 86.2662C96.8443 86.2662 96.966 86.2345 97.0772 86.1762C97.1883 86.118 97.2835 86.0387 97.3576 85.9381C97.4952 85.6312 97.5587 85.2925 97.5376 84.9538V84.2659H96.7279V83.4192H98.7705V87.1605H97.8762L97.7863 86.4408C97.691 86.6948 97.5164 86.9118 97.2888 87.06C97.0613 87.2081 96.7861 87.2769 96.5162 87.2611C96.2252 87.2875 95.9341 87.2399 95.6643 87.1288C95.3944 87.0176 95.1616 86.8377 94.9816 86.6102" fill="#0F110E"/>
<path id="path20" d="M100.57 79.7729H103.729V80.7149H101.935V82.8369H103.348V83.7735H101.935V86.2236H103.745V87.1444H100.564V79.7729H100.57Z" fill="#0F110E"/>
<path id="path21" d="M80.551 76.8893H79.3392V71.0048H76.2964V70.0259H80.551V76.8893ZM77.5612 76.8893H76.36V72.5765H77.5612V76.8893Z" fill="#0F110E"/>
<path id="path22" d="M86.4196 71.0204C86.4196 71.9359 86.3984 72.6714 86.3508 73.2323C86.319 74.0684 86.1391 74.8887 85.8163 75.6666C85.6523 76.0476 85.3718 76.3651 85.0173 76.5873C84.6627 76.8043 84.25 76.9154 83.8266 76.8995H82.2497L81.874 70.0361H86.409V71.031L86.4196 71.0204ZM85.2183 71.5972V71.0098H83.1387L83.3768 75.91H83.9377C84.5357 75.91 84.9273 75.3014 85.1125 74.079C85.1972 73.2535 85.2342 72.4227 85.2183 71.5972Z" fill="#0F110E"/>
<path id="path23" d="M90.7271 76.8893H89.5258V72.0526C89.5258 71.3541 89.3142 71.0048 88.8961 71.0048H87.2133V70.0259H88.8802C90.1079 70.0259 90.7218 70.7138 90.7218 72.0897V76.8893H90.7271Z" fill="#0F110E"/>
<path id="path24" d="M93.4946 76.8947H92.2828V71.0102H91.4414V70.0312H93.4946V76.8947Z" fill="#0F110E"/>
<path id="path25" d="M98.4689 76.8942H94.5742V75.9153H96.6803V71.0151H94.5742V70.0361H97.8815V75.9206H98.4689V76.8995V76.8942Z" fill="#0F110E"/>
<path id="path26" d="M103.729 76.8893H102.517V71.0048H99.4743V70.0259H103.729V76.8893ZM100.739 76.8893H99.5378V72.5765H100.739V76.8893Z" fill="#0F110E"/>
<path id="path27" d="M34.6715 77.9689H33.4597V70.8144H31.216V69.8354H34.6715V77.9689Z" fill="#0F110E"/>
<path id="path28" d="M38.9155 76.6989H37.7143V71.8622C37.7143 71.1637 37.5026 70.8144 37.0846 70.8144H35.4018V69.8354H37.0687C38.2964 69.8354 38.9102 70.5234 38.9102 71.8992V76.6989H38.9155Z" fill="#0F110E"/>
<path id="path29" d="M44.5354 69.8354L44.3501 74.1641C44.2866 75.5082 43.9374 76.302 43.2971 76.556C42.9372 76.6671 42.5562 76.7147 42.1805 76.6989H40.1538V75.7199H41.1645L40.0479 69.8354H41.2598L42.3234 75.7199H42.6568C42.9743 75.7199 43.1542 75.233 43.1912 74.2541L43.35 69.8354H44.5406H44.5354Z" fill="#0F110E"/>
<path id="path30" d="M51.7956 76.6989H50.5944V70.8144H48.8058V75.0902C48.8376 75.4923 48.7476 75.8892 48.5518 76.2385C48.4301 76.3972 48.2713 76.5242 48.0861 76.6036C47.9009 76.683 47.6998 76.7147 47.4987 76.6936H46.6044V75.7146C46.8426 75.7305 47.0807 75.7093 47.3135 75.6511C47.5093 75.5717 47.6046 75.3865 47.6046 75.0902V70.8144H46.6309V69.8354H51.7956V76.6989Z" fill="#0F110E"/>
<path id="path31" d="M54.8913 76.6989H53.6795V70.8144H52.8381V69.8354H54.8913V76.6989Z" fill="#0F110E"/>
<path id="path32" d="M59.6539 76.6989H58.4527V71.8622C58.4527 71.1637 58.241 70.8144 57.8229 70.8144H56.1402V69.8354H57.8071C59.0348 69.8354 59.6486 70.5234 59.6486 71.8992V76.6989H59.6539Z" fill="#0F110E"/>
<path id="path33" d="M62.4162 73.5344H61.2149V70.8144H60.363V69.8354H62.4162V73.5344Z" fill="#0F110E"/>
<path id="path34" d="M65.4854 73.5344H64.2842V70.8144H63.4322V69.8354H65.4854V73.5344Z" fill="#0F110E"/>
<path id="path35" d="M68.7663 76.6984H66.549V75.7195H67.5492V70.8193H66.6284V69.8403H68.761V76.7037L68.7663 76.6984Z" fill="#0F110E"/>
<path id="path36" d="M73.8093 69.8355L71.9466 76.6989H70.7719L72.3488 70.8144H69.8141V67.9146H71.0047V69.8355H73.8146H73.8093Z" fill="#0F110E"/>
<path id="path37" d="M4.01641 76.7146H0.121681V75.7356H2.2278V70.8354H0.121681V69.8564H3.42903V75.7409H4.01641V76.7198V76.7146Z" fill="#0F110E"/>
<path id="path38" d="M6.47178 73.55H5.27055V70.8301H4.41858V69.8511H6.47178V73.55Z" fill="#0F110E"/>
<path id="path39" d="M11.4354 76.7146H7.54072V75.7356H9.64684V70.8354H7.54072V69.8564H10.8481V75.7409H11.4354V76.7198V76.7146Z" fill="#0F110E"/>
<path id="path40" d="M17.214 76.7144H15.944C15.5895 75.91 15.2455 75.1533 14.9174 74.4389C14.7904 74.1532 14.5787 73.7298 14.2771 73.1689C14.0019 73.153 13.8326 73.6187 13.7691 74.5659C13.7268 75.2274 13.6791 75.9418 13.6368 76.7091H12.4515C12.5044 75.7407 12.552 74.9522 12.5838 74.3437C12.5679 73.9997 12.6314 73.6611 12.7795 73.3541C12.9277 73.0419 13.1447 72.772 13.4251 72.5657C13.5574 72.4757 13.7056 72.4281 13.8644 72.4228C13.5521 71.9677 12.9965 71.1104 12.1975 69.8457H13.5998C14.1713 70.6924 14.6952 71.5655 15.1608 72.4757C15.3408 72.4863 15.4783 72.2852 15.5736 71.8724C15.5895 71.7931 15.6318 71.5285 15.6953 71.0734L15.8699 69.8457H17.0024L16.8013 71.5179C16.7537 71.9042 16.6372 72.2746 16.452 72.6186C16.3779 72.7985 16.2562 72.952 16.0975 73.0631C15.9387 73.1742 15.7535 73.2377 15.5577 73.2483C15.7112 73.5076 15.944 73.9733 16.2668 74.6347C16.5261 75.1851 16.8383 75.8783 17.214 76.7144Z" fill="#0F110E"/>
<path id="path41" d="M22.8392 69.8511L20.9765 76.7145H19.8017L21.3787 70.8301H18.8439V67.9302H20.0293V69.8511H22.8392Z" fill="#0F110E"/>
<path id="path42" d="M28.6178 76.7145H27.4165V70.8301H25.6279V75.1058C25.6597 75.508 25.5697 75.9048 25.3739 76.2541C25.2522 76.4129 25.0935 76.5398 24.9082 76.6192C24.723 76.6986 24.522 76.7304 24.3209 76.7092H23.4266V75.7302C23.6647 75.7461 23.9028 75.7249 24.1357 75.6667C24.3314 75.5873 24.4267 75.4021 24.4267 75.1058V70.8301H23.453V69.8511H28.6178V76.7145Z" fill="#0F110E"/>
<path id="path43" d="M132.696 78.3019L128.701 75.9841C128.362 75.7883 127.981 75.6878 127.589 75.6931C127.198 75.6931 126.817 75.8042 126.483 76.0053L109.666 86.737C109.603 86.7793 109.555 86.8375 109.539 86.9116C109.518 86.9857 109.529 87.0598 109.566 87.1285C109.603 87.192 109.661 87.245 109.735 87.2661C109.809 87.2873 109.883 87.2873 109.957 87.2556L127.775 78.1061C128.452 77.7833 129.225 77.7251 129.95 77.9315L132.505 78.7517C132.564 78.7676 132.627 78.7623 132.68 78.7358C132.733 78.7094 132.781 78.667 132.802 78.6088C132.828 78.5559 132.828 78.4924 132.812 78.4342C132.791 78.376 132.754 78.3284 132.701 78.2966" fill="#0F110E"/>
<path id="path44" d="M125.991 70.8567C125.991 70.8567 125.975 70.8461 125.965 70.8408C125.864 70.7879 125.764 70.7403 125.658 70.698C125.372 70.571 125.076 70.4387 124.79 70.3064C124.605 70.2164 124.414 70.1423 124.219 70.0894C123.965 70.0259 123.705 70.0206 123.451 70.0841C123.255 70.137 123.065 70.2111 122.89 70.317L117.165 74.2434C117.106 74.2858 117.064 74.3493 117.048 74.4234C117.032 74.4974 117.048 74.5715 117.085 74.635C117.122 74.6985 117.186 74.7462 117.26 74.762C117.334 74.7832 117.408 74.7779 117.477 74.7409C117.477 74.7409 121.298 72.7353 123.726 71.4547C123.98 71.3171 124.256 71.2219 124.541 71.1689C124.758 71.1266 124.981 71.116 125.203 71.1319C125.351 71.1425 125.494 71.1689 125.637 71.206C125.743 71.2377 125.843 71.2906 125.949 71.2483C125.991 71.2324 126.028 71.2007 126.055 71.1636C126.081 71.1266 126.097 71.0843 126.097 71.0366C126.097 70.9996 126.087 70.9678 126.071 70.9361C126.055 70.9043 126.028 70.8779 125.997 70.8567" fill="#0F110E"/>
<path id="path45" d="M128.907 74.3437L126.743 72.9467C126.372 72.7192 125.944 72.6133 125.51 72.6345C125.076 72.6557 124.658 72.8144 124.319 73.0737L115.127 79.3762C115.064 79.4185 115.021 79.482 115 79.5561C114.979 79.6302 115 79.7043 115.037 79.7731C115.08 79.8366 115.143 79.8842 115.217 79.9054C115.291 79.9265 115.371 79.9159 115.44 79.8789C115.44 79.8789 123.197 75.7778 125.774 74.3914C126.774 73.8569 128.69 74.7406 128.69 74.7406C128.743 74.7618 128.801 74.7671 128.859 74.7512C128.912 74.7353 128.96 74.6983 128.992 74.6454C129.018 74.5977 129.029 74.5395 129.013 74.4813C128.997 74.4231 128.965 74.3755 128.918 74.3437" fill="#0F110E"/>
<path id="path46" d="M126.833 71.6977L130.828 74.0155C131.167 74.2113 131.548 74.3119 131.939 74.3066C132.331 74.3066 132.712 74.1954 133.045 73.9944L149.862 63.2627C149.926 63.2203 149.974 63.1621 149.995 63.088C150.016 63.014 150.005 62.9399 149.968 62.8711C149.931 62.8076 149.873 62.7547 149.799 62.7335C149.725 62.7123 149.651 62.7123 149.582 62.7441L131.765 71.8935C131.087 72.2163 130.315 72.2745 129.59 72.0682L127.034 71.2479C126.976 71.2321 126.912 71.2373 126.859 71.2585C126.806 71.285 126.759 71.3273 126.732 71.3855C126.706 71.4384 126.706 71.5019 126.722 71.5601C126.743 71.6184 126.78 71.666 126.833 71.6977Z" fill="#0F110E"/>
<path id="path47" d="M133.532 79.1487C133.532 79.1487 133.548 79.1593 133.559 79.1646C133.659 79.2175 133.76 79.2651 133.865 79.3075C134.151 79.4345 134.448 79.5668 134.733 79.6991C134.918 79.789 135.109 79.8631 135.305 79.916C135.559 79.9795 135.818 79.9848 136.072 79.9213C136.268 79.8684 136.458 79.7943 136.633 79.6885L142.359 75.7673C142.417 75.725 142.459 75.6615 142.475 75.5874C142.491 75.5133 142.475 75.4392 142.438 75.3757C142.401 75.3122 142.338 75.2646 142.263 75.2487C142.189 75.2275 142.115 75.2328 142.046 75.2699C142.046 75.2699 138.226 77.2754 135.797 78.5561C135.543 78.6936 135.268 78.7889 134.982 78.8418C134.765 78.8841 134.543 78.8947 134.321 78.8788C134.172 78.8683 134.029 78.8418 133.887 78.8048C133.781 78.773 133.68 78.7201 133.574 78.7624C133.532 78.7783 133.495 78.8101 133.469 78.8471C133.442 78.8841 133.432 78.9265 133.426 78.9741C133.426 79.0111 133.437 79.0429 133.453 79.0746C133.469 79.1064 133.495 79.1329 133.527 79.154" fill="#0F110E"/>
<path id="path48" d="M130.616 75.6616L132.781 77.0586C133.151 77.2862 133.58 77.392 134.014 77.3708C134.448 77.3497 134.866 77.1909 135.204 76.9316L144.396 70.6291C144.46 70.5868 144.502 70.5233 144.512 70.4492C144.528 70.3751 144.512 70.301 144.475 70.2375C144.438 70.174 144.375 70.1264 144.301 70.1052C144.227 70.0841 144.153 70.0947 144.084 70.1264C144.084 70.1264 136.326 74.2275 133.749 75.614C132.749 76.1484 130.833 75.2647 130.833 75.2647C130.78 75.2435 130.722 75.2383 130.664 75.2541C130.611 75.27 130.563 75.307 130.532 75.36C130.505 75.4076 130.495 75.4658 130.51 75.524C130.526 75.5769 130.558 75.6298 130.606 75.6616" fill="#0F110E"/>
</g>
<defs>
<clipPath id="clip0_453_70">
<rect width="150" height="150" fill="white"/>
</clipPath>
</defs>
</svg>
