<svg width="150" height="150" viewBox="0 0 150 150" fill="none" xmlns="http://www.w3.org/2000/svg">
<g clip-path="url(#clip0_453_1016)">
<path id="path1" d="M43.44 73.1212V71.2374C43.4241 71.0045 43.2389 70.8246 43.006 70.8193H32.8036C32.5654 70.8193 32.3749 71.0151 32.3696 71.2533V73.1054C32.3802 73.3435 32.5654 73.534 32.8036 73.5446H36.1427C36.2644 73.5499 36.3596 73.6451 36.3649 73.7668V84.3609C36.3649 84.5991 36.5554 84.8001 36.7935 84.8107H39.0267C39.2595 84.8001 39.4447 84.6149 39.4553 84.3768V73.7139C39.4817 73.6134 39.5664 73.5446 39.667 73.5393H43.0219C43.2548 73.5287 43.44 73.3435 43.4506 73.116" fill="#0F110E"/>
<path id="path2" d="M49.1233 75.6824C48.7688 75.2485 48.3031 74.9151 47.7792 74.7246C47.0913 74.4812 46.3663 74.37 45.6361 74.3912C44.8529 74.3912 44.0803 74.5182 43.3447 74.7775C42.7626 74.9786 42.2176 75.2749 41.736 75.6559C41.572 75.8359 41.5773 76.111 41.7519 76.2804L42.678 77.2276C42.8526 77.4022 43.1383 77.4022 43.313 77.2276C43.5405 77.0265 43.7892 76.8519 44.0591 76.7143C44.4719 76.5079 44.9323 76.4021 45.3926 76.4074C45.8795 76.3968 46.3504 76.5608 46.7314 76.873C47.0807 77.1641 47.2659 77.6774 47.2924 78.5082C47.2765 78.6193 47.1812 78.6987 47.0701 78.6987C46.7209 78.6987 46.3557 78.6987 45.9641 78.7199C45.4826 78.7304 44.9958 78.7728 44.5195 78.8363C44.0485 78.8998 43.5829 79.0003 43.1278 79.1432C42.6991 79.2702 42.297 79.4713 41.9318 79.7253C41.5879 79.974 41.3021 80.3021 41.101 80.6725C40.8841 81.1117 40.7835 81.5933 40.7941 82.0801C40.7835 82.5246 40.8788 82.9638 41.0693 83.366C41.2439 83.7259 41.4979 84.0434 41.8154 84.2921C42.1435 84.5514 42.5139 84.7419 42.9161 84.8583C43.3341 84.9853 43.7681 85.0488 44.202 85.0488C44.7947 85.0488 45.3873 84.9377 45.9377 84.7101C46.361 84.5355 46.7367 84.2603 47.0331 83.9058H47.0648C47.1283 83.874 47.1971 83.8899 47.25 83.9375C47.2818 83.964 47.2977 84.0063 47.2977 84.0487V84.3979C47.3082 84.6308 47.4935 84.8213 47.7263 84.8318H49.6102C49.8483 84.8213 50.0335 84.6307 50.0388 84.3926V79.9581C50.0441 79.0532 49.9806 78.1536 49.843 77.2593C49.7319 76.6984 49.4937 76.1692 49.1392 75.7194M47.3241 81.2387C47.3294 81.5139 47.2659 81.7891 47.1389 82.0272C47.0119 82.2495 46.8373 82.44 46.6256 82.5828C46.4034 82.731 46.1599 82.8421 45.9059 82.9162C45.6308 82.9956 45.3503 83.0379 45.0645 83.0379C44.7312 83.0379 44.4031 82.9533 44.112 82.7892C43.821 82.6358 43.6411 82.3288 43.6622 82.0008C43.6464 81.7097 43.7681 81.4239 43.985 81.2334C44.2179 81.0429 44.4877 80.9001 44.7735 80.8154C45.091 80.7254 45.4138 80.6672 45.7419 80.6514C46.0859 80.6302 46.361 80.6196 46.578 80.6196H47.0913C47.2077 80.6302 47.303 80.7254 47.303 80.8419L47.3188 81.2387H47.3241ZM78.6672 75.6877C78.3126 75.2538 77.8522 74.9204 77.3231 74.7299C76.6351 74.4918 75.9049 74.3753 75.1746 74.3965C74.3914 74.3965 73.6188 74.5235 72.878 74.7828C72.2959 74.9839 71.7508 75.2802 71.2693 75.6612C71.1053 75.8411 71.1105 76.1163 71.2799 76.2857L72.2059 77.2329C72.3859 77.4075 72.6716 77.4075 72.8462 77.2329C73.0738 77.0318 73.3225 76.8572 73.5924 76.7196C74.0104 76.5132 74.4655 76.4074 74.9312 76.4127C75.418 76.4021 75.889 76.5661 76.2647 76.8783C76.614 77.1694 76.8045 77.6827 76.8256 78.5135C76.8098 78.6246 76.7145 78.704 76.6034 78.704C76.2541 78.704 75.889 78.704 75.4974 78.7252C75.0159 78.7357 74.5343 78.7781 74.0528 78.8416C73.5818 78.9051 73.1108 79.0056 72.6557 79.1485C72.2271 79.2808 71.8249 79.4766 71.4598 79.7306C71.1158 79.9793 70.8301 80.3021 70.629 80.6778C70.412 81.1117 70.3062 81.5986 70.3168 82.0854C70.3062 82.5299 70.4015 82.9691 70.592 83.3713C70.7666 83.7312 71.0206 84.0487 71.3381 84.2974C71.6662 84.5567 72.0366 84.7472 72.4388 84.8636C73.4336 85.1546 74.4973 85.1017 75.4604 84.7154C75.8837 84.5408 76.2594 84.2656 76.5505 83.9111H76.5822C76.6457 83.8793 76.7198 83.8952 76.7674 83.9428C76.7939 83.9746 76.8151 84.0116 76.8151 84.0539V84.4032C76.8256 84.636 77.0109 84.8266 77.2437 84.8371H79.1117C79.3498 84.8266 79.535 84.636 79.5403 84.3979V79.9634C79.5456 79.0585 79.4821 78.1589 79.3445 77.2646C79.2334 76.7037 78.99 76.1745 78.6407 75.7247M76.8151 81.244C76.8204 81.5192 76.7569 81.7944 76.6246 82.0325C76.5028 82.2495 76.3282 82.4347 76.1218 82.5776C75.8996 82.7257 75.6562 82.8368 75.4022 82.9109C75.1323 82.9956 74.8465 83.0326 74.5661 83.0326C74.2327 83.0326 73.9046 82.948 73.6188 82.7839C73.3278 82.6305 73.1479 82.3235 73.1637 81.9955C73.1479 81.7044 73.2696 81.4187 73.4918 81.2282C73.7247 81.0324 73.9946 80.8948 74.2803 80.8101C74.5978 80.7201 74.9206 80.6619 75.2487 80.6461C75.5927 80.6249 75.8731 80.6143 76.0901 80.6143H76.6034C76.7198 80.6249 76.8098 80.7201 76.8151 80.8366V81.244ZM104.147 75.693C103.792 75.2591 103.327 74.9257 102.803 74.7352C102.11 74.4918 101.379 74.3806 100.649 74.4018C99.8659 74.4018 99.0933 74.5288 98.3578 74.7881C97.7757 74.9892 97.2306 75.2855 96.7438 75.6665C96.5798 75.8464 96.5903 76.1216 96.7597 76.2909L97.6857 77.2382C97.8657 77.4128 98.1514 77.4128 98.326 77.2382C98.5536 77.0371 98.8023 76.8625 99.0722 76.7249C99.4849 76.5185 99.9453 76.4127 100.411 76.418C100.898 76.4127 101.369 76.5767 101.745 76.8836C102.094 77.1747 102.279 77.688 102.305 78.5188C102.29 78.6299 102.189 78.7093 102.078 78.7093C101.734 78.7093 101.363 78.7093 100.972 78.7304C100.49 78.741 100.009 78.7834 99.5326 78.8469C99.0616 78.9104 98.5906 79.0109 98.1355 79.1538C97.7069 79.2861 97.3047 79.4819 96.9396 79.7359C96.5956 79.9846 96.3099 80.3074 96.1088 80.6831C95.8918 81.117 95.786 81.6039 95.8019 82.0907C95.7913 82.5352 95.8865 82.9744 96.077 83.3766C96.2517 83.7364 96.5057 84.0539 96.8232 84.3027C97.146 84.5567 97.5217 84.7525 97.9186 84.8689C98.9134 85.1652 99.9823 85.1123 100.945 84.7207C101.369 84.5514 101.745 84.2709 102.036 83.9164H102.067C102.131 83.8846 102.2 83.9005 102.253 83.9481C102.284 83.9799 102.3 84.0169 102.3 84.0592V84.4085C102.311 84.6413 102.496 84.8318 102.734 84.8424H104.597C104.835 84.8318 105.025 84.6413 105.031 84.4032V79.9687C105.036 79.0638 104.972 78.1642 104.835 77.2699C104.724 76.709 104.486 76.1798 104.131 75.73M102.305 81.2493C102.311 81.5245 102.247 81.7997 102.12 82.0378C101.993 82.26 101.819 82.4506 101.607 82.5934C101.385 82.7416 101.141 82.8527 100.887 82.9268C100.617 83.0115 100.332 83.0485 100.051 83.0485C99.7178 83.0485 99.3897 82.9639 99.1039 82.7998C98.8076 82.6463 98.633 82.3394 98.6488 82.0113C98.633 81.7203 98.7547 81.4345 98.9769 81.244C99.2098 81.0482 99.4796 80.9107 99.7654 80.826C100.083 80.736 100.406 80.6778 100.734 80.6619C101.067 80.6408 101.353 80.6302 101.57 80.6302H102.083C102.2 80.6408 102.29 80.736 102.295 80.8524L102.311 81.2493H102.305ZM68.9515 75.7882C68.5599 75.3437 68.0784 74.9892 67.5333 74.7616C66.9459 74.5182 66.3109 74.3965 65.6759 74.4071C64.9668 74.4071 64.2577 74.5235 63.5857 74.7616C62.956 74.9892 62.3792 75.3384 61.887 75.7882C61.4002 76.2327 61.0139 76.7778 60.7493 77.381C60.199 78.9051 60.199 80.5773 60.7493 82.1066C61.0139 82.7098 61.4002 83.2496 61.887 83.6941C62.3792 84.1492 62.956 84.4985 63.5857 84.7207C64.2577 84.9641 64.9615 85.0806 65.6759 85.0753C66.4538 85.0753 67.2211 84.9059 67.9302 84.5778C68.4805 84.3344 68.9833 83.9852 69.4066 83.5512C69.5654 83.3766 69.5654 83.112 69.4066 82.9427L68.0625 81.9531L67.9673 81.8843C67.7926 81.7838 67.5704 81.8103 67.4222 81.9584C67.2317 82.1648 67.02 82.35 66.7819 82.5088C66.4062 82.7363 65.9776 82.8474 65.5436 82.8316C65.0092 82.8421 64.4853 82.6622 64.0778 82.3183C63.6333 81.8579 63.3634 81.2493 63.3264 80.609C63.3264 80.5032 63.4058 80.4079 63.5116 80.3921H69.7664C70.0046 80.3815 70.1951 80.1804 70.1951 79.9423V79.4448C70.2057 78.741 70.0998 78.0372 69.8776 77.3705C69.6871 76.7831 69.3801 76.2433 68.978 75.7776M66.9936 78.3442H63.5539C63.4322 78.3442 63.337 78.2489 63.3317 78.1325C63.3581 77.9684 63.4058 77.815 63.4746 77.6615C63.5698 77.4445 63.7127 77.2488 63.8873 77.09C64.0778 76.9154 64.2948 76.7778 64.5276 76.6825C64.8028 76.5714 65.0991 76.5185 65.3955 76.5238C65.8929 76.5079 66.3744 76.6984 66.7184 77.0583C67.0094 77.344 67.1841 77.725 67.2158 78.1272C67.2105 78.2489 67.11 78.3389 66.9883 78.3389" fill="#0F110E"/>
<path id="path3" d="M57.5637 79.8681L57.4949 79.7781C57.4102 79.6353 57.4102 79.4606 57.4949 79.3178L60.9504 75.005C61.0298 74.915 61.0192 74.7774 60.9292 74.6928C60.8869 74.6557 60.834 74.6399 60.781 74.6399H58.0558C57.7753 74.6399 57.5054 74.7722 57.3361 74.9944L57.1879 75.1849L54.5421 78.6034L54.505 78.6404L54.4839 78.6616H54.468C54.4045 78.688 54.3304 78.6775 54.2828 78.6298C54.2616 78.6087 54.2457 78.5769 54.2404 78.5505V70.29C54.2299 70.0572 54.0341 69.872 53.8012 69.8667H51.6739C51.4464 69.8826 51.2665 70.0678 51.2559 70.3006V84.382C51.2718 84.6148 51.4623 84.8 51.6951 84.8053H53.8012C54.0288 84.7947 54.214 84.6148 54.2299 84.382V80.4026C54.2351 80.3708 54.251 80.3391 54.2722 80.3179C54.3198 80.2703 54.3939 80.2597 54.4574 80.2862H54.4733C54.4733 80.2862 54.4892 80.2967 54.4944 80.3073V80.3232L54.5474 80.3814L57.135 84.2656L57.2832 84.4561C57.4525 84.673 57.7118 84.8 57.9923 84.8H60.871C60.9028 84.8 60.9292 84.7789 60.9557 84.763C61.0245 84.6995 61.0403 84.5989 61.0033 84.5143L57.5637 79.8628V79.8681ZM95.9553 75.3542C95.9924 75.259 96.0082 75.1585 96.0082 75.0579C96.0082 75.042 96.0082 75.0209 96.0082 75.005C95.9659 74.8039 95.7966 74.6557 95.5902 74.6452H93.8968C93.4735 74.6452 93.1031 74.9415 93.0131 75.3542L92.9602 75.5553L91.5314 80.7889C91.4944 80.8312 91.4468 80.8524 91.3938 80.8577C91.325 80.8524 91.2668 80.81 91.2351 80.7518L91.2139 80.6725L89.7746 75.386L89.7534 75.2907C89.6317 74.915 89.2824 74.661 88.8855 74.661H87.0493C86.626 74.661 86.2608 74.9521 86.1656 75.3648V75.4125L86.1285 75.5712L84.8268 80.7783C84.7791 80.863 84.6733 80.8947 84.5939 80.8471C84.5939 80.8471 84.5833 80.8471 84.5833 80.8418C84.5569 80.8259 84.5357 80.8047 84.5198 80.7783L82.9799 75.5553L82.9059 75.3066C82.9059 75.3066 82.9059 75.2749 82.9059 75.259C82.7789 74.8939 82.4349 74.6452 82.0433 74.6452H80.1912C79.9901 74.6557 79.8155 74.8039 79.7731 75.005C79.7731 75.0262 79.7731 75.042 79.7731 75.0632C79.7731 75.1637 79.789 75.2643 79.8208 75.3595L82.8847 84.2179C82.8953 84.2497 82.9112 84.2867 82.927 84.3185C83.0646 84.6095 83.3504 84.8053 83.6732 84.8318H85.4724C85.8428 84.8 86.1603 84.5513 86.2714 84.1968L86.3455 83.9481L87.7584 78.8786C87.8113 78.7992 87.9171 78.778 87.9912 78.8309C88.0071 78.8415 88.023 78.8574 88.0389 78.8786L89.6581 84.0698C89.6899 84.1703 89.7269 84.2656 89.7693 84.3555C89.9068 84.6466 90.1926 84.8424 90.5154 84.8688H92.267C92.5898 84.8477 92.8755 84.6519 93.0131 84.3555C93.0343 84.3185 93.0925 84.1438 93.1295 84.0274L96.0082 75.4654C96.0082 75.4654 96.0135 75.4283 96.0241 75.4125M115.514 74.9997C115.514 74.9997 115.498 74.9468 115.487 74.9203C115.418 74.7669 115.27 74.661 115.101 74.6452H113.302C112.958 74.661 112.651 74.8621 112.508 75.1743C112.497 75.2008 112.487 75.2272 112.476 75.2537L112.466 75.296C112.466 75.296 112.45 75.3437 112.444 75.3701L112.392 75.5447L110.756 80.8947L110.735 80.9582C110.709 81.0588 110.619 81.1223 110.518 81.117C110.428 81.117 110.344 81.064 110.312 80.9794L108.37 75.5395L108.349 75.4707L108.216 75.1055C108.063 74.8198 107.767 74.6451 107.444 74.6346H105.412C105.269 74.661 105.147 74.751 105.084 74.8833C105.073 74.9044 105.068 74.9309 105.062 74.9574C105.047 75.0367 105.052 75.1161 105.078 75.1902L108.947 84.6148C109.005 84.8106 108.994 85.0223 108.915 85.2128V85.2392L108.841 85.4192C108.735 85.6679 108.64 85.9166 108.544 86.1124C108.46 86.3029 108.343 86.4775 108.2 86.6257C108.052 86.7686 107.872 86.8797 107.677 86.9432C107.412 87.0226 107.137 87.0596 106.862 87.0543H105.581C105.343 87.0596 105.152 87.2554 105.147 87.4935V89.1075C105.152 89.3456 105.348 89.5414 105.586 89.5467H107.301C107.883 89.5626 108.46 89.4938 109.021 89.3403C109.423 89.2186 109.793 89.0123 110.1 88.7265C110.391 88.4408 110.629 88.1074 110.804 87.7369C110.989 87.3401 111.18 86.885 111.375 86.3717L115.519 75.169C115.53 75.1108 115.53 75.0473 115.519 74.9891M115.106 82.7627C114.815 82.7521 114.529 82.8738 114.334 83.0908C113.91 83.5141 113.91 84.2021 114.334 84.6254C114.757 85.0487 115.445 85.0487 115.868 84.6254L115.895 84.5989C116.297 84.1756 116.297 83.5141 115.895 83.0908C115.699 82.8738 115.418 82.7574 115.122 82.7627M133.559 75.7935C133.103 75.3542 132.569 75.0103 131.976 74.7827C130.685 74.3065 129.267 74.3065 127.981 74.7827C127.394 75.0103 126.854 75.3542 126.404 75.7935C125.96 76.2327 125.61 76.7566 125.377 77.3334C125.129 77.9313 124.996 79.1167 124.996 79.8522C124.991 80.6248 125.118 81.3974 125.377 82.1277C125.854 83.3077 126.806 84.2391 127.997 84.6942C129.288 85.1704 130.706 85.1704 131.997 84.6942C133.188 84.2497 134.13 83.3236 134.601 82.1436C134.86 81.4133 134.993 80.6407 134.982 79.8681C134.982 79.122 134.855 77.9472 134.601 77.3492C134.363 76.7724 134.014 76.2485 133.574 75.8093M133.077 81.5138C132.934 81.9213 132.707 82.297 132.405 82.6145C132.109 82.9267 131.754 83.1807 131.357 83.3607C130.484 83.7152 129.505 83.7152 128.632 83.3607C128.235 83.1807 127.88 82.932 127.579 82.6145C127.288 82.297 127.06 81.9213 126.912 81.5138C126.753 80.9794 126.674 80.4237 126.679 79.8628C126.679 79.2278 126.753 78.5928 126.912 77.9737C127.203 77.1482 127.828 76.4814 128.632 76.1374C129.505 75.7776 130.484 75.7776 131.357 76.1374C131.754 76.3121 132.109 76.5661 132.405 76.8836C132.701 77.2011 132.929 77.5768 133.077 77.9842C133.236 78.6034 133.31 79.2384 133.305 79.8734C133.305 80.429 133.23 80.9847 133.077 81.5244M118.847 76.8836C119.117 76.5608 119.456 76.3068 119.837 76.1374C120.271 75.9575 120.742 75.8728 121.213 75.8887C121.652 75.8781 122.091 75.9628 122.499 76.1374C122.8 76.2803 123.07 76.4761 123.308 76.7142C123.478 76.8571 123.726 76.8571 123.896 76.7142L124.462 76.2009C124.637 76.0369 124.658 75.767 124.504 75.5818C124.118 75.2272 123.674 74.9521 123.187 74.7669C122.557 74.5234 121.89 74.3964 121.213 74.4017C120.541 74.3964 119.869 74.5182 119.244 74.7722C118.668 75.005 118.144 75.3542 117.704 75.7988C117.27 76.2486 116.932 76.7777 116.715 77.3598C116.249 78.905 116.249 80.5507 116.715 82.0959C116.937 82.678 117.276 83.2072 117.704 83.657C118.133 84.1068 118.652 84.4614 119.234 84.6836C120.493 85.1652 121.89 85.1652 123.15 84.6836C123.636 84.4931 124.081 84.2073 124.457 83.8475C124.605 83.6729 124.594 83.4136 124.43 83.2495L123.949 82.7786C123.774 82.6198 123.509 82.6198 123.335 82.7786C122.785 83.3448 122.017 83.6517 121.223 83.62C120.774 83.62 120.334 83.5353 119.922 83.3501C119.541 83.1755 119.202 82.9215 118.932 82.604C118.657 82.2759 118.44 81.9001 118.292 81.4927C118.138 80.9265 118.059 80.3444 118.064 79.757C118.064 79.1749 118.128 78.5875 118.265 78.0213C118.387 77.6138 118.583 77.2381 118.842 76.9047M149.836 76.7195C149.73 76.2644 149.529 75.8411 149.238 75.4812C148.942 75.132 148.566 74.8674 148.137 74.7086C147.598 74.5129 147.031 74.4229 146.46 74.4335C145.841 74.407 145.227 74.5711 144.703 74.9044C144.317 75.1743 143.983 75.513 143.713 75.894L143.666 75.9575L143.645 75.9945C143.613 76.0263 143.571 76.0475 143.528 76.0475C143.47 76.0475 143.412 76.0104 143.385 75.9575C143.385 75.9416 143.359 75.9152 143.348 75.8834C143.301 75.8093 143.258 75.73 143.205 75.6347C143.062 75.4125 142.888 75.2167 142.676 75.0526C142.417 74.8568 142.131 74.7034 141.824 74.5922C141.062 74.3541 140.247 74.3382 139.475 74.5552C139.157 74.6452 138.856 74.7827 138.575 74.9574C138.321 75.1108 138.088 75.3013 137.887 75.5236C137.818 75.5977 137.76 75.6717 137.702 75.7511L137.686 75.7723C137.686 75.7723 137.675 75.7935 137.665 75.804C137.633 75.8358 137.591 75.8517 137.548 75.8517C137.474 75.8517 137.406 75.7988 137.39 75.7247V75.0738C137.384 74.8357 137.189 74.6452 136.956 74.6399H136.384C136.141 74.6504 135.95 74.8462 135.95 75.0897V84.3555C135.95 84.5989 136.146 84.7947 136.39 84.8H137.062C137.305 84.7894 137.501 84.5936 137.506 84.3449V79.4606C137.506 78.9685 137.559 78.4764 137.675 78.0001C137.771 77.5927 137.945 77.2064 138.189 76.8624C138.422 76.5396 138.729 76.2856 139.088 76.1163C139.501 75.9363 139.951 75.8517 140.401 75.8675C141.041 75.8675 141.501 76.0845 141.782 76.5184C142.062 76.9524 142.2 77.6879 142.2 78.7251V84.3714C142.2 84.6148 142.396 84.8159 142.639 84.8212H143.327C143.571 84.8106 143.766 84.6148 143.766 84.3661V78.6193C143.761 78.233 143.825 77.852 143.957 77.4921C144.068 77.1693 144.243 76.873 144.47 76.619C144.687 76.3808 144.946 76.1903 145.243 76.058C145.539 75.9258 145.857 75.857 146.185 75.857C146.571 75.8411 146.952 75.9205 147.301 76.0792C147.576 76.2115 147.82 76.4126 148 76.656C148.174 76.9047 148.296 77.1799 148.36 77.4762C148.423 77.7832 148.455 78.1007 148.455 78.4129V84.3661C148.455 84.6095 148.656 84.8 148.894 84.8053H149.571C149.815 84.8 150.011 84.5989 150.011 84.3502V78.3335C150.016 77.7832 149.958 77.2381 149.831 76.7036" fill="#0F110E"/>
<path id="path4" d="M12.9595 60.7333C13.494 60.3734 14.1978 60.3734 14.7322 60.7333C16.0975 61.5905 17.4098 62.5325 18.6534 63.5591C18.6534 63.5591 18.9921 63.7972 19.0027 63.395C19.0027 63.395 18.9445 62.215 19.0873 61.8551C19.1826 61.5746 19.4472 61.3841 19.7435 61.3841C19.7435 61.3841 21.2834 61.4635 22.2624 61.5905C22.6963 61.6593 23.0297 62.0192 23.0667 62.4584C23.0667 62.4584 23.6965 66.6547 23.834 68.1629C23.834 68.1629 23.9557 68.9355 25.0723 70.2372C25.0723 70.2372 27.3213 73.3964 27.5965 74.0156C27.5965 74.0156 28.1256 75.1162 26.9932 75.2538C26.9932 75.2538 24.9241 75.4602 24.7283 75.5025C24.4479 75.529 24.2362 75.7777 24.2627 76.0635V76.0793C24.2627 76.0793 24.1568 83.3767 23.6224 86.8851C23.6224 86.8851 23.4848 88.2768 22.7122 88.2398C22.7122 88.2398 20.5902 88.171 20.0981 88.1869C20.0981 88.1869 19.8811 88.2027 19.9128 87.9011C19.9128 87.9011 20.9924 76.5186 20.2621 70.7664C20.2621 70.7664 20.2356 70.0203 19.6641 69.8721C19.6641 69.8721 19.1508 69.6657 18.6534 70.3431C18.6534 70.3431 15.2879 74.6188 15.2931 80.6144C15.2931 80.6144 15.2296 82.4347 15.5101 82.9004C15.5101 82.9004 15.6794 83.2179 16.5579 83.292L17.6744 83.4402C17.6744 83.4402 17.8808 83.4402 17.8649 83.7153C17.8649 83.7153 17.6162 87.0544 17.5368 87.6471C17.5368 87.7847 17.5051 87.917 17.4575 88.044C17.4575 88.044 17.4151 88.1551 17.0659 88.1445C17.0659 88.1445 12.1604 88.1075 11.6101 88.1445C11.6101 88.1445 11.3773 88.171 11.3296 88.0281C11.282 87.8852 10.9857 83.7153 11.0015 83.1227C10.9962 83.001 11.0597 82.8845 11.1709 82.8316C11.9329 82.3554 12.4356 81.5563 12.5361 80.662C12.5361 80.662 12.6049 80.3127 12.5626 78.7517C12.5626 78.7517 12.7425 72.3487 12.7901 71.3115C12.7901 71.3115 12.8272 70.9622 12.3721 70.8987C12.1498 70.8511 11.9276 70.9887 11.8747 71.2109V71.248C11.8747 71.248 11.5572 75.4655 11.626 77.1536C11.626 77.1536 11.7318 78.249 10.9804 78.2648C10.9804 78.2648 10.2342 78.376 10.2078 77.4658C10.2078 77.4658 10.2607 73.3594 10.4565 71.3326C10.4565 71.0998 10.2819 70.9093 10.0543 70.8934C9.81618 70.8617 9.59393 71.0257 9.55689 71.2586C9.55689 71.2691 9.55689 71.285 9.55689 71.2956C9.55689 71.2956 9.23938 75.2221 9.30818 77.2964C9.30818 77.2964 9.40343 78.3019 8.59908 78.2648C8.59908 78.2648 7.92703 78.3442 7.88999 77.4499C7.88999 77.4499 8.0752 71.8301 8.12282 71.3909C8.15457 71.1421 7.97995 70.9146 7.73123 70.8828H7.6889C7.45606 70.8458 7.23381 71.0045 7.19677 71.2374C7.19677 71.2427 7.19677 71.248 7.19677 71.2586C7.19677 71.2744 7.19677 71.285 7.19677 71.3009C7.19677 71.3009 6.89514 78.0267 6.94805 80.0005C6.94805 80.0005 6.9163 82.0326 8.41916 82.8528C8.41916 82.8528 8.64142 82.9798 8.64671 83.1756C8.64671 83.1756 8.81604 86.7422 8.9695 87.8852C8.9695 87.8852 9.02242 88.1604 8.779 88.1604L4.9319 88.2927C4.9319 88.2927 4.30218 88.335 4.1593 87.5624C4.03759 86.8428 3.34437 80.8895 3.46079 76.1587C3.49254 75.8624 3.29145 75.5925 3.00041 75.5396C3.00041 75.5396 1.06892 75.3597 0.603244 75.2432C0.174612 75.1321 -0.0793919 74.6982 0.0264431 74.2696C0.0476101 74.1955 0.0740689 74.1267 0.111111 74.0632C0.111111 74.0632 4.29159 66.1256 12.9595 60.7544V60.7333Z" fill="#0F110E"/>
</g>
<defs>
<clipPath id="clip0_453_1016">
<rect width="150" height="150" fill="white"/>
</clipPath>
</defs>
</svg>
