<svg width="150" height="150" viewBox="0 0 150 150" fill="none" xmlns="http://www.w3.org/2000/svg">
<g clip-path="url(#clip0_453_17)">
<path id="path1" d="M60.2889 94.6168H52.7058V54.8599H60.2889V69.5074C61.4637 68.0681 64.2101 66.6287 67.0888 66.6287C75.0688 66.6287 79.5138 73.1693 79.5138 81.0117C79.5138 88.8541 75.0688 95.2677 67.0888 95.2677C64.2101 95.2677 61.4637 93.8283 60.2889 92.389V94.6115V94.6168ZM60.2889 85.4621C61.2044 87.4253 63.1676 88.6001 65.3901 88.6001C69.4436 88.6001 71.9307 85.3298 71.9307 80.8847C71.9307 76.4396 69.4436 73.1693 65.3901 73.1693C63.1676 73.1693 61.0721 74.4764 60.2889 76.3073V85.4621Z" fill="#0F110E"/>
<path id="path2" d="M112.862 66.6338C118.488 66.6338 121.885 70.555 121.885 76.704V94.6219H114.302V78.2756C114.302 75.3969 112.995 73.439 110.381 73.439C108.417 73.439 106.586 74.6138 106.195 76.9686V94.6219H98.6118V78.2756C98.6118 75.3969 97.437 73.439 94.8176 73.439C92.8543 73.439 91.0234 74.6138 90.4995 76.9686V94.6219H82.9164V67.29H90.2402V69.5125C91.5473 67.8139 94.1614 66.6338 97.1724 66.6338C100.443 66.6338 102.925 68.0731 104.496 70.1634C106.327 68.2001 108.941 66.6338 112.868 66.6338H112.862Z" fill="#0F110E"/>
<path id="path3" d="M137.972 66.6338C144.904 66.6338 149.217 70.6873 150.005 76.4447H142.549C142.158 74.3545 140.459 73.0421 137.972 73.0421C134.442 73.0421 132.347 76.1801 132.347 80.8898C132.347 85.5994 134.437 88.6051 137.972 88.6051C140.459 88.6051 142.025 87.2981 142.549 85.2025H150.005C149.222 91.087 144.904 95.0135 137.972 95.0135C130.256 95.0135 124.764 89.129 124.764 80.7575C124.896 72.3859 130.256 66.6338 137.972 66.6338Z" fill="#0F110E"/>
<path id="path4" d="M5.10122 106.386C2.6141 106.386 -3.05176e-05 104.428 -3.05176e-05 100.633V91.7379C-3.05176e-05 88.2083 2.22251 84.1549 5.36051 82.4562L17.7855 75.1324L5.36051 67.8086C2.3548 65.8454 -3.05176e-05 61.9242 -3.05176e-05 58.3946V49.3722C-3.05176e-05 45.578 2.6141 43.6147 5.23351 43.6147C6.28128 43.6147 7.45605 43.874 8.50381 44.5302L36.4919 61.141C38.4551 62.3158 39.4976 64.1467 39.4976 65.9777C39.4976 67.9409 38.3228 69.7719 36.4919 70.8144L29.8243 74.7355L36.4919 78.6567C38.4551 79.8315 39.6299 81.6624 39.6299 83.4934C39.6299 85.4566 38.4551 87.2876 36.4919 88.3301L8.50381 105.459C7.32905 106.116 6.28128 106.375 5.10122 106.375V106.386ZM23.8023 78.662L8.50381 87.6845C7.32905 88.3406 6.14899 90.4309 6.14899 91.7379V99.7179L32.6977 84.0226L23.8023 78.662ZM6.14899 50.4146V58.3946C6.14899 59.7017 7.32375 61.7972 8.50381 62.4481L23.8023 71.4705L32.8247 66.11L6.14899 50.4146Z" fill="#0F110E"/>
</g>
<defs>
<clipPath id="clip0_453_17">
<rect width="150" height="150" fill="white"/>
</clipPath>
</defs>
</svg>
