<svg width="150" height="150" viewBox="0 0 150 150" fill="none" xmlns="http://www.w3.org/2000/svg">
<path id="path1" d="M78.3709 109.666C65.3902 109.666 54.8755 98.9877 54.8755 85.843C54.8755 72.6983 65.3902 62.0195 78.3709 62.0195C91.3515 62.0195 101.866 72.6983 101.866 85.843C101.866 98.9877 91.3515 109.666 78.3709 109.666ZM78.3709 69.5762C69.4966 69.5762 62.2681 76.9687 62.2681 85.843C62.2681 94.7173 69.4966 102.11 78.3709 102.11C87.2451 102.11 94.4737 94.8813 94.4737 85.843C94.4737 76.8047 87.2451 69.5762 78.3709 69.5762Z" fill="#0F110E"/>
<path id="path2" d="M10.6788 64.9774V44.2761C10.6788 41.318 8.2128 38.8521 5.25471 38.8521C2.46596 38.8573 0 41.3233 0 44.2761V85.8428C0 99.8077 11.3349 111.148 25.1358 111.148C38.9367 111.148 50.2716 99.813 50.2716 85.6841C50.2716 71.5551 38.9367 60.2201 25.1358 60.2201C19.7118 60.3842 14.7852 62.0299 10.6788 64.9827V64.9774ZM25.1358 100.3C17.0871 100.3 10.6788 93.7275 10.6788 85.6788C10.6788 77.63 17.2511 71.0577 25.1358 71.0577C33.0205 71.0577 39.5929 77.63 39.5929 85.6788C39.7569 93.7275 33.1846 100.3 25.1358 100.3Z" fill="#0F110E"/>
<path id="path3" d="M128.15 63.8293C120.758 63.8293 114.349 67.4436 110.407 73.0316V41.8156C110.407 40.6673 109.423 39.6777 108.433 39.6777C107.285 39.6777 106.295 40.662 106.295 41.8156V85.8483C106.295 98.0034 116.154 107.862 128.145 107.862C140.136 107.862 149.995 98.0034 149.995 85.6842C150.159 73.6931 140.3 63.8346 128.145 63.8346M128.145 103.925C118.287 103.925 110.402 95.8761 110.402 86.0176C110.402 76.1591 118.451 68.1103 128.145 68.1103C137.84 68.1103 145.888 76.1591 145.888 86.0176C146.052 95.7121 138.004 103.925 128.145 103.925Z" fill="#0F110E"/>
</svg>
