<svg width="150" height="150" viewBox="0 0 150 150" fill="none" xmlns="http://www.w3.org/2000/svg">
<g clip-path="url(#clip0_453_27)">
<path id="path1" d="M50.3404 89.5101C48.4565 89.5101 46.5674 88.7852 45.2603 87.4781C43.3765 85.5942 43.3765 83.5622 43.3765 80.2231C43.3765 76.884 43.3765 74.7091 45.2603 72.8252C46.5674 71.5182 48.4513 70.7932 50.3404 70.7932C53.9653 70.6503 57.0133 73.2592 57.3044 76.7411H53.5313C53.2403 75.143 51.9332 73.9841 50.3404 73.9841C49.4726 73.9841 48.5994 74.2752 48.0173 75.0001C47.2924 75.868 47.0013 76.4501 47.0013 80.2231C47.0013 83.9961 47.2924 84.43 48.0173 85.155C48.5994 85.88 49.4673 86.171 50.3404 86.171C51.9385 86.171 53.3885 85.0121 53.5313 83.414H57.3044C56.8704 86.896 53.8224 89.653 50.3404 89.5048V89.5101Z" fill="#0F110E"/>
<path id="path2" d="M109.963 88.2029C109.095 89.0707 107.788 89.5099 106.623 89.5099C105.316 89.6528 104.015 89.076 103.142 88.06V89.3671H99.8024V71.0894H103.284V76.6034C104.152 75.5873 105.316 75.1534 106.623 75.1534C107.931 75.1534 109.089 75.5873 109.963 76.4605C111.413 77.9104 111.413 80.2335 111.413 82.2655C111.413 84.2976 111.27 86.7635 109.963 88.2135V88.2029ZM105.613 78.3391C103.581 78.3391 103.29 80.08 103.29 82.4031C103.29 84.7262 103.433 86.319 105.465 86.319C107.497 86.319 107.788 84.578 107.788 82.255C107.788 79.9319 107.497 78.3391 105.613 78.3391Z" fill="#0F110E"/>
<path id="path3" d="M123.308 74.1323V70.9414H126.79V74.1323H123.308ZM123.308 89.2191V75.2912H126.79V89.2191H123.308Z" fill="#0F110E"/>
<path id="path4" d="M134.479 89.2191C132.447 89.362 130.563 87.7692 130.415 85.7371V78.0482H128.965V75.4394H130.415V70.9414H133.897V75.4394H136.363V78.0482H133.897V85.1551C133.897 85.88 134.331 86.4621 135.056 86.4621H136.363V89.362L134.479 89.2191Z" fill="#0F110E"/>
<path id="path5" d="M69.2002 83.4137H71.0841V82.2548C71.0841 79.7888 70.793 78.1907 69.486 76.8889C68.3271 75.73 66.729 75.1479 64.988 75.1479C63.3899 75.1479 61.797 75.73 60.49 76.8889C59.1829 78.196 58.8919 79.7888 58.8919 82.2548C58.8919 84.7207 59.1829 86.3188 60.49 87.7688C61.6489 88.9277 63.247 89.5098 64.988 89.5098C66.729 89.6526 68.3271 88.9277 69.486 87.7688C70.2109 87.0438 70.6449 86.3188 70.793 85.3028H67.3111C67.1682 85.4457 67.02 85.7367 66.8771 85.8849C66.295 86.3188 65.7182 86.6099 64.9933 86.6099C64.2683 86.6099 63.6862 86.467 63.2523 85.8849C62.6702 85.1599 62.3844 84.2868 62.3844 83.419H69.2002V83.4137ZM64.8504 78.0478C65.5754 78.0478 66.1575 78.1907 66.7343 78.6299C67.3163 79.212 67.6021 80.0799 67.6021 80.953H62.2363C62.2363 80.0852 62.5273 79.3549 63.1041 78.6299C63.6862 78.3389 64.263 78.0478 64.8451 78.0478H64.8504Z" fill="#0F110E"/>
<path id="path6" d="M95.7436 83.4137H97.4846V82.2548C97.4846 79.7888 97.1936 78.1907 95.8865 76.8889C94.7276 75.73 93.1295 75.1479 91.3885 75.1479C89.7904 75.1479 88.1976 75.73 86.8905 76.8889C85.5835 78.196 85.2924 79.7888 85.2924 82.2548C85.2924 84.7207 85.5835 86.3188 86.8905 87.7688C88.0494 88.9277 89.6475 89.5098 91.3885 89.5098C92.9866 89.6526 94.7276 88.9277 95.8865 87.7688C96.6115 87.0438 97.0454 86.3188 97.1936 85.3028H93.7116C93.5687 85.4457 93.4206 85.7367 93.2777 85.8849C92.6956 86.3188 92.1188 86.6099 91.3938 86.6099C90.6689 86.6099 90.0868 86.467 89.6528 85.8849C89.0707 85.1599 88.785 84.2868 88.785 83.419H95.7489L95.7436 83.4137ZM91.3938 78.0478C92.1188 78.0478 92.7009 78.1907 93.2777 78.6299C93.8598 79.212 94.1455 80.0799 94.1455 80.953H88.7797C88.7797 80.0852 89.0707 79.3549 89.6475 78.6299C90.0815 78.3389 90.8064 78.0478 91.3885 78.0478H91.3938Z" fill="#0F110E"/>
<path id="path7" d="M148.259 83.4137H150V82.2548C150 79.7888 149.709 78.1907 148.402 76.8889C147.243 75.73 145.645 75.1479 143.904 75.1479C142.306 75.1479 140.713 75.73 139.406 76.8889C138.099 78.196 137.808 79.7888 137.808 82.2548C137.808 84.7207 138.099 86.3188 139.406 87.7688C140.565 88.9277 142.163 89.5098 143.904 89.5098C145.645 89.6526 147.243 88.9277 148.402 87.7688C149.127 87.0438 149.561 86.3188 149.709 85.3028H146.227C146.084 85.4457 145.936 85.7367 145.793 85.8849C145.211 86.3188 144.634 86.6099 143.909 86.6099C143.184 86.6099 142.602 86.467 142.168 85.8849C141.586 85.1599 141.3 84.2868 141.3 83.419H148.264L148.259 83.4137ZM143.909 78.0478C144.634 78.0478 145.216 78.1907 145.793 78.6299C146.375 79.212 146.661 80.0799 146.661 80.953H141.295C141.295 80.0852 141.586 79.3549 142.163 78.6299C142.745 78.3389 143.322 78.0478 143.904 78.0478H143.909Z" fill="#0F110E"/>
<path id="path8" d="M76.741 71.084H73.259V89.3617H76.741V71.084Z" fill="#0F110E"/>
<path id="path9" d="M83.271 71.084H79.789V89.3617H83.271V71.084Z" fill="#0F110E"/>
<path id="path10" d="M121.425 75C120.408 75 119.541 75.291 118.668 75.8678C118.085 76.4499 117.651 77.0267 117.218 77.7517V75.2858H113.593V89.2136H117.366V82.3979C117.366 81.6729 117.509 80.7998 117.8 80.0748C118.382 79.0588 119.684 78.4767 120.848 78.6249H121.43V75H121.425Z" fill="#0F110E"/>
<path id="path11" d="M23.2096 78.6303C24.0922 78.6303 24.8077 77.9148 24.8077 77.0322C24.8077 76.1496 24.0922 75.4341 23.2096 75.4341C22.327 75.4341 21.6115 76.1496 21.6115 77.0322C21.6115 77.9148 22.327 78.6303 23.2096 78.6303Z" fill="#0F110E"/>
<path id="path12" d="M12.7637 89.6527C14.2863 89.6527 15.5207 88.4183 15.5207 86.8957C15.5207 85.373 14.2863 84.1387 12.7637 84.1387C11.241 84.1387 10.0067 85.373 10.0067 86.8957C10.0067 88.4183 11.241 89.6527 12.7637 89.6527Z" fill="#0F110E"/>
<path id="path13" d="M2.89986 79.3553C4.42251 79.3553 5.65686 78.121 5.65686 76.5983C5.65686 75.0757 4.42251 73.8413 2.89986 73.8413C1.37721 73.8413 0.142853 75.0757 0.142853 76.5983C0.142853 78.121 1.37721 79.3553 2.89986 79.3553Z" fill="#0F110E"/>
<path id="path14" d="M12.6208 68.1841C13.5823 68.1841 14.3618 67.4047 14.3618 66.4431C14.3618 65.4816 13.5823 64.7021 12.6208 64.7021C11.6593 64.7021 10.8798 65.4816 10.8798 66.4431C10.8798 67.4047 11.6593 68.1841 12.6208 68.1841Z" fill="#0F110E"/>
<path id="path15" d="M20.3097 70.936C21.1105 70.936 21.7597 70.2868 21.7597 69.4861C21.7597 68.6853 21.1105 68.0361 20.3097 68.0361C19.5089 68.0361 18.8598 68.6853 18.8598 69.4861C18.8598 70.2868 19.5089 70.936 20.3097 70.936Z" fill="#0F110E"/>
<path id="path16" d="M5.36581 71.9519C6.56698 71.9519 7.54072 70.9781 7.54072 69.777C7.54072 68.5758 6.56698 67.6021 5.36581 67.6021C4.16464 67.6021 3.1909 68.5758 3.1909 69.777C3.1909 70.9781 4.16464 71.9519 5.36581 71.9519Z" fill="#0F110E"/>
<path id="path17" d="M5.65685 86.7529C7.25841 86.7529 8.55673 85.4546 8.55673 83.853C8.55673 82.2515 7.25841 80.9531 5.65685 80.9531C4.05529 80.9531 2.75697 82.2515 2.75697 83.853C2.75697 85.4546 4.05529 86.7529 5.65685 86.7529Z" fill="#0F110E"/>
<path id="path18" d="M19.8758 86.4621C21.077 86.4621 22.0507 85.4884 22.0507 84.2872C22.0507 83.086 21.077 82.1123 19.8758 82.1123C18.6746 82.1123 17.7009 83.086 17.7009 84.2872C17.7009 85.4884 18.6746 86.4621 19.8758 86.4621Z" fill="#0F110E"/>
<path id="path19" d="M29.7396 65.8612L32.7877 64.8452L29.7396 63.6863L28.5807 60.3472L27.4165 63.5381L24.2256 64.8452L27.4165 66.0093L28.5807 69.0521L29.7396 65.8612Z" fill="#0F110E"/>
<path id="path20" d="M50.1922 89.5099C48.1602 89.5099 46.4192 88.7849 45.1122 87.4779C43.2283 85.594 43.2283 83.562 43.2283 80.2229C43.2283 76.8838 43.2283 74.7089 45.1122 72.825C46.4192 71.5179 48.1602 70.793 50.1922 70.793C53.8171 70.793 56.5741 72.825 57.1562 76.8838H53.3832C52.9492 75.2857 52.0761 74.1268 50.1922 74.1268C49.1762 74.1268 48.3084 74.5607 47.7263 75.1428C47.0013 76.0106 46.8584 76.7409 46.8584 80.3657C46.8584 83.9906 47.0013 84.5727 47.7263 85.2977C48.3084 85.8798 49.0333 86.3137 50.1922 86.3137C52.0761 86.3137 53.0921 85.1548 53.3832 83.5567H57.1562C56.5741 87.4726 53.6742 89.5046 50.1922 89.5046V89.5099Z" fill="#0F110E"/>
<path id="path21" d="M109.82 88.2028C108.952 89.0706 107.788 89.5099 106.481 89.5099C105.031 89.5099 104.015 89.0759 102.999 88.0599V89.2188H99.6595V71.084H102.999V76.598C103.866 75.582 105.031 75.148 106.338 75.148C107.645 75.148 108.947 75.582 109.677 76.4551C111.127 77.905 111.127 80.2281 111.127 82.2602C111.127 84.2922 111.27 86.7582 109.82 88.2081V88.2028ZM105.322 78.339C103.29 78.339 102.999 80.08 102.999 82.403C102.999 84.7261 103.29 86.4671 105.322 86.4671C107.354 86.4671 107.645 84.7261 107.645 82.403C107.788 80.08 107.502 78.339 105.322 78.339Z" fill="#0F110E"/>
<path id="path22" d="M123.165 74.1318V70.9409H126.79V74.1318H123.165ZM123.165 89.2186V75.2907H126.647V89.2186H123.165Z" fill="#0F110E"/>
<path id="path23" d="M134.336 89.2186C131.437 89.2186 130.272 87.1866 130.272 85.1546V77.8996H128.822V75.2907H130.272V70.9409H133.754V75.4389H136.22V78.0477H133.754V85.1546C133.754 86.0224 134.188 86.4616 135.061 86.4616H136.368V89.3615H134.336V89.2186Z" fill="#0F110E"/>
<path id="path24" d="M69.2002 83.4137H70.9412V82.2548C70.9412 79.7888 70.6501 78.1907 69.3431 76.8889C68.4752 76.0211 67.02 75.1479 64.8451 75.1479C62.8131 75.1479 61.2203 76.0158 60.3471 76.8889C59.04 78.196 58.749 79.7888 58.749 82.2548C58.749 84.7207 59.04 86.3188 60.3471 87.6206C61.215 88.4885 62.6702 89.3616 64.8451 89.3616C66.8771 89.3616 68.4699 88.4938 69.3431 87.6206C70.0681 86.8956 70.502 86.1707 70.6501 85.1547H67.1682C67.0253 85.2975 66.8771 85.5886 66.7343 85.7368C66.3003 86.1707 65.7182 86.3188 64.8504 86.3188C63.9825 86.3188 63.5433 86.0278 62.9665 85.7368C62.3844 85.1547 62.0987 84.2868 62.0987 83.2708H67.4645L69.2055 83.4137H69.2002ZM64.8504 78.0478C65.7182 78.0478 66.3003 78.3389 66.7343 78.6299C67.3163 79.212 67.6021 79.937 67.6021 80.953H62.2363C62.2363 80.0852 62.5273 79.212 63.1041 78.6299C63.3952 78.3389 64.1201 78.0478 64.8451 78.0478H64.8504Z" fill="#0F110E"/>
<path id="path25" d="M95.6008 83.4137H97.3417V82.2548C97.3417 79.7888 97.0507 78.1907 95.7436 76.8889C94.8758 76.0211 93.4206 75.1479 91.2456 75.1479C89.2136 75.1479 87.6208 76.0158 86.7477 76.8889C85.4406 78.196 85.1496 79.7888 85.1496 82.2548C85.1496 84.7207 85.4406 86.3188 86.7477 87.6206C87.6155 88.4885 89.0707 89.3616 91.2456 89.3616C93.2777 89.3616 94.8705 88.4938 95.7436 87.6206C96.4686 86.8956 96.9025 86.1707 97.0507 85.1547H93.5687C93.4259 85.2975 93.2777 85.5886 93.1348 85.7368C92.7009 86.1707 92.1188 86.3188 91.3938 86.3188C90.6689 86.3188 90.0868 86.0278 89.51 85.7368C88.9279 85.1547 88.6421 84.2868 88.6421 83.2708H94.0079L95.6061 83.4137H95.6008ZM91.2509 78.0478C92.1188 78.0478 92.7009 78.3389 93.1348 78.6299C93.7169 79.212 94.0027 79.937 94.0027 80.953H88.4886C88.4886 80.0852 88.7797 79.212 89.3565 78.6299C89.9386 78.3389 90.5154 78.0478 91.2404 78.0478H91.2509Z" fill="#0F110E"/>
<path id="path26" d="M148.259 83.4137H150V82.2548C150 79.7888 149.709 78.1907 148.402 76.8889C147.534 76.0211 146.079 75.1479 143.904 75.1479C141.872 75.1479 140.279 76.0158 139.406 76.8889C138.099 78.196 137.808 79.7888 137.808 82.2548C137.808 84.7207 138.099 86.3188 139.406 87.6206C140.274 88.4885 141.729 89.3616 143.904 89.3616C145.936 89.3616 147.529 88.4938 148.402 87.6206C149.127 86.8956 149.561 86.1707 149.709 85.1547H146.227C146.084 85.2975 145.936 85.5886 145.793 85.7368C145.359 86.1707 144.777 86.3188 143.909 86.3188C143.041 86.3188 142.602 86.0278 142.025 85.7368C141.443 85.1547 141.157 84.2868 141.157 83.2708H146.523L148.264 83.4137H148.259ZM143.909 78.0478C144.777 78.0478 145.359 78.3389 145.793 78.6299C146.375 79.212 146.661 79.937 146.661 80.953H141.295C141.295 80.0852 141.586 79.212 142.163 78.6299C142.597 78.3389 143.179 78.0478 143.904 78.0478H143.909Z" fill="#0F110E"/>
<path id="path27" d="M76.5981 71.084H73.1161V89.3617H76.5981V71.084Z" fill="#0F110E"/>
<path id="path28" d="M83.1228 71.084H79.6408V89.3617H83.1228V71.084Z" fill="#0F110E"/>
<path id="path29" d="M121.276 75C120.117 75 119.244 75.291 118.519 75.8678C118.085 76.3018 117.651 76.8839 117.069 77.8999V75.4339H113.445V89.2136H117.218V82.3979C117.218 81.239 117.36 80.7998 117.651 80.223C118.085 79.2069 119.25 78.773 120.7 78.773H121.282V75H121.276Z" fill="#0F110E"/>
<path id="path30" d="M23.0667 78.6303C23.9493 78.6303 24.6648 77.9148 24.6648 77.0322C24.6648 76.1496 23.9493 75.4341 23.0667 75.4341C22.1841 75.4341 21.4686 76.1496 21.4686 77.0322C21.4686 77.9148 22.1841 78.6303 23.0667 78.6303Z" fill="#0F110E"/>
<path id="path31" d="M12.6208 89.6527C14.1434 89.6527 15.3778 88.4183 15.3778 86.8957C15.3778 85.373 14.1434 84.1387 12.6208 84.1387C11.0981 84.1387 9.86379 85.373 9.86379 86.8957C9.86379 88.4183 11.0981 89.6527 12.6208 89.6527Z" fill="#0F110E"/>
<path id="path32" d="M2.75697 79.3553C4.27962 79.3553 5.51398 78.121 5.51398 76.5983C5.51398 75.0757 4.27962 73.8413 2.75697 73.8413C1.23432 73.8413 -3.05176e-05 75.0757 -3.05176e-05 76.5983C-3.05176e-05 78.121 1.23432 79.3553 2.75697 79.3553Z" fill="#0F110E"/>
<path id="path33" d="M12.6208 68.1841C13.5823 68.1841 14.3618 67.4047 14.3618 66.4431C14.3618 65.4816 13.5823 64.7021 12.6208 64.7021C11.6593 64.7021 10.8798 65.4816 10.8798 66.4431C10.8798 67.4047 11.6593 68.1841 12.6208 68.1841Z" fill="#0F110E"/>
<path id="path34" d="M20.0187 71.0839C20.9013 71.0839 21.6168 70.3684 21.6168 69.4858C21.6168 68.6032 20.9013 67.8877 20.0187 67.8877C19.1361 67.8877 18.4206 68.6032 18.4206 69.4858C18.4206 70.3684 19.1361 71.0839 20.0187 71.0839Z" fill="#0F110E"/>
<path id="path35" d="M5.22293 71.9519C6.4241 71.9519 7.39784 70.9781 7.39784 69.777C7.39784 68.5758 6.4241 67.6021 5.22293 67.6021C4.02176 67.6021 3.04802 68.5758 3.04802 69.777C3.04802 70.9781 4.02176 71.9519 5.22293 71.9519Z" fill="#0F110E"/>
<path id="path36" d="M5.65685 86.7529C7.25841 86.7529 8.55673 85.4546 8.55673 83.853C8.55673 82.2515 7.25841 80.9531 5.65685 80.9531C4.05529 80.9531 2.75697 82.2515 2.75697 83.853C2.75697 85.4546 4.05529 86.7529 5.65685 86.7529Z" fill="#0F110E"/>
<path id="path37" d="M19.7276 86.4621C20.9288 86.4621 21.9025 85.4884 21.9025 84.2872C21.9025 83.086 20.9288 82.1123 19.7276 82.1123C18.5265 82.1123 17.5527 83.086 17.5527 84.2872C17.5527 85.4884 18.5265 86.4621 19.7276 86.4621Z" fill="#0F110E"/>
<path id="path38" d="M29.5967 65.8612L32.6395 64.8452L29.5967 63.6863L28.4326 60.3472L27.2737 63.5381L24.0827 64.8452L27.2737 66.0093L28.4326 69.0521L29.5967 65.8612Z" fill="#0F110E"/>
</g>
<defs>
<clipPath id="clip0_453_27">
<rect width="150" height="150" fill="white"/>
</clipPath>
</defs>
</svg>
