<svg width="150" height="150" viewBox="0 0 150 150" fill="none" xmlns="http://www.w3.org/2000/svg">
<g clip-path="url(#clip0_453_1076)">
<path id="path1" d="M115.064 101.872C111.365 100.75 108.682 97.3367 108.682 93.2991C108.682 89.2615 111.428 85.7795 115.18 84.6841C115.567 84.5677 115.466 84.3296 114.995 84.3296C110.005 84.3296 105.951 88.3513 105.951 93.3044C105.951 98.2575 110.005 102.279 114.995 102.279C115.466 102.279 115.493 102.009 115.064 101.882" fill="#0F110E"/>
<path id="path2" d="M110.402 95.3896C110.375 95.1514 110.36 94.908 110.36 94.6646C110.36 90.7275 113.545 87.5419 117.482 87.5419C121.208 87.5419 122.319 89.2035 122.456 89.0924C122.615 88.9813 121.107 85.6792 116.741 85.6792C112.804 85.6792 109.619 88.8648 109.619 92.8019C109.619 93.7121 109.788 94.5799 110.1 95.3737C110.227 95.7176 110.428 95.7176 110.397 95.3896" fill="#0F110E"/>
<path id="path3" d="M113.386 90.2565C115.233 89.4469 117.567 89.4151 119.858 90.2301C121.393 90.7698 122.292 91.5371 122.361 91.4948C122.488 91.4366 121.467 89.8332 119.631 89.1347C117.493 88.3198 115.085 88.6902 113.291 90.1031C113.09 90.2618 113.164 90.3571 113.392 90.2618" fill="#0F110E"/>
<path id="path4" d="M150 93.6114C150 94.1247 149.571 94.5481 149.063 94.5481C148.555 94.5481 148.127 94.1353 148.127 93.6114C148.127 93.0876 148.54 92.6748 149.063 92.6748C149.587 92.6748 150 93.0876 150 93.6114ZM119.456 98.8609L119.567 100.115H121.546L120.88 92.8494H117.937L114.212 100.115H116.233L116.858 98.8609H119.461H119.456ZM119.355 97.4533H117.551L119.101 94.31H119.117L119.361 97.4533H119.355ZM124.287 96.94H124.584L125.991 95.019H127.828L125.88 97.4638L127.076 100.11H125.129L124.346 98.0459H124.06L123.621 100.11H121.959L123.494 92.8441H125.155L124.287 96.94Z" fill="#0F110E"/>
<path id="path5" d="M130.436 100.11H132.098L132.765 96.9401C133.135 95.1938 132.468 94.9768 130.759 94.9768C129.563 94.9768 128.415 94.9609 128.087 96.5379H129.749C129.849 96.0828 130.135 95.9822 130.548 95.9822C131.273 95.9822 131.246 96.2786 131.146 96.7496L130.976 97.5592H130.907C130.849 96.9771 130.108 96.993 129.643 96.993C128.436 96.993 127.722 97.3793 127.468 98.6017C127.198 99.8929 127.812 100.179 128.976 100.179C129.558 100.179 130.341 100.062 130.611 99.369H130.669L130.442 100.11H130.436ZM129.965 98.0037C130.505 98.0037 130.86 98.046 130.775 98.4747C130.659 98.9985 130.431 99.0991 129.738 99.0991C129.484 99.0991 129.013 99.0991 129.124 98.5435C129.225 98.0725 129.553 98.0037 129.965 98.0037ZM135.469 95.0191L135.31 95.7282H135.379C135.707 95.1303 136.374 94.9609 136.945 94.9609C137.654 94.9609 138.369 95.0879 138.268 95.9558H138.337C138.58 95.2308 139.316 94.9609 139.956 94.9609C141.136 94.9609 141.634 95.4425 141.38 96.6225L140.639 100.105H138.977L139.602 97.1623C139.686 96.6384 139.771 96.2363 139.131 96.2363C138.491 96.2363 138.263 96.6649 138.152 97.2152L137.538 100.105H135.876L136.533 97.0194C136.617 96.5485 136.649 96.2363 136.062 96.2363C135.379 96.2363 135.167 96.6067 135.035 97.2152L134.421 100.105H132.76L133.839 95.0139H135.458L135.469 95.0191ZM144.47 100.11H146.132L146.814 96.9401C147.185 95.1938 146.518 94.9768 144.809 94.9768C143.613 94.9768 142.459 94.9609 142.137 96.5379H143.798C143.899 96.0828 144.184 95.9822 144.592 95.9822C145.317 95.9822 145.29 96.2786 145.19 96.7496L145.021 97.5592H144.952C144.894 96.9771 144.153 96.993 143.687 96.993C142.48 96.993 141.766 97.3793 141.512 98.6017C141.242 99.8929 141.851 100.179 143.02 100.179C143.602 100.179 144.385 100.062 144.655 99.369H144.714L144.47 100.11ZM144.015 98.0037C144.555 98.0037 144.909 98.046 144.825 98.4747C144.714 98.9985 144.486 99.0991 143.788 99.0991C143.534 99.0991 143.063 99.0991 143.174 98.5435C143.274 98.0725 143.602 98.0037 144.015 98.0037Z" fill="#0F110E"/>
<path id="path6" d="M148.55 100.11H146.888L147.952 95.019H149.63L148.55 100.11Z" fill="#0F110E"/>
<path id="path7" d="M58.5003 67.3956C57.0345 67.3956 55.5687 67.3903 54.1029 67.3903C52.8805 67.3903 52.9016 67.3903 52.8858 68.618C52.8858 69.036 53.0128 69.163 53.4202 69.1472C54.251 69.1207 55.0818 69.1472 55.9126 69.1366C56.2936 69.1313 56.4418 69.2848 56.4312 69.6711C56.4048 70.359 56.1296 70.9411 55.7486 71.4914C55.267 72.1793 54.6215 72.5762 53.8118 72.8249C52.69 73.1689 51.6052 73.0631 50.5891 72.6133C49.7425 72.2428 49.0969 71.6078 48.6682 70.7135C48.2819 69.9092 48.065 69.0784 48.0279 68.2264C47.9962 67.4591 48.1391 66.6865 48.2237 65.9192C48.3084 65.1731 48.6259 64.501 49.0598 63.8977C49.6419 63.0828 50.4515 62.4796 51.4199 62.3208C52.3354 62.1726 53.2932 62.1038 54.2246 62.5166C55.1295 62.9241 55.6798 63.5855 55.9179 64.5116C55.992 64.7921 56.1243 64.8767 56.3571 64.882C56.9339 64.8926 57.516 64.882 58.0928 64.8873C58.3521 64.8873 58.5056 64.7709 58.4262 64.5169C58.2304 63.9083 58.0823 63.2627 57.7595 62.723C57.3044 61.9504 56.627 61.3947 55.7803 60.9873C54.8014 60.5216 53.8277 60.2517 52.7535 60.2994C52.3936 60.3152 52.0338 60.2994 51.6739 60.3046C50.6685 60.3046 49.7372 60.6698 48.9064 61.1407C48.0015 61.6488 47.1971 62.3578 46.6468 63.2945C45.9959 64.3952 45.5355 65.5541 45.5038 66.8453C45.4879 67.5332 45.5038 68.2211 45.5038 68.909C45.5038 69.036 45.4879 69.1683 45.5302 69.2795C45.8583 70.1473 46.0964 71.0734 46.5621 71.8618C46.9696 72.5498 47.5675 73.1689 48.2026 73.661C48.7582 74.0897 49.4197 74.4389 50.1764 74.5236C50.9596 74.6083 51.7322 74.894 52.5047 74.8887C53.3091 74.8834 54.1134 74.6241 54.9178 74.4813C55.6639 74.349 56.2725 73.9468 56.8493 73.497C57.6536 72.8673 58.1458 72.0418 58.4791 71.0681C58.8866 69.8774 58.9713 68.6762 58.876 67.4115C58.7384 67.4062 58.622 67.3956 58.5003 67.3956Z" fill="#0F110E"/>
<path id="path8" d="M101.369 59.5797C101.279 59.5691 101.131 59.5321 100.983 59.5321C100.543 59.5268 100.104 59.5533 99.6702 59.5268C99.2415 59.5003 99.0986 59.6538 99.1039 60.0877C99.1251 61.6858 99.1092 63.2839 99.1145 64.8768C99.1145 65.0144 99.1727 65.1466 99.178 65.2842C99.178 65.4007 99.1516 65.5171 99.141 65.6335C99.0193 65.6017 98.8499 65.607 98.7864 65.5277C98.2837 64.9191 97.7069 64.4852 96.9026 64.2735C95.9289 64.0142 94.9711 64.0883 94.1138 64.427C93.3359 64.7339 92.611 65.2366 92.1453 66.0674C91.6214 67.0093 91.2034 67.9513 91.2034 69.0361C91.2034 69.8669 91.1293 70.6871 91.4309 71.5179C91.6796 72.2111 91.8913 72.8991 92.3887 73.4494C93.5 74.6718 94.8705 75.0793 96.5057 74.7776C97.4476 74.603 98.1567 74.1162 98.7176 73.4124C98.9293 73.1425 99.0457 73.1742 99.305 73.3065C99.2468 73.497 99.1939 73.6717 99.1463 73.8516C98.9716 74.5025 99.141 74.7194 99.8077 74.7247C99.9824 74.7247 100.152 74.7247 100.326 74.7247C101.379 74.7247 101.385 74.7247 101.385 73.6928C101.385 70.7347 101.385 67.7766 101.385 64.8186C101.385 63.0934 101.385 61.3683 101.385 59.585L101.369 59.5797ZM98.0932 72.5286C97.4 73.0419 96.6591 73.1372 95.8019 73.0578C94.7118 72.952 94.1085 72.2535 93.791 71.4174C93.4312 70.4649 93.2142 69.4065 93.6164 68.364C93.8069 67.8666 93.918 67.311 94.2144 66.8876C94.8705 65.9457 96.0241 65.6017 97.0613 65.8822C98.1779 66.1838 98.9346 66.9247 99.1145 68.1471C99.1833 68.6075 99.305 69.0573 99.3897 69.4383C99.1516 70.6183 99.1251 71.7719 98.1038 72.5339L98.0932 72.5286Z" fill="#0F110E"/>
<path id="path9" d="M149.312 71.7188C148.936 71.7241 148.561 71.6764 148.19 71.7188C148 71.7399 147.709 71.8458 147.65 71.9887C147.407 72.6025 146.984 72.9041 146.359 73.1105C145.454 73.4016 144.56 73.3698 143.798 72.9253C142.946 72.4279 142.428 71.5971 142.401 70.544C142.385 69.9672 142.412 69.9249 142.988 69.9249C145.126 69.9249 147.264 69.9249 149.402 69.9249C149.587 69.9249 149.772 69.909 150 69.8984C150.016 68.8771 149.868 67.9616 149.571 67.0462C149.127 65.6703 148.153 64.8289 146.867 64.4003C146.137 64.1569 145.296 64.1622 144.512 64.1886C144.01 64.2045 143.496 64.4003 143.025 64.6067C142.57 64.8077 142.142 65.0935 141.745 65.3951C141.105 65.882 140.671 66.5329 140.454 67.3107C140.311 67.8293 140.258 68.3744 140.099 68.8877C139.835 69.7608 140.205 70.5758 140.284 71.4172C140.306 71.6553 140.39 71.904 140.501 72.1157C141.173 73.4068 142.205 74.3064 143.608 74.7086C144.735 75.0261 145.888 74.952 147.026 74.698C147.338 74.6292 147.666 74.5446 147.936 74.3858C148.751 73.9201 149.386 73.2746 149.751 72.3802C149.937 71.9304 149.799 71.7188 149.307 71.7294L149.312 71.7188ZM142.465 67.8664C142.787 67.025 143.205 66.1942 144.11 65.8978C144.835 65.6597 145.603 65.6597 146.365 65.9931C147.28 66.3953 147.513 67.2049 147.751 68.0251C147.862 68.4009 147.566 68.4696 147.275 68.4696C146.523 68.4696 145.772 68.4696 145.02 68.4696C144.317 68.4696 143.613 68.4749 142.909 68.4696C142.433 68.4696 142.295 68.2897 142.459 67.8611L142.465 67.8664Z" fill="#0F110E"/>
<path id="path10" d="M81.4347 68.2952C81.4242 67.6814 81.3342 67.0675 81.2231 66.459C81.1702 66.1732 81.0114 65.8875 80.8474 65.6388C80.2071 64.6704 79.2228 64.2682 78.1274 64.1729C77.069 64.083 76.0107 64.12 74.9947 64.5857C74.2115 64.9455 73.6029 65.4377 73.259 66.2261C73.1055 66.5754 73.042 66.967 72.9309 67.3639H75.0952C75.2804 66.8082 75.4974 66.369 76.0319 66.0515C76.688 65.6652 77.3336 65.8822 77.9845 65.8504C78.0533 65.8504 78.1221 65.9086 78.1909 65.9457C78.8788 66.332 79.1064 66.9882 79.2122 67.7025C79.318 68.454 79.1275 68.6604 78.3708 68.6604C77.0055 68.6551 75.6509 68.6233 74.3544 69.2001C73.6188 69.5282 72.9679 70.0098 72.7298 70.6977C72.4335 71.5602 72.4229 72.5127 72.8991 73.4071C73.296 74.1426 73.9099 74.5395 74.6772 74.7194C75.418 74.894 76.1483 74.984 76.9368 74.7829C77.5982 74.6083 78.1803 74.3754 78.6672 73.9045C78.7995 73.7775 78.9635 73.6822 79.2069 73.5023C79.2281 73.8198 79.2651 74.0156 79.244 74.2061C79.2069 74.5818 79.3339 74.7565 79.7361 74.73C80.1118 74.7035 80.4875 74.7035 80.8632 74.73C81.3236 74.7617 81.4559 74.5712 81.4506 74.1267C81.4294 72.1847 81.4559 70.2426 81.4347 68.3005V68.2952ZM79.2069 71.2956C79.0799 71.8513 78.863 72.3699 78.3867 72.7456C77.8046 73.2007 77.1378 73.3065 76.4287 73.2853C75.9101 73.2695 75.4551 73.1954 75.0741 72.7509C74.402 71.9624 74.746 70.7876 75.5186 70.4543C76.27 70.1368 77.0955 69.9992 77.8893 69.7822C77.8999 69.8245 77.9157 69.8722 77.9263 69.9145C77.9898 69.9145 78.0533 69.9145 78.1115 69.9145C79.2175 69.9092 79.4556 70.1897 79.2069 71.2956Z" fill="#0F110E"/>
<path id="path11" d="M126.087 64.1467C125.134 64.099 124.213 64.1996 123.319 64.6017C122.239 65.0886 121.435 65.84 120.916 66.8772C120.498 67.7027 120.281 68.5864 120.414 69.4966C120.297 70.6555 120.588 71.6768 121.186 72.6452C121.858 73.7194 122.837 74.3756 124.012 74.6719C124.854 74.8889 125.721 74.9948 126.637 74.7831C127.484 74.5873 128.272 74.3227 128.949 73.8041C130.05 72.9627 130.674 71.825 130.764 70.4227C130.78 70.174 130.801 69.9252 130.812 69.6765C130.849 68.5917 130.78 67.4805 130.198 66.5703C129.262 65.115 127.88 64.2366 126.092 64.1467H126.087ZM127.722 72.2589C127.478 72.5553 127.129 72.8357 126.774 72.9627C125.372 73.4548 124.118 73.2008 123.245 71.9202C122.954 71.4916 122.747 70.9518 122.684 70.4385C122.578 69.5601 122.53 68.6499 122.88 67.8085C123.208 67.0307 123.673 66.3269 124.568 66.0834C124.975 65.9723 125.404 65.8188 125.817 65.84C126.817 65.8876 127.96 66.5809 128.246 67.6815C128.399 68.2848 128.5 68.8987 128.627 69.5072C128.579 69.5072 128.537 69.5178 128.489 69.5178C128.658 70.555 128.362 71.4651 127.722 72.2483V72.2589Z" fill="#0F110E"/>
<path id="path12" d="M70.3485 64.8451C70.3485 64.6917 70.3327 64.5435 70.3274 64.3847H68.1366C68.1366 64.6017 68.1366 64.7869 68.1366 64.9721C68.1366 66.8507 68.1578 68.7293 68.1207 70.6078C68.1101 71.0523 67.999 71.5498 67.7715 71.9202C67.3322 72.6505 66.6496 73.1108 65.7553 73.0791C65.3055 73.0632 64.8028 73.0209 64.4218 72.8198C63.7709 72.4705 63.4851 71.8302 63.4851 71.0841C63.4851 69.0468 63.4851 67.0147 63.4851 64.9774C63.4851 64.7922 63.4851 64.607 63.4851 64.3477C62.8713 64.3477 62.3368 64.3742 61.8077 64.3371C61.379 64.3107 61.2414 64.4482 61.2467 64.8822C61.2679 66.8242 61.2361 68.7663 61.2679 70.7084C61.2785 71.4175 61.3473 72.1425 61.5325 72.8198C61.6859 73.386 61.9982 73.9258 62.5591 74.2539C63.0406 74.5343 63.5645 74.656 64.0937 74.8148C64.8557 75.0476 65.5172 74.7777 66.1998 74.6243C66.5755 74.5396 66.9142 74.238 67.237 73.9893C67.5016 73.7829 67.708 73.5024 67.9408 73.259C67.9937 73.2696 68.0413 73.2855 68.0943 73.2961C68.1101 73.64 68.1366 73.9893 68.1313 74.3332C68.126 74.619 68.2318 74.7248 68.5123 74.7195C68.9674 74.709 69.4225 74.6984 69.8723 74.7195C70.2427 74.7407 70.3538 74.6084 70.3538 74.2327C70.338 71.1 70.3485 67.9673 70.3432 64.8345L70.3485 64.8451Z" fill="#0F110E"/>
<path id="path13" d="M118.186 70.9515C117.842 70.9515 117.493 70.9304 117.154 70.9621C117.043 70.9727 116.89 71.0997 116.847 71.2055C116.498 72.0628 116.075 72.7825 115.069 73.0841C114.101 73.3699 113.286 73.1582 112.524 72.6502C111.566 72.0099 111.354 70.9515 111.28 69.9038C111.243 69.3746 111.397 68.8295 111.455 68.2951C111.518 67.7077 111.762 67.2261 112.185 66.8028C112.556 66.4377 112.974 66.2313 113.45 66.0249C114.371 65.628 115.111 65.9138 115.826 66.4165C116.297 66.7499 116.646 67.2103 116.609 67.8612H118.837C118.694 66.7234 118.276 65.8027 117.419 65.1094C116.625 64.4639 115.678 64.194 114.688 64.1569C114.032 64.1305 113.36 64.2363 112.709 64.3527C112.312 64.4215 111.889 64.5485 111.555 64.7655C110.91 65.1941 110.285 65.6439 109.873 66.3689C109.402 67.1997 109.042 68.0517 108.989 68.9936C108.947 69.7239 108.957 70.4541 109.185 71.2003C109.407 71.9464 109.724 72.6026 110.185 73.1847C111.275 74.5499 112.831 74.8357 114.455 74.8992C114.725 74.9098 115 74.7616 115.276 74.7457C115.963 74.7034 116.54 74.4018 117.106 74.0525C117.969 73.5128 118.424 72.6767 118.779 71.7665C119.006 71.1791 118.826 70.941 118.197 70.9463L118.186 70.9515Z" fill="#0F110E"/>
<path id="path14" d="M138.734 64.5434C138.734 64.2947 138.623 64.136 138.353 64.1889C138.184 64.2206 138.03 64.3106 137.861 64.3265C136.977 64.4164 136.4 64.9615 135.892 65.6229C135.765 65.7923 135.617 65.9457 135.474 66.1045C135.427 66.0833 135.384 66.0622 135.337 66.041V64.3741H133.093V64.9932C133.093 67.1364 133.093 69.2848 133.093 71.428C133.093 72.3858 133.082 73.3383 133.103 74.2961C133.103 74.439 133.252 74.6877 133.336 74.693C133.987 74.7248 134.643 74.7089 135.337 74.7089C135.337 74.4496 135.337 74.2644 135.337 74.0792C135.337 72.3382 135.31 70.6025 135.358 68.8668C135.379 67.9989 135.749 67.2793 136.554 66.8136C137.078 66.512 137.617 66.3162 138.226 66.3479C138.559 66.3638 138.75 66.2368 138.739 65.8664C138.723 65.4219 138.739 64.9826 138.729 64.5381L138.734 64.5434Z" fill="#0F110E"/>
<path id="path15" d="M88.4569 64.4271C87.769 64.734 87.2239 65.2473 86.8429 65.9247C86.7953 66.0093 86.6259 66.0199 86.5095 66.0675C86.4725 65.9617 86.3984 65.8559 86.4037 65.7553C86.4248 65.4008 86.4725 65.0515 86.5201 64.697C86.5571 64.4165 86.4196 64.3424 86.1656 64.3477C85.6628 64.3583 85.1654 64.3583 84.6627 64.3477C84.3981 64.3424 84.3029 64.443 84.3029 64.7023C84.3029 67.9091 84.3029 71.1159 84.3029 74.3227C84.3029 74.6402 84.4457 74.7301 84.7368 74.7195C85.1284 74.709 85.52 74.7195 85.9116 74.7195C86.4778 74.7195 86.5201 74.6666 86.5201 74.1057C86.5307 72.2271 86.5201 70.3486 86.573 68.4753C86.5889 67.7926 86.9699 67.2211 87.552 66.8719C88.1341 66.5173 88.7744 66.2898 89.4888 66.348C89.5999 66.3586 89.8169 66.2104 89.8222 66.131C89.8486 65.496 89.838 64.861 89.838 64.189C89.3247 64.2736 88.8485 64.263 88.4569 64.4377V64.4271Z" fill="#0F110E"/>
<path id="path16" d="M106.65 64.9245C106.65 64.7446 106.634 64.5594 106.624 64.3848H104.449V74.7196C105.015 74.7196 105.56 74.6984 106.1 74.7249C106.528 74.7513 106.661 74.6084 106.655 74.1692C106.634 71.0894 106.645 68.0043 106.645 64.9245H106.65Z" fill="#0F110E"/>
<path id="path17" d="M105.491 59.818C104.84 59.8233 104.158 60.4795 104.158 61.0986C104.158 61.7918 104.814 62.4586 105.512 62.4851C106.2 62.5115 106.867 61.8395 106.867 61.1251C106.867 60.4001 106.237 59.8074 105.491 59.818Z" fill="#0F110E"/>
<path id="path18" d="M24.8818 52.5999L16.5896 57.4736L8.29218 52.5999L16.5896 47.7314L24.8818 52.5999Z" fill="#0F110E"/>
<path id="path19" d="M33.174 57.4738L24.8818 62.3422L16.5897 57.4738L24.8818 52.6001L33.174 57.4738Z" fill="#0F110E"/>
<path id="path20" d="M16.5896 57.4738L8.29218 62.3422L0 57.4738L8.29218 52.6001L16.5896 57.4738Z" fill="#0F110E"/>
<path id="path21" d="M8.29218 62.342L0 67.2157V57.4736L8.29218 62.342Z" fill="#0F110E"/>
<path id="path22" d="M8.29218 72.0842L0 76.9526V67.2158L8.29218 72.0842Z" fill="#0F110E"/>
<path id="path23" d="M0 67.2155L8.29218 62.3418V72.0839L0 67.2155Z" fill="#0F110E"/>
<path id="path24" d="M16.5897 67.2155L24.8818 62.3418V72.0839L16.5897 67.2155Z" fill="#0F110E"/>
<path id="path25" d="M8.29218 81.8263L16.5896 76.9526L24.8818 81.8263L16.5896 86.6948L8.29218 81.8263Z" fill="#0F110E"/>
<path id="path26" d="M0 76.9524L8.29218 72.084L16.5896 76.9524L8.29218 81.8261L0 76.9524Z" fill="#0F110E"/>
<path id="path27" d="M16.5897 76.9524L24.8818 72.084L33.174 76.9524L24.8818 81.8261L16.5897 76.9524Z" fill="#0F110E"/>
<path id="path28" d="M55.0765 95.7807C55.0765 96.712 55.0924 97.5322 55.1559 98.4054C54.8596 97.8074 54.4944 97.1565 54.0023 96.3522L51.6581 92.6479H50.4886V100.083H51.5416V96.8972C51.5416 95.8124 51.5258 95.0081 51.4834 94.2037C51.7904 94.8229 52.1872 95.5161 52.7111 96.3575L55.0448 100.088H56.119V92.6532H55.0765V95.786V95.7807Z" fill="#0F110E"/>
<path id="path29" d="M59.8708 94.5903C58.2939 94.5903 57.1879 95.7492 57.1879 97.4108C57.1879 99.0724 58.241 100.2 59.7491 100.2C61.0509 100.2 62.4532 99.3212 62.4532 97.3897C62.4532 95.7175 61.416 94.5903 59.8708 94.5903ZM59.8179 95.4476C61.0139 95.4476 61.3367 96.6753 61.3367 97.4003C61.3367 98.3316 60.8604 99.3264 59.8179 99.3264C58.7755 99.3264 58.3098 98.3634 58.3098 97.4108C58.3098 96.5059 58.7067 95.4476 59.8179 95.4476Z" fill="#0F110E"/>
<path id="path30" d="M68.7345 97.379C68.6075 97.8288 68.4805 98.3103 68.3853 98.7919C68.2689 98.3209 68.126 97.8341 67.9884 97.379L67.1629 94.7119H66.258L65.3743 97.4213C65.2261 97.8658 65.0832 98.3421 64.9721 98.8024C64.8821 98.3526 64.7763 97.887 64.644 97.416L63.9243 94.7119H62.7972L64.4217 100.083H65.4007L66.2633 97.5483C66.4379 97.0191 66.5702 96.564 66.676 96.1142C66.7872 96.6011 66.9195 97.0403 67.0729 97.5377L67.8773 100.088H68.8562L70.6025 94.7172H69.4965L68.7345 97.3843V97.379Z" fill="#0F110E"/>
<path id="path31" d="M76.4764 94.5903C75.6985 94.5903 75.0794 94.8867 74.6666 95.4582L74.6296 94.712H73.6188V94.7967C73.6453 95.2888 73.6665 95.8233 73.6665 96.4901V102.226H74.7619V99.5275C75.1111 99.9615 75.6667 100.205 76.3229 100.205C77.54 100.205 78.7677 99.3106 78.7677 97.3209C78.7677 95.7175 77.8258 94.5956 76.4764 94.5956V94.5903ZM76.1853 95.5058C77.2066 95.5058 77.6617 96.4372 77.6617 97.3579C77.6617 98.5539 77.0849 99.2947 76.1536 99.2947C75.508 99.2947 74.9682 98.8714 74.8042 98.2416C74.7777 98.1411 74.7619 98.0247 74.7619 97.8765V96.9822C74.7619 96.8552 74.7936 96.7229 74.8254 96.6118C74.9947 95.9609 75.5503 95.5058 76.1853 95.5058Z" fill="#0F110E"/>
<path id="path32" d="M83.6467 98.7496V96.8076C83.6467 95.7969 83.2869 94.5903 81.5829 94.5903C80.9321 94.5903 80.2706 94.765 79.8261 95.056L79.7732 95.0878L80.043 95.8709L80.1277 95.8127C80.477 95.5799 80.9797 95.437 81.4454 95.437C82.3608 95.437 82.5513 96.0509 82.5513 96.5695V96.6065H82.5407C81.3289 96.6065 80.4188 96.8711 79.9055 97.3791C79.5774 97.7019 79.4133 98.1199 79.4133 98.6174C79.4133 99.4005 79.9901 100.194 81.0908 100.194C81.7047 100.194 82.2762 99.9403 82.6519 99.5117L82.726 100.078H83.742L83.7261 99.9879C83.6785 99.6598 83.652 99.2418 83.652 98.7496H83.6467ZM81.3342 99.3423C80.9373 99.3423 80.5193 99.1254 80.5193 98.5168C80.5193 98.2469 80.604 98.0353 80.7786 97.8659C81.0749 97.5749 81.6517 97.4267 82.4402 97.4267C82.4825 97.4267 82.5249 97.4267 82.5725 97.4267V98.2469C82.5725 98.3263 82.5566 98.411 82.5355 98.5009V98.5221C82.3873 98.919 81.9957 99.3423 81.3342 99.3423Z" fill="#0F110E"/>
<path id="path33" d="M87.4091 94.5903C86.8217 94.5903 86.2873 94.9502 85.9909 95.527L85.9645 94.712H84.9749V94.7967C85.0014 95.31 85.0225 95.818 85.0225 96.4107V100.083H86.1179V97.2097C86.1179 97.051 86.1338 96.9028 86.1603 96.7917C86.2873 96.0773 86.7477 95.6381 87.3562 95.6381C87.4726 95.6381 87.5679 95.6487 87.6525 95.6698L87.7531 95.6963V94.638L87.6949 94.6221C87.6102 94.5956 87.5255 94.5956 87.4144 94.5956L87.4091 94.5903Z" fill="#0F110E"/>
<path id="path34" d="M90.1079 93.1719L89.0231 93.4629V94.7065H88.2135V95.5796H89.0231V98.3525C89.0231 99.0034 89.1449 99.4691 89.3989 99.776C89.6476 100.046 90.0392 100.199 90.4837 100.199C90.8594 100.199 91.1663 100.146 91.3727 100.051L91.4203 100.03L91.3674 99.1674L91.2774 99.1886C91.161 99.2151 90.997 99.2521 90.7483 99.2521C90.3037 99.2521 90.1132 98.9716 90.1132 98.3155V95.5796H91.4732V94.7065H90.1132V93.1719H90.1079Z" fill="#0F110E"/>
<path id="path35" d="M96.9819 94.5903C95.405 94.5903 94.299 95.7492 94.299 97.4108C94.299 99.0724 95.3521 100.2 96.8602 100.2C98.162 100.2 99.5643 99.3212 99.5643 97.3897C99.5643 95.7175 98.5271 94.5903 96.9819 94.5903ZM96.929 95.4476C98.1249 95.4476 98.4477 96.6753 98.4477 97.4003C98.4477 98.3316 97.9715 99.3264 96.929 99.3264C95.8865 99.3264 95.4209 98.3634 95.4209 97.4108C95.4209 96.5059 95.8177 95.4476 96.929 95.4476Z" fill="#0F110E"/>
<path id="path36" d="M103.507 92.3095C103.311 92.2036 102.977 92.1401 102.649 92.1401C102.136 92.1401 101.67 92.3201 101.332 92.6481C100.914 93.045 100.702 93.68 100.702 94.532V94.7119H99.9665V95.5851H100.702V100.088H101.797V95.5851H103.062V94.7119H101.797V94.5003C101.797 93.5319 102.099 93.0556 102.723 93.0556C102.967 93.0556 103.131 93.1191 103.274 93.1773L103.364 93.2144L103.56 92.3412L103.507 92.3148V92.3095Z" fill="#0F110E"/>
</g>
<defs>
<clipPath id="clip0_453_1076">
<rect width="150" height="150" fill="white"/>
</clipPath>
</defs>
</svg>
