<svg width="150" height="150" viewBox="0 0 150 150" fill="none" xmlns="http://www.w3.org/2000/svg">
<g clip-path="url(#clip0_453_168)">
<path id="path1" d="M51.203 59.564H45.9271V83.8161H51.203V59.564Z" fill="#0F110E"/>
<path id="path2" d="M53.5154 76.6724C53.5154 81.8848 57.5689 84.3296 62.0722 84.3296C66.5755 84.3296 70.629 81.8848 70.629 76.6724V65.9937H65.2896V76.1591C65.2896 78.5404 63.8079 79.44 62.0087 79.44C60.2095 79.44 58.7278 78.5404 58.7278 76.1591V65.9937H53.3884V76.6724H53.5154Z" fill="#0F110E"/>
<path id="path3" d="M72.9415 83.8159H78.2174V73.8463C78.2174 71.7878 79.4398 70.3061 81.1755 70.3061C82.9112 70.3061 83.8108 71.592 83.8108 73.6505V83.8159H89.0867V73.8463C89.0867 71.7878 90.3091 70.3061 92.0448 70.3061C93.7805 70.3061 94.68 71.592 94.68 73.6505V83.8159H99.9559V73.0102C99.9559 68.4434 97.7069 65.6123 93.6534 65.6123C91.1452 65.6123 88.8909 66.1891 87.7373 68.4434C86.9012 66.5754 85.356 65.6123 82.9112 65.6123C80.7257 65.6123 78.9212 66.6389 78.2809 68.2476V65.9986H73.005V83.8159H72.9415Z" fill="#0F110E"/>
<path id="path4" d="M104.845 64.5173C106.518 64.5173 107.867 63.2314 107.867 61.5592C107.867 59.887 106.518 58.5376 104.845 58.5376C103.173 58.5376 101.824 59.8235 101.824 61.5592C101.887 63.1679 103.237 64.5173 104.845 64.5173Z" fill="#0F110E"/>
<path id="path5" d="M107.55 65.9937H102.274V83.811H107.55V65.9937Z" fill="#0F110E"/>
<path id="path6" d="M123.695 74.9363C123.695 77.3811 121.636 79.3126 119.064 79.3126C116.493 79.3126 114.561 77.3811 114.561 74.9363C114.561 72.4916 116.556 70.4966 119.064 70.4966C121.573 70.4966 123.695 72.4281 123.695 74.9363ZM128.648 80.8525V65.9933H123.372V68.3111C122.859 66.7659 120.8 65.6758 118.096 65.6758C113.016 65.6758 109.285 69.7928 109.285 74.8728C109.285 79.9529 113.079 83.8794 118.096 83.8794C120.731 83.8794 122.79 82.9798 123.562 81.6939V82.0802C123.562 83.4296 123.372 85.0383 122.017 85.9379C121.118 86.5147 119.832 86.8375 118.35 86.8375C116.292 86.8375 114.492 86.1919 112.884 85.1653L110.375 88.9595C112.82 90.6952 115.651 91.4678 119.123 91.4678C121.631 91.4678 123.949 90.6952 125.621 89.4093C128.129 87.4778 128.643 84.5197 128.643 80.8525H128.648Z" fill="#0F110E"/>
<path id="path7" d="M144.729 74.9363C144.729 77.5716 142.671 79.5666 140.099 79.5666C137.527 79.5666 135.469 77.5081 135.469 74.9363C135.469 72.3646 137.464 70.3061 140.099 70.3061C142.671 70.2426 144.729 72.3646 144.729 74.9363ZM150.005 74.9363C150.005 69.6605 145.566 65.48 140.099 65.48C134.633 65.48 130.193 69.6605 130.193 74.9363C130.193 80.2122 134.569 84.3927 140.099 84.3927C145.566 84.3292 150.005 80.2122 150.005 74.9363Z" fill="#0F110E"/>
<path id="path8" d="M29.0411 59.5005H0L4.32865 63.9509H19.5848L18.4365 65.0992L5.50342 65.1309L9.76857 69.4225L14.2084 69.4543L12.0334 71.698L14.2084 74.0105L9.65216 73.9787L5.36055 78.3021L18.5 78.2439L19.6165 79.4504H4.23869L0 83.8796H29.0411C35.7722 83.8796 41.228 78.4238 41.228 71.6927C41.228 64.9616 35.7722 59.5058 29.0411 59.5058V59.5005ZM29.147 79.5615C27.1255 79.5615 25.2893 78.7836 23.9081 77.5136L18.3835 71.6927L23.9081 66.0887C25.2893 64.8187 27.1255 64.0408 29.147 64.0408C33.4333 64.0408 36.91 67.5175 36.91 71.8038C36.91 76.0901 33.4333 79.5668 29.147 79.5668V79.5615Z" fill="#0F110E"/>
</g>
<defs>
<clipPath id="clip0_453_168">
<rect width="150" height="150" fill="white"/>
</clipPath>
</defs>
</svg>
