<svg width="150" height="150" viewBox="0 0 150 150" fill="none" xmlns="http://www.w3.org/2000/svg">
<path id="path1" fill-rule="evenodd" clip-rule="evenodd" d="M8.4721 60.2835L13.9914 75.5026L19.7753 60.2835H27.9828L13.9438 95.5213H5.82622L9.98024 84.6044L0 60.2835H8.4721ZM95.1722 59.7437C102.586 59.7437 107.989 65.4959 107.989 73.37C107.989 81.2441 102.586 86.9963 95.1722 86.9963C92.4363 86.9963 90.1344 86.2713 88.3775 84.8743L88.2611 84.7843L88.1659 84.7049V95.516H80.2547V60.2835H87.2504V62.9188L87.2875 62.8712C89.0126 60.9026 91.6161 59.8178 94.8388 59.749H95.0081H95.1722V59.7437ZM42.3869 59.7437C50.5468 59.7437 56.336 65.3847 56.336 73.37C56.336 81.3552 50.5309 86.9963 42.3869 86.9963C34.2429 86.9963 28.385 81.3288 28.385 73.37C28.385 65.4112 34.1794 59.7437 42.3869 59.7437ZM69.5125 54.4837V60.2782H76.0213V67.1098H69.5125V76.5397C69.5125 78.6512 70.5391 79.8101 72.4018 79.8788H72.4917H72.5817C73.8464 79.8788 74.8042 79.5455 75.6615 78.7199L75.7409 78.6406L75.9525 78.4236H76.0107V85.9591L75.7673 86.0755C74.4655 86.6999 73.6612 86.9804 71.4439 86.9804C65.1732 86.9804 61.7283 83.5672 61.596 77.1906V76.9948V76.799V67.0993H58.7332V60.2676H61.813V54.4731H69.5072L69.5125 54.4837ZM125.272 59.7437C133.432 59.7437 139.221 65.3847 139.221 73.37C139.221 81.3552 133.416 86.9963 125.272 86.9963C117.128 86.9963 111.27 81.3288 111.27 73.37C111.27 65.4112 117.064 59.7437 125.272 59.7437ZM145.666 78.3231C148.058 78.3231 150 80.2651 150 82.657C150 85.0489 148.058 86.991 145.666 86.991C143.274 86.991 141.332 85.0489 141.332 82.657C141.332 80.2651 143.274 78.3231 145.666 78.3231ZM93.9868 66.8453C90.4255 66.8453 88.0018 69.4805 88.0018 73.37C88.0018 77.2594 90.4202 79.8947 93.9868 79.8947C97.5535 79.8947 100.025 77.2647 100.025 73.37C100.025 69.4753 97.5958 66.8453 93.9868 66.8453ZM42.3869 66.8453C38.8097 66.8453 36.349 69.4964 36.349 73.37C36.349 77.2435 38.8097 79.8947 42.3869 79.8947C45.9642 79.8947 48.3719 77.2383 48.3719 73.37C48.3719 69.5017 45.9165 66.8453 42.3869 66.8453ZM125.272 66.8453C121.694 66.8453 119.234 69.4964 119.234 73.37C119.234 77.2435 121.694 79.8947 125.272 79.8947C128.849 79.8947 131.257 77.2383 131.257 73.37C131.257 69.5017 128.801 66.8453 125.272 66.8453Z" fill="#0F110E"/>
</svg>
